<svg width="66" height="60" viewBox="0 0 66 60" fill="none" xmlns="http://www.w3.org/2000/svg">
<path fill-rule="evenodd" clip-rule="evenodd" d="M0 51.3274C0.176944 50.7964 0.353887 50.4425 0.530831 49.9115C1.59249 46.7256 2.47721 43.3628 3.18499 40V39.646C3.36193 39.646 3.36193 39.646 3.53887 39.823C4.77748 41.4159 6.01609 43.0088 7.25469 44.6017C8.4933 46.0177 9.55496 47.4336 10.7936 48.8495L11.1475 49.2035C11.1475 48.4956 11.5013 47.9646 11.6783 47.4336C12.0322 45.6637 12.563 43.8938 12.9169 42.1239C12.9169 41.4159 13.0938 40.7079 13.2708 40.177C13.6247 40.177 14.1555 40.177 14.5094 40.177C13.9786 41.9469 13.4477 43.7168 12.9169 45.6637C12.3861 47.6106 11.8552 49.7345 11.3244 51.8584V52.0354C11.3244 52.0354 11.1475 52.0354 10.9705 52.0354C10.4397 51.3274 9.7319 50.6194 9.20107 49.9115C7.25469 47.4336 5.30831 45.1327 3.36193 42.8318C3.36193 43.3628 3.00804 43.7168 3.00804 44.2478C2.47721 46.3717 1.94638 48.6725 1.41555 50.9734C1.41555 51.3274 1.41555 51.6814 1.41555 51.8584C1.41555 51.8584 1.41555 51.8584 1.23861 51.8584C0.884719 51.8584 0.353887 51.8584 0 51.8584L0 51.3274Z" fill="#FEFEFE"/>
<path fill-rule="evenodd" clip-rule="evenodd" d="M59.0991 46.7259C59.6299 46.7259 59.9838 46.7259 60.3377 46.7259C61.5763 46.7259 62.638 46.7259 63.8766 46.7259C64.5843 46.7259 64.5843 46.7259 64.5843 46.0179C64.5843 44.956 64.2305 44.071 63.1688 43.894C62.8149 43.894 62.2841 43.894 61.9302 43.894C60.5146 44.071 59.276 45.4869 59.0991 46.9029V46.7259ZM65.9999 46.7259C65.9999 46.7259 65.9999 47.0799 65.9999 47.2569C65.9999 47.4338 65.9999 47.4338 65.646 47.4338C64.5843 47.4338 63.6996 47.4338 62.638 47.4338C61.3994 47.4338 60.3377 47.4338 59.0991 47.4338C57.8605 47.4338 58.9221 47.4338 58.9221 47.6108C58.9221 48.4958 58.9221 49.5577 59.6299 50.2657C60.1607 50.7967 60.6916 50.9737 61.3994 50.9737C62.461 50.9737 63.6996 50.9737 64.5843 50.2657C64.5843 50.6197 64.4074 51.1507 63.8766 51.3276C62.2841 51.8586 60.6916 52.0356 59.0991 51.3276C57.5066 50.7967 56.7988 49.5577 56.9758 47.9648C56.9758 45.31 59.0991 43.717 61.2224 43.54C62.2841 43.54 63.3457 43.54 64.4074 43.894C65.1152 44.248 65.646 44.779 65.8229 45.6639V46.7259H65.9999Z" fill="#FEFEFE"/>
<path fill-rule="evenodd" clip-rule="evenodd" d="M36.8046 0C36.8046 0 37.1585 0 37.1585 0.176991C37.5124 0.176991 37.6894 0.530973 37.8663 0.884956C38.3971 2.12389 38.928 3.18584 39.1049 4.60177C39.1049 4.95575 39.1049 5.30973 39.1049 5.66372C39.1049 6.0177 38.5741 6.54867 38.0432 6.19469C37.6894 6.19469 37.3355 6.0177 37.1585 5.84071C36.2738 5.48673 35.9199 4.77876 35.9199 4.0708C35.9199 3.36283 35.9199 2.65487 35.9199 1.9469C35.9199 1.41593 35.9199 0.884956 36.0969 0.353982C36.0969 0.353982 36.0969 0.176991 36.0969 0H36.4508H36.8046Z" fill="#FEFEFE"/>
<path fill-rule="evenodd" clip-rule="evenodd" d="M54.4983 30.0883C54.4983 32.5662 53.2597 34.3361 50.9594 35.2211C49.7208 35.752 48.3053 35.929 47.0667 36.106C45.1203 36.283 43.3509 36.46 41.4045 36.637C40.1659 36.637 38.7503 36.637 37.5117 36.637C36.4501 36.637 35.3884 36.637 34.3267 36.991C34.3267 36.991 33.9728 36.991 33.7959 36.991C33.7959 36.991 33.7959 36.637 33.9728 36.637C34.3267 36.106 34.8576 35.752 35.5653 35.5751C37.3348 34.6901 39.2812 33.9821 41.0506 33.2742C42.997 32.5662 45.1203 31.8582 47.0667 31.1503C47.7745 30.9733 48.3053 30.6193 49.0131 30.0883C50.0747 29.3804 50.4286 28.3184 49.7208 27.0795C49.0131 25.3096 47.9514 23.7166 46.7128 22.3007C46.7128 22.1237 46.3589 21.9467 46.3589 21.5928C46.3589 21.4158 46.3589 21.2388 46.5358 21.2388C46.8897 21.2388 47.0667 21.2388 47.4206 21.4158C48.8361 21.9467 50.0747 22.8317 51.3133 23.8936C52.375 24.9556 53.2597 26.1945 53.9675 27.6105C54.3214 28.3184 54.4983 29.2034 54.4983 29.9113" fill="#FEFEFE"/>
<path fill-rule="evenodd" clip-rule="evenodd" d="M28.3108 26.9026C28.3108 27.9646 28.6647 28.8495 29.0186 29.7345C29.5494 30.9734 30.965 30.9734 31.6727 30.2655C32.3805 29.7345 32.9114 29.2035 33.4422 28.6725C35.5655 26.7256 38.0427 25.3097 40.5199 24.2478C41.5816 23.7168 42.6433 23.3628 43.8819 23.0088C43.8819 23.0088 43.8819 23.0088 44.0588 23.0088C44.2357 23.0088 44.4127 23.0088 44.4127 23.3628C44.4127 23.7168 44.2357 24.0708 43.8819 24.4247C42.9971 25.4867 42.1124 26.5486 41.2277 27.6106C39.6352 29.3805 38.0427 30.9734 36.2733 32.5663C35.2116 33.4513 33.973 34.1593 32.5575 34.6902C30.788 35.2212 29.0186 34.8672 27.4261 33.8053C27.0722 33.4513 26.8953 32.9203 26.8953 32.5663C27.0722 31.5044 27.2492 30.4425 27.4261 29.3805C27.4261 28.6725 27.4261 27.9646 27.4261 27.2566C27.4261 26.3717 26.7183 26.0177 25.8336 26.0177C25.4797 26.0177 25.3028 26.0177 25.1258 26.0177C24.7719 25.8407 24.595 25.4867 24.9489 25.1327C25.6567 24.2478 26.5414 23.3628 27.78 23.1858C28.4878 23.1858 28.8416 23.5398 28.6647 24.2478C28.6647 24.6017 28.4878 25.1327 28.3108 25.4867V27.0796M15.9248 13.9823C15.9248 13.2743 16.2786 12.7433 16.9864 12.2124C16.9864 12.2124 17.1634 12.2124 17.3403 12.0354C17.8711 11.6814 18.402 11.5044 19.1097 11.3274C19.4636 11.3274 19.4636 11.3274 19.6406 11.6814C19.9945 12.7433 19.9945 13.6283 20.1714 14.6902C20.3483 15.9292 20.5253 17.1681 20.7022 18.4071C20.8792 19.823 21.2331 21.2389 21.41 22.6548C21.7639 24.7787 22.1178 26.7256 22.4717 28.8495C23.0025 31.3274 23.5333 33.6283 24.2411 36.1062C24.2411 36.4601 24.2411 36.4601 23.8872 36.4601C23.7103 36.4601 23.5333 36.4601 23.3564 36.2832C23.3564 36.2832 23.3564 36.2832 23.3564 36.1062C22.8256 34.8672 21.9408 33.9823 21.2331 32.9203C20.7022 32.2124 20.5253 31.3274 20.1714 30.6194C19.2867 27.9646 18.402 25.3097 17.6942 22.6548C17.1634 20.8849 16.6325 19.292 16.2786 17.5221C16.1017 16.6371 15.9248 15.5752 15.9248 14.3363M41.0508 20.7079C39.6352 20.7079 38.0427 20.354 36.6272 19.646C36.0963 19.292 35.5655 18.761 35.0347 18.2301C34.6808 17.8761 34.8577 17.8761 35.0347 17.6991C35.7424 17.3451 36.4502 17.1681 37.158 16.8141C38.0427 16.4601 38.5735 15.7522 38.7505 14.8672C39.1044 13.4513 39.1044 12.0354 38.2197 10.7964C37.6888 10.0885 36.9811 9.55749 36.0963 9.20351C36.0963 9.20351 35.7425 9.20351 35.7425 9.02652C35.7425 8.84953 35.7424 8.67254 36.0963 8.67254C36.4502 8.67254 36.6272 8.67254 36.9811 8.67254C38.0427 8.67254 38.9274 8.67254 39.8122 9.3805C40.8738 10.0885 41.4046 10.9734 41.5816 12.2124C41.9355 13.6283 41.9355 15.0442 41.5816 16.2832C41.4046 16.8141 41.0508 17.3451 40.6969 17.6991C39.8122 18.761 40.5199 19.292 41.2277 19.646C41.7585 19.823 42.2894 20 42.8202 20.177C42.9971 20.177 43.351 20.177 43.351 20.5309C43.351 20.7079 42.9971 20.7079 42.8202 20.8849C42.2894 20.8849 41.5816 20.8849 40.8738 20.8849M11.5012 24.0708C11.5012 21.5929 12.2089 19.292 12.9167 16.9911C12.9167 16.6371 13.2706 16.2832 13.4475 15.9292C13.4475 15.9292 13.4475 15.9292 13.6245 15.9292C13.6245 15.9292 13.6245 15.9292 13.6245 16.1062C13.6245 17.5221 13.4475 19.115 13.6245 20.5309C13.8014 22.3009 14.1553 24.0708 15.3939 25.6637C15.7478 26.1947 16.4556 26.7256 16.9864 27.0796C17.1634 27.0796 17.1634 27.2566 16.9864 27.4336C16.6325 27.6106 16.2786 27.7876 15.9248 27.9646C15.3939 27.9646 14.8631 28.3186 14.1553 28.3186C12.9167 28.3186 12.032 27.7876 11.6781 26.5486C11.5012 25.8407 11.3242 24.7787 11.3242 24.0708M17.5172 48.6725C17.5172 48.6725 17.5172 49.0265 17.5172 49.2035C17.5172 50.0885 17.8711 50.6194 18.7559 50.9734C19.8175 51.3274 21.0561 51.3274 22.1178 50.6194C23.7103 49.5575 24.4181 47.9646 24.4181 46.0177C24.4181 45.3097 24.0642 44.7787 23.3564 44.2478C22.1178 43.5398 20.5253 43.7168 19.2867 44.7787C18.0481 45.8407 17.6942 47.0796 17.6942 48.6725M21.587 43.3628C22.6486 43.3628 23.5333 43.3628 24.4181 44.0708C25.3028 44.6017 25.8336 45.4867 25.8336 46.5486C25.8336 48.4955 24.9489 49.9115 23.3564 50.9734C22.2947 51.6814 20.8792 51.8584 19.6406 51.8584C18.9328 51.8584 18.225 51.8584 17.5172 51.3274C16.4556 50.7964 15.9248 49.9115 15.9248 48.6725C15.9248 46.7256 17.1634 44.7787 19.1097 43.8938C19.9945 43.5398 20.7022 43.3628 21.587 43.3628ZM40.343 47.2566C39.2813 47.4336 38.0427 47.6106 36.9811 47.9646C36.6272 47.9646 36.2733 48.3186 35.9194 48.6725C35.5655 49.0265 35.3886 49.5575 35.5655 50.0885C35.7425 50.6194 36.2733 50.7964 36.8041 50.9734C38.0427 50.9734 38.9274 50.6194 39.6352 49.7345C39.6352 49.7345 39.6352 49.7345 39.6352 49.5575C39.6352 48.8495 39.9891 48.1416 40.166 47.4336M35.7425 45.1327C35.7425 45.1327 35.7425 45.1327 35.7425 44.9557C35.7425 44.4248 36.2733 44.0708 36.8041 43.8938C38.0427 43.3628 39.2813 43.1858 40.5199 43.5398C40.8738 43.5398 41.0508 43.7168 41.4046 43.8938C42.1124 44.4248 42.2894 44.9557 42.1124 45.8407C41.9355 46.9026 41.4046 47.9646 41.2277 49.2035C41.2277 49.5575 41.2277 49.7345 41.2277 50.0885C41.2277 50.6194 41.5816 51.1504 42.2894 50.7964C42.2894 50.7964 42.2894 50.7964 42.4663 50.7964C42.4663 51.1504 42.4663 51.1504 42.2894 51.3274C41.7585 51.5044 41.2277 51.6814 40.6969 51.5044C39.9891 51.5044 39.8122 51.1504 39.6352 50.4425C39.2813 50.6194 39.1044 50.7964 38.7505 50.9734C37.6888 51.6814 36.4502 51.8584 35.0347 51.5044C34.3269 51.3274 33.973 50.7964 33.7961 50.2655C33.7961 49.5575 33.7961 48.8495 34.5038 48.4955C35.2116 47.9646 36.0963 47.6106 36.9811 47.4336C37.8658 47.4336 38.5735 47.2566 39.4583 47.0796C40.166 47.0796 40.5199 46.3717 40.5199 45.6637C40.5199 44.9557 39.9891 44.6017 39.2813 44.4248C38.0427 44.2478 36.9811 44.4248 36.0963 45.3097C36.0963 45.3097 35.9194 45.4867 35.7425 45.3097M36.6272 57.3451C37.5119 57.3451 38.3966 57.3451 39.2813 57.3451C39.4583 57.3451 39.8122 57.3451 39.9891 57.6991C40.343 57.8761 40.343 58.2301 40.166 58.584C40.166 58.761 39.9891 58.938 39.8122 59.115C39.1044 59.646 38.5735 60 37.6888 60C36.0963 60 34.5038 59.823 33.0883 59.469C31.8497 59.469 30.788 59.115 29.7264 58.938C29.5494 58.938 29.1955 58.938 29.0186 58.761C29.0186 58.761 28.8416 58.761 28.8416 58.584C28.8416 58.584 28.8416 58.584 29.0186 58.584C29.5494 58.4071 30.0802 58.2301 30.788 58.2301C32.7344 57.8761 34.5038 57.6991 36.4502 57.6991C36.4502 57.6991 36.8041 57.6991 36.9811 57.6991M14.1553 5.4867C14.1553 4.24776 14.3323 3.00882 14.8631 1.94687C14.8631 1.94687 14.8631 1.94687 14.8631 1.76988C15.04 1.4159 15.217 1.4159 15.5709 1.76988C15.7478 1.94687 15.9248 2.30085 15.9248 2.65484C16.4556 4.07077 16.9864 5.4867 17.3403 6.90263C17.3403 7.25661 17.6942 7.78758 17.5172 8.14156C17.5172 8.84953 16.9864 9.3805 16.4556 9.55749C16.2786 9.55749 15.9248 9.55749 15.5709 9.55749C14.8631 8.84953 14.3323 7.96457 14.1553 7.07962C14.1553 6.54864 14.1553 6.19466 14.1553 5.66369M33.2652 43.7168C33.2652 43.7168 33.2652 44.0708 33.2652 44.2478C33.2652 44.4248 33.2652 44.2478 33.0883 44.2478C32.5575 44.2478 32.0266 44.2478 31.3189 44.2478C31.1419 44.2478 31.1419 44.2478 30.965 44.4248C30.6111 46.0177 30.2572 47.4336 29.9033 49.0265C29.9033 49.0265 29.9033 49.3805 29.9033 49.5575C29.9033 50.6194 30.6111 51.1504 31.4958 51.1504C31.8497 51.1504 32.2036 51.1504 32.5575 50.7964C32.5575 51.1504 32.5575 51.3274 32.2036 51.5044C31.3189 51.8584 30.4341 51.8584 29.3725 51.5044C28.3108 51.1504 27.9569 50.4425 28.3108 49.3805C28.6647 47.7876 29.1955 46.0177 29.5494 44.4248C29.5494 44.2478 29.5494 44.2478 29.5494 44.2478C29.1955 44.2478 28.8416 44.2478 28.4878 44.2478C28.4878 44.0708 28.4878 43.8938 28.4878 43.7168C28.8416 43.7168 29.0186 43.7168 29.3725 43.7168C29.5494 43.7168 29.5494 43.7168 29.7264 43.5398C29.7264 43.0088 29.9033 42.6548 30.0803 42.1239C30.0803 42.1239 30.0803 41.9469 30.2572 41.9469C30.788 41.9469 31.3189 41.5929 31.8497 41.4159C31.6727 42.1239 31.4958 42.6548 31.3189 43.3628V43.5398C32.0266 43.5398 32.5575 43.5398 33.2652 43.5398M53.4368 43.3628C53.2599 43.8938 53.0829 44.6017 52.906 45.1327C52.906 44.9557 53.2599 44.7787 53.4368 44.6017C53.9677 44.0708 54.4985 43.5398 55.2063 43.3628C55.5601 43.3628 55.7371 43.3628 56.091 43.3628C56.091 43.7168 56.091 44.0708 56.091 44.4248C56.091 44.7787 56.091 44.6017 55.914 44.4248C55.2063 44.2478 54.4985 44.4247 53.9677 44.6017C53.2599 44.9557 52.906 45.6637 52.729 46.3717C52.3752 47.7876 52.0213 49.0265 51.6674 50.4425C51.6674 50.9734 51.6674 50.9734 50.9596 50.9734C50.6057 50.9734 50.4288 50.9734 50.0749 50.9734C50.6057 49.5575 50.9596 47.9646 51.3135 46.5486C51.6674 45.4867 51.8443 44.4248 52.0213 43.3628C52.5521 43.3628 52.906 43.3628 53.4368 43.3628ZM29.7264 15.2212C29.0186 15.2212 28.1339 14.6902 27.4261 14.3363C26.7183 13.8053 26.3644 13.0973 26.1875 12.3894C26.1875 12.0354 26.1875 12.0354 26.5414 12.0354C28.1339 12.0354 29.5494 12.3894 31.1419 12.5663C31.6727 12.5663 31.8497 12.9203 31.6727 13.6283C31.6727 13.9823 31.3189 14.5132 31.1419 14.8672C30.788 15.3982 30.6111 15.3982 29.7264 15.3982M48.3055 43.5398C47.9516 44.6017 47.5977 45.8407 47.2438 47.0796C46.8899 48.4955 46.536 49.9115 46.1821 51.5044C45.6513 51.5044 45.1205 51.5044 44.5896 51.5044C44.9435 50.7964 45.1205 50.0885 45.2974 49.3805C45.8282 47.6106 46.3591 45.6637 46.713 43.7168C46.713 43.5398 46.713 43.3628 47.0668 43.3628C47.5977 43.3628 47.9516 43.3628 48.4824 43.3628M33.2652 8.84953C33.2652 9.3805 32.9114 9.73448 32.2036 9.55749C31.3189 9.55749 30.6111 8.84953 29.9033 8.31855C29.1955 7.61059 28.8416 6.90263 28.6647 6.01767C28.6647 6.01767 28.6647 6.01767 28.6647 5.84068C28.6647 5.4867 28.6647 5.4867 29.0186 5.4867C29.7264 5.4867 30.4341 5.84068 30.965 6.19466C31.3189 6.19466 31.6727 6.54864 31.8497 6.54864C32.2036 6.72563 32.5575 7.07962 32.7344 7.61059C32.7344 7.96457 32.9114 8.31855 32.9114 8.84953M42.8202 9.55749C42.6433 9.55749 42.4663 9.55749 42.4663 9.55749C42.1124 9.20351 41.7585 8.84953 41.7585 8.31855C41.7585 7.96457 42.1124 7.25661 42.6433 7.07962C43.351 6.72563 44.0588 6.72563 44.7666 6.90263C45.2974 6.90263 45.2974 7.07962 45.1205 7.61059C44.7666 8.14156 44.4127 8.84953 43.8819 9.20351C43.528 9.55749 43.1741 9.73448 42.9971 9.73448M46.3591 12.3894C46.713 12.3894 46.713 12.3894 46.713 12.9203C46.713 13.0973 46.713 13.2743 46.536 13.4513C46.0052 13.8053 45.6513 14.3363 44.9435 14.5132C44.4127 14.6902 44.0588 14.5132 43.7049 14.1593C43.528 13.8053 43.351 13.6283 43.351 13.2743C43.351 12.9203 43.351 12.7433 43.7049 12.7433C44.0588 12.7433 44.4127 12.7433 44.7666 12.7433C45.1205 12.7433 45.2974 12.7433 45.6513 12.7433H46.536M48.1285 41.5929C47.5977 41.5929 47.2438 41.2389 47.2438 40.8849C47.2438 40.354 47.7746 40 48.3055 40C48.3055 40 48.4824 40 48.6593 40C49.0132 40 49.3671 40.5309 49.3671 40.8849C49.3671 41.2389 48.8363 41.5929 48.3055 41.5929" fill="#FEFEFE"/>
<path fill-rule="evenodd" clip-rule="evenodd" d="M28.6646 26.9025C28.3107 26.9025 28.1338 26.9025 28.1338 26.9025V25.3096C28.1338 25.3096 28.1338 25.3096 28.6646 25.3096C28.4877 26.0175 28.6646 26.5485 28.6646 27.2565" fill="#FEFEFE"/>
</svg>
