<?xml version="1.0" encoding="UTF-8"?>
<svg id="Calque_1" data-name="Calque 1" xmlns="http://www.w3.org/2000/svg" viewBox="0 0 102.54 101.86">
  <defs>
    <style>
      .cls-1 {
        fill: #fbf4f2;
      }

      .cls-2 {
        fill: none;
        stroke: #fbf4f2;
        stroke-miterlimit: 10;
        stroke-width: .1px;
      }
    </style>
  </defs>
  <g>
    <polygon class="cls-2" points="31.88 42.03 72.38 42.03 71.57 42.69 31.88 42.69 31.88 42.03"/>
    <polygon class="cls-2" points="31.88 50.75 71.81 50.75 71.58 51.37 31.88 51.37 31.88 50.75"/>
    <line class="cls-2" x1="32.12" y1="42.69" x2="32.12" y2="50.75"/>
    <line class="cls-2" x1="32.12" y1="51.37" x2="32.12" y2="61.27"/>
    <line class="cls-2" x1="71.58" y1="42.69" x2="71.58" y2="50.75"/>
    <rect class="cls-2" x="46.89" y="61.46" width="25.25" height="2.02"/>
    <line class="cls-2" x1="71.58" y1="51.37" x2="71.58" y2="61.08"/>
    <rect class="cls-2" x="46.89" y="61.08" width="25.25" height=".38"/>
    <rect class="cls-2" x="41.54" y="61.27" width="5.35" height=".38"/>
    <rect class="cls-2" x="31.41" y="61.27" width="10.14" height=".38"/>
    <rect class="cls-2" x="31.51" y="61.65" width="10.04" height=".38"/>
    <rect class="cls-2" x="43.81" y="63.35" width="2.59" height="8.23"/>
    <rect class="cls-2" x="62.21" y="63.47" width="2.93" height="8.29"/>
    <polyline class="cls-2" points="43.81 63.35 43.65 63.35 43.65 71.77 43.81 71.58"/>
    <polyline class="cls-2" points="43.65 71.77 46.39 71.77 46.39 71.58"/>
    <rect class="cls-2" x="44.2" y="65.16" width="1.98" height="3.34"/>
    <rect class="cls-2" x="44.04" y="65.01" width="2.29" height="3.65"/>
    <rect class="cls-2" x="44.2" y="69.46" width="1.98" height="1.49"/>
    <rect class="cls-2" x="44.04" y="69.29" width="2.29" height="1.83"/>
    <line class="cls-2" x1="43.81" y1="68.85" x2="46.39" y2="68.85"/>
    <line class="cls-2" x1="43.81" y1="69.04" x2="46.39" y2="69.04"/>
    <line class="cls-2" x1="43.81" y1="64.44" x2="46.39" y2="64.44"/>
    <line class="cls-2" x1="43.81" y1="64.63" x2="46.39" y2="64.63"/>
    <polygon class="cls-2" points="31.6 64.11 31.6 62.03 41.54 62.03 41.54 64.11 39.78 64.11 39.78 63.35 33.38 63.35 33.38 64.11 31.6 64.11"/>
    <polyline class="cls-2" points="41.23 62.03 41.23 63.87 40.05 63.87 40.05 63.07 33.1 63.07 33.1 63.81 31.89 63.81 31.89 62.03"/>
    <rect class="cls-2" x="31.51" y="69.46" width="1.85" height="2.31"/>
    <rect class="cls-2" x="31.68" y="69.64" width="1.5" height="1.94"/>
    <rect class="cls-2" x="39.75" y="69.46" width="1.85" height="2.31"/>
    <rect class="cls-2" x="39.92" y="69.64" width="1.5" height="1.94"/>
    <line class="cls-2" x1="31.75" y1="64.11" x2="31.75" y2="69.46"/>
    <line class="cls-2" x1="33.3" y1="64.11" x2="33.3" y2="69.46"/>
    <line class="cls-2" x1="32.85" y1="64.11" x2="32.85" y2="69.46"/>
    <line class="cls-2" x1="32.73" y1="64.11" x2="32.73" y2="69.46"/>
    <line class="cls-2" x1="32.3" y1="64.11" x2="32.3" y2="69.46"/>
    <line class="cls-2" x1="32.18" y1="64.11" x2="32.18" y2="69.46"/>
    <line class="cls-2" x1="39.92" y1="64.11" x2="39.92" y2="69.46"/>
    <line class="cls-2" x1="41.47" y1="64.11" x2="41.47" y2="69.46"/>
    <line class="cls-2" x1="41.02" y1="64.11" x2="41.02" y2="69.46"/>
    <line class="cls-2" x1="40.9" y1="64.11" x2="40.9" y2="69.46"/>
    <line class="cls-2" x1="40.47" y1="64.11" x2="40.47" y2="69.46"/>
    <line class="cls-2" x1="40.35" y1="64.11" x2="40.35" y2="69.46"/>
    <line class="cls-2" x1="33.35" y1="71.77" x2="39.75" y2="71.77"/>
    <line class="cls-2" x1="33.35" y1="71.58" x2="39.75" y2="71.58"/>
    <line class="cls-2" x1="41.6" y1="71.77" x2="43.65" y2="71.77"/>
    <polyline class="cls-2" points="46.39 71.77 72.14 71.77 72.14 63.47"/>
    <rect class="cls-2" x="62.59" y="63.86" width="2.17" height="7.51"/>
    <rect class="cls-2" x="46.39" y="69.78" width="15.81" height=".42"/>
    <rect class="cls-2" x="65.14" y="69.78" width="7" height=".42"/>
    <rect class="cls-2" x="51.89" y="63.66" width="4.49" height="5.94"/>
    <g>
      <line class="cls-2" x1="46.39" y1="64.44" x2="51.89" y2="64.44"/>
      <line class="cls-2" x1="46.39" y1="65.56" x2="51.89" y2="65.56"/>
      <line class="cls-2" x1="46.39" y1="66.63" x2="51.89" y2="66.63"/>
      <line class="cls-2" x1="46.39" y1="67.62" x2="51.89" y2="67.62"/>
      <line class="cls-2" x1="46.39" y1="68.66" x2="51.89" y2="68.66"/>
    </g>
    <g>
      <line class="cls-2" x1="41.47" y1="64.44" x2="43.65" y2="64.44"/>
      <line class="cls-2" x1="41.54" y1="63.47" x2="43.65" y2="63.47"/>
      <line class="cls-2" x1="41.47" y1="65.56" x2="43.65" y2="65.56"/>
      <line class="cls-2" x1="41.47" y1="66.63" x2="43.65" y2="66.63"/>
      <line class="cls-2" x1="41.47" y1="67.62" x2="43.65" y2="67.62"/>
      <line class="cls-2" x1="41.47" y1="68.66" x2="43.65" y2="68.66"/>
    </g>
    <g>
      <line class="cls-2" x1="56.38" y1="64.44" x2="62.21" y2="64.44"/>
      <line class="cls-2" x1="56.38" y1="65.56" x2="62.21" y2="65.56"/>
      <line class="cls-2" x1="56.38" y1="66.63" x2="62.21" y2="66.63"/>
      <line class="cls-2" x1="56.38" y1="67.62" x2="62.21" y2="67.62"/>
      <line class="cls-2" x1="56.38" y1="68.66" x2="62.21" y2="68.66"/>
    </g>
    <g>
      <line class="cls-2" x1="65.14" y1="64.44" x2="72.14" y2="64.44"/>
      <line class="cls-2" x1="65.14" y1="65.56" x2="72.14" y2="65.56"/>
      <line class="cls-2" x1="65.14" y1="66.63" x2="72.14" y2="66.63"/>
      <line class="cls-2" x1="65.14" y1="67.62" x2="72.14" y2="67.62"/>
      <line class="cls-2" x1="65.14" y1="68.66" x2="72.14" y2="68.66"/>
    </g>
    <polyline class="cls-2" points="44.73 63.35 44.54 62.03 45.56 62.03 45.37 63.35"/>
    <polyline class="cls-2" points="45.96 63.35 46.46 62.23 46.89 62.23"/>
    <polyline class="cls-2" points="44.14 63.35 43.65 62.23 43.01 62.23 43.01 63.47"/>
    <line class="cls-2" x1="46.43" y1="63.47" x2="46.89" y2="63.47"/>
    <line class="cls-2" x1="41.54" y1="62.4" x2="43.01" y2="62.4"/>
    <line class="cls-2" x1="43.72" y1="62.4" x2="44.59" y2="62.4"/>
    <line class="cls-2" x1="45.53" y1="62.4" x2="46.4" y2="62.4"/>
    <g>
      <rect class="cls-2" x="52.47" y="52.65" width="3.84" height="8.33"/>
      <rect class="cls-2" x="52.65" y="52.85" width="3.48" height="8.12"/>
      <rect class="cls-2" x="52.81" y="53.1" width="1.6" height="7.64"/>
      <rect class="cls-2" x="54.41" y="53.1" width="1.6" height="7.64"/>
      <g>
        <g>
          <rect class="cls-2" x="53.04" y="53.27" width="1.14" height="1.47"/>
          <rect class="cls-2" x="53.04" y="54.92" width="1.14" height="1.47"/>
          <rect class="cls-2" x="53.04" y="56.58" width="1.14" height="1.47"/>
          <rect class="cls-2" x="53.04" y="59.04" width="1.14" height=".78"/>
          <rect class="cls-2" x="53.04" y="58.24" width="1.14" height=".69"/>
        </g>
        <g>
          <rect class="cls-2" x="54.63" y="53.27" width="1.14" height="1.47"/>
          <rect class="cls-2" x="54.63" y="54.92" width="1.14" height="1.47"/>
          <rect class="cls-2" x="54.63" y="56.58" width="1.14" height="1.47"/>
          <rect class="cls-2" x="54.63" y="58.24" width="1.14" height=".69"/>
          <rect class="cls-2" x="54.63" y="59.04" width="1.14" height=".78"/>
        </g>
      </g>
      <rect class="cls-2" x="52.81" y="58.93" width="3.19" height=".11"/>
      <rect class="cls-2" x="53.1" y="59.32" width="2.61" height="1.14"/>
      <line class="cls-2" x1="52.81" y1="59.04" x2="53.09" y2="59.32"/>
      <line class="cls-2" x1="52.81" y1="60.74" x2="53.1" y2="60.45"/>
      <line class="cls-2" x1="55.71" y1="59.32" x2="56" y2="59.03"/>
      <line class="cls-2" x1="55.71" y1="60.46" x2="56" y2="60.74"/>
      <circle class="cls-2" cx="54.41" cy="59.86" r=".31"/>
      <path class="cls-2" d="M53.43,60.25s-.06-.03-.06-.07.03-.09.1-.09c.06,0,.11.06.11.13,0,.11-.1.18-.23.18s-.24-.11-.24-.24.11-.24.24-.24c.12,0,.17.09.22.09.06,0,.27,0,.31,0,.06,0,.11-.02.16-.02s.1.04.1.1-.04.1-.09.1c-.04,0-.08-.02-.08-.07,0-.04.03-.05.05-.05"/>
      <path class="cls-2" d="M53.43,59.52s-.06.03-.06.07.03.09.1.09c.06,0,.11-.06.11-.13,0-.11-.1-.18-.23-.18s-.24.11-.24.24.11.24.24.24c.12,0,.17-.09.22-.09.06,0,.27,0,.31,0,.06,0,.11.02.16.02s.1-.04.1-.1-.04-.1-.09-.1c-.04,0-.08.02-.08.07,0,.04.03.05.05.05"/>
      <path class="cls-2" d="M55.37,60.25s.06-.03.06-.07-.03-.09-.1-.09c-.06,0-.11.06-.11.13,0,.11.1.18.23.18s.24-.11.24-.24-.11-.24-.24-.24c-.12,0-.17.09-.22.09-.06,0-.27,0-.31,0-.06,0-.11-.02-.16-.02s-.1.04-.1.1.04.1.09.1c.04,0,.08-.02.08-.07,0-.04-.03-.05-.05-.05"/>
      <path class="cls-2" d="M55.37,59.52s.06.03.06.07-.03.09-.1.09c-.06,0-.11-.06-.11-.13,0-.11.1-.18.23-.18s.24.11.24.24-.11.24-.24.24c-.12,0-.17-.09-.22-.09-.06,0-.27,0-.31,0-.06,0-.11.02-.16.02s-.1-.04-.1-.1.04-.1.09-.1c.04,0,.08.02.08.07,0,.04-.03.05-.05.05"/>
      <rect class="cls-2" x="56.31" y="52.7" width="1.79" height="8.17"/>
      <rect class="cls-2" x="56.5" y="52.89" width="1.42" height="3.74"/>
      <rect class="cls-2" x="56.5" y="56.91" width="1.42" height="3.74"/>
      <rect class="cls-2" x="50.69" y="52.7" width="1.79" height="8.17"/>
      <rect class="cls-2" x="50.87" y="52.89" width="1.42" height="3.74"/>
      <rect class="cls-2" x="50.87" y="56.91" width="1.42" height="3.74"/>
      <g>
        <line class="cls-2" x1="50.87" y1="53.03" x2="52.29" y2="53.03"/>
        <line class="cls-2" x1="50.87" y1="53.22" x2="52.29" y2="53.22"/>
        <line class="cls-2" x1="50.87" y1="53.4" x2="52.29" y2="53.4"/>
        <line class="cls-2" x1="50.87" y1="53.58" x2="52.29" y2="53.58"/>
        <line class="cls-2" x1="50.87" y1="53.76" x2="52.29" y2="53.76"/>
        <line class="cls-2" x1="50.87" y1="53.94" x2="52.29" y2="53.94"/>
        <line class="cls-2" x1="50.87" y1="54.12" x2="52.29" y2="54.12"/>
        <line class="cls-2" x1="50.87" y1="54.3" x2="52.29" y2="54.3"/>
        <line class="cls-2" x1="50.87" y1="54.49" x2="52.29" y2="54.49"/>
        <line class="cls-2" x1="50.87" y1="54.67" x2="52.29" y2="54.67"/>
        <line class="cls-2" x1="50.87" y1="54.85" x2="52.29" y2="54.85"/>
        <line class="cls-2" x1="50.87" y1="55.03" x2="52.29" y2="55.03"/>
        <line class="cls-2" x1="50.87" y1="55.21" x2="52.29" y2="55.21"/>
        <line class="cls-2" x1="50.87" y1="55.39" x2="52.29" y2="55.39"/>
        <line class="cls-2" x1="50.87" y1="55.57" x2="52.29" y2="55.57"/>
        <line class="cls-2" x1="50.87" y1="55.76" x2="52.29" y2="55.76"/>
        <line class="cls-2" x1="50.87" y1="55.94" x2="52.29" y2="55.94"/>
        <line class="cls-2" x1="50.87" y1="56.12" x2="52.29" y2="56.12"/>
        <line class="cls-2" x1="50.87" y1="56.3" x2="52.29" y2="56.3"/>
        <line class="cls-2" x1="50.87" y1="56.48" x2="52.29" y2="56.48"/>
      </g>
      <g>
        <line class="cls-2" x1="56.5" y1="53.03" x2="57.91" y2="53.03"/>
        <line class="cls-2" x1="56.5" y1="53.22" x2="57.91" y2="53.22"/>
        <line class="cls-2" x1="56.5" y1="53.4" x2="57.91" y2="53.4"/>
        <line class="cls-2" x1="56.5" y1="53.58" x2="57.91" y2="53.58"/>
        <line class="cls-2" x1="56.5" y1="53.76" x2="57.91" y2="53.76"/>
        <line class="cls-2" x1="56.5" y1="53.94" x2="57.91" y2="53.94"/>
        <line class="cls-2" x1="56.5" y1="54.12" x2="57.91" y2="54.12"/>
        <line class="cls-2" x1="56.5" y1="54.3" x2="57.91" y2="54.3"/>
        <line class="cls-2" x1="56.5" y1="54.49" x2="57.91" y2="54.49"/>
        <line class="cls-2" x1="56.5" y1="54.67" x2="57.91" y2="54.67"/>
        <line class="cls-2" x1="56.5" y1="54.85" x2="57.91" y2="54.85"/>
        <line class="cls-2" x1="56.5" y1="55.03" x2="57.91" y2="55.03"/>
        <line class="cls-2" x1="56.5" y1="55.21" x2="57.91" y2="55.21"/>
        <line class="cls-2" x1="56.5" y1="55.39" x2="57.91" y2="55.39"/>
        <line class="cls-2" x1="56.5" y1="55.57" x2="57.91" y2="55.57"/>
        <line class="cls-2" x1="56.5" y1="55.76" x2="57.91" y2="55.76"/>
        <line class="cls-2" x1="56.5" y1="55.94" x2="57.91" y2="55.94"/>
        <line class="cls-2" x1="56.5" y1="56.12" x2="57.91" y2="56.12"/>
        <line class="cls-2" x1="56.5" y1="56.3" x2="57.91" y2="56.3"/>
        <line class="cls-2" x1="56.5" y1="56.48" x2="57.91" y2="56.48"/>
      </g>
      <g>
        <line class="cls-2" x1="50.87" y1="57.06" x2="52.29" y2="57.06"/>
        <line class="cls-2" x1="50.87" y1="57.24" x2="52.29" y2="57.24"/>
        <line class="cls-2" x1="50.87" y1="57.42" x2="52.29" y2="57.42"/>
        <line class="cls-2" x1="50.87" y1="57.61" x2="52.29" y2="57.61"/>
        <line class="cls-2" x1="50.87" y1="57.79" x2="52.29" y2="57.79"/>
        <line class="cls-2" x1="50.87" y1="57.97" x2="52.29" y2="57.97"/>
        <line class="cls-2" x1="50.87" y1="58.15" x2="52.29" y2="58.15"/>
        <line class="cls-2" x1="50.87" y1="58.33" x2="52.29" y2="58.33"/>
        <line class="cls-2" x1="50.87" y1="58.51" x2="52.29" y2="58.51"/>
        <line class="cls-2" x1="50.87" y1="58.69" x2="52.29" y2="58.69"/>
        <line class="cls-2" x1="50.87" y1="58.88" x2="52.29" y2="58.88"/>
        <line class="cls-2" x1="50.87" y1="59.06" x2="52.29" y2="59.06"/>
        <line class="cls-2" x1="50.87" y1="59.24" x2="52.29" y2="59.24"/>
        <line class="cls-2" x1="50.87" y1="59.42" x2="52.29" y2="59.42"/>
        <line class="cls-2" x1="50.87" y1="59.6" x2="52.29" y2="59.6"/>
        <line class="cls-2" x1="50.87" y1="59.78" x2="52.29" y2="59.78"/>
        <line class="cls-2" x1="50.87" y1="59.96" x2="52.29" y2="59.96"/>
        <line class="cls-2" x1="50.87" y1="60.15" x2="52.29" y2="60.15"/>
        <line class="cls-2" x1="50.87" y1="60.33" x2="52.29" y2="60.33"/>
        <line class="cls-2" x1="50.87" y1="60.51" x2="52.29" y2="60.51"/>
      </g>
      <g>
        <line class="cls-2" x1="56.5" y1="57.06" x2="57.91" y2="57.06"/>
        <line class="cls-2" x1="56.5" y1="57.24" x2="57.91" y2="57.24"/>
        <line class="cls-2" x1="56.5" y1="57.42" x2="57.91" y2="57.42"/>
        <line class="cls-2" x1="56.5" y1="57.61" x2="57.91" y2="57.61"/>
        <line class="cls-2" x1="56.5" y1="57.79" x2="57.91" y2="57.79"/>
        <line class="cls-2" x1="56.5" y1="57.97" x2="57.91" y2="57.97"/>
        <line class="cls-2" x1="56.5" y1="58.15" x2="57.91" y2="58.15"/>
        <line class="cls-2" x1="56.5" y1="58.33" x2="57.91" y2="58.33"/>
        <line class="cls-2" x1="56.5" y1="58.51" x2="57.91" y2="58.51"/>
        <line class="cls-2" x1="56.5" y1="58.69" x2="57.91" y2="58.69"/>
        <line class="cls-2" x1="56.5" y1="58.88" x2="57.91" y2="58.88"/>
        <line class="cls-2" x1="56.5" y1="59.06" x2="57.91" y2="59.06"/>
        <line class="cls-2" x1="56.5" y1="59.24" x2="57.91" y2="59.24"/>
        <line class="cls-2" x1="56.5" y1="59.42" x2="57.91" y2="59.42"/>
        <line class="cls-2" x1="56.5" y1="59.6" x2="57.91" y2="59.6"/>
        <line class="cls-2" x1="56.5" y1="59.78" x2="57.91" y2="59.78"/>
        <line class="cls-2" x1="56.5" y1="59.96" x2="57.91" y2="59.96"/>
        <line class="cls-2" x1="56.5" y1="60.15" x2="57.91" y2="60.15"/>
        <line class="cls-2" x1="56.5" y1="60.33" x2="57.91" y2="60.33"/>
        <line class="cls-2" x1="56.5" y1="60.51" x2="57.91" y2="60.51"/>
      </g>
    </g>
    <g>
      <rect class="cls-2" x="52.79" y="43.68" width="3.21" height="7.07"/>
      <rect class="cls-2" x="52.94" y="43.85" width="2.91" height="6.9"/>
      <rect class="cls-2" x="53.07" y="44.07" width="1.18" height="6.49"/>
      <rect class="cls-2" x="54.48" y="44.07" width="1.26" height="6.49"/>
      <g>
        <rect class="cls-2" x="52.81" y="48.94" width="3.19" height=".11"/>
        <rect class="cls-2" x="53.1" y="49.33" width="2.61" height="1.14"/>
        <line class="cls-2" x1="52.81" y1="49.05" x2="53.09" y2="49.33"/>
        <line class="cls-2" x1="52.81" y1="50.75" x2="53.1" y2="50.46"/>
        <line class="cls-2" x1="55.71" y1="49.33" x2="56" y2="49.04"/>
        <line class="cls-2" x1="55.71" y1="50.46" x2="56" y2="50.75"/>
        <circle class="cls-2" cx="54.41" cy="49.87" r=".31"/>
        <path class="cls-2" d="M53.43,50.26s-.06-.03-.06-.07.03-.09.1-.09c.06,0,.11.06.11.13,0,.11-.1.18-.23.18s-.24-.11-.24-.24.11-.24.24-.24c.12,0,.17.09.22.09.06,0,.27,0,.31,0,.06,0,.11-.02.16-.02s.1.04.1.1-.04.1-.09.1c-.04,0-.08-.02-.08-.07,0-.04.03-.05.05-.05"/>
        <path class="cls-2" d="M53.43,49.53s-.06.03-.06.07.03.09.1.09c.06,0,.11-.06.11-.13,0-.11-.1-.18-.23-.18s-.24.11-.24.24.11.24.24.24c.12,0,.17-.09.22-.09.06,0,.27,0,.31,0,.06,0,.11.02.16.02s.1-.04.1-.1-.04-.1-.09-.1c-.04,0-.08.02-.08.07,0,.04.03.05.05.05"/>
        <path class="cls-2" d="M55.37,50.26s.06-.03.06-.07-.03-.09-.1-.09c-.06,0-.11.06-.11.13,0,.11.1.18.23.18s.24-.11.24-.24-.11-.24-.24-.24c-.12,0-.17.09-.22.09-.06,0-.27,0-.31,0-.06,0-.11-.02-.16-.02s-.1.04-.1.1.04.1.09.1c.04,0,.08-.02.08-.07,0-.04-.03-.05-.05-.05"/>
        <path class="cls-2" d="M55.37,49.53s.06.03.06.07-.03.09-.1.09c-.06,0-.11-.06-.11-.13,0-.11.1-.18.23-.18s.24.11.24.24-.11.24-.24.24c-.12,0-.17-.09-.22-.09-.06,0-.27,0-.31,0-.06,0-.11.02-.16.02s-.1-.04-.1-.1.04-.1.09-.1c.04,0,.08.02.08.07,0,.04-.03.05-.05.05"/>
      </g>
      <rect class="cls-2" x="55.99" y="43.72" width="1.49" height="6.94"/>
      <rect class="cls-2" x="56.15" y="43.89" width="1.19" height="3.18"/>
      <rect class="cls-2" x="56.15" y="47.3" width="1.19" height="3.18"/>
      <g>
        <line class="cls-2" x1="51.45" y1="44.07" x2="52.64" y2="44.07"/>
        <line class="cls-2" x1="51.45" y1="44.25" x2="52.64" y2="44.25"/>
        <line class="cls-2" x1="51.45" y1="44.44" x2="52.64" y2="44.44"/>
        <line class="cls-2" x1="51.45" y1="44.62" x2="52.64" y2="44.62"/>
        <line class="cls-2" x1="51.45" y1="44.81" x2="52.64" y2="44.81"/>
        <line class="cls-2" x1="51.45" y1="45" x2="52.64" y2="45"/>
        <line class="cls-2" x1="51.45" y1="45.18" x2="52.64" y2="45.18"/>
        <line class="cls-2" x1="51.45" y1="45.37" x2="52.64" y2="45.37"/>
        <line class="cls-2" x1="51.45" y1="45.56" x2="52.64" y2="45.56"/>
        <line class="cls-2" x1="51.45" y1="45.74" x2="52.64" y2="45.74"/>
        <line class="cls-2" x1="51.45" y1="45.93" x2="52.64" y2="45.93"/>
        <line class="cls-2" x1="51.45" y1="46.12" x2="52.64" y2="46.12"/>
        <line class="cls-2" x1="51.45" y1="46.3" x2="52.64" y2="46.3"/>
        <line class="cls-2" x1="51.45" y1="46.49" x2="52.64" y2="46.49"/>
        <line class="cls-2" x1="51.45" y1="46.68" x2="52.64" y2="46.68"/>
        <line class="cls-2" x1="51.45" y1="46.86" x2="52.64" y2="46.86"/>
      </g>
      <g>
        <line class="cls-2" x1="51.45" y1="47.49" x2="52.64" y2="47.49"/>
        <line class="cls-2" x1="51.45" y1="47.68" x2="52.64" y2="47.68"/>
        <line class="cls-2" x1="51.45" y1="47.87" x2="52.64" y2="47.87"/>
        <line class="cls-2" x1="51.45" y1="48.05" x2="52.64" y2="48.05"/>
        <line class="cls-2" x1="51.45" y1="48.24" x2="52.64" y2="48.24"/>
        <line class="cls-2" x1="51.45" y1="48.43" x2="52.64" y2="48.43"/>
        <line class="cls-2" x1="51.45" y1="48.61" x2="52.64" y2="48.61"/>
        <line class="cls-2" x1="51.45" y1="48.8" x2="52.64" y2="48.8"/>
        <line class="cls-2" x1="51.45" y1="48.99" x2="52.64" y2="48.99"/>
        <line class="cls-2" x1="51.45" y1="49.17" x2="52.64" y2="49.17"/>
        <line class="cls-2" x1="51.45" y1="49.36" x2="52.64" y2="49.36"/>
        <line class="cls-2" x1="51.45" y1="49.55" x2="52.64" y2="49.55"/>
        <line class="cls-2" x1="51.45" y1="49.73" x2="52.64" y2="49.73"/>
        <line class="cls-2" x1="51.45" y1="49.92" x2="52.64" y2="49.92"/>
        <line class="cls-2" x1="51.45" y1="50.1" x2="52.64" y2="50.1"/>
        <line class="cls-2" x1="51.45" y1="50.29" x2="52.64" y2="50.29"/>
      </g>
      <g>
        <line class="cls-2" x1="56.15" y1="44.07" x2="57.33" y2="44.07"/>
        <line class="cls-2" x1="56.15" y1="44.25" x2="57.33" y2="44.25"/>
        <line class="cls-2" x1="56.15" y1="44.44" x2="57.33" y2="44.44"/>
        <line class="cls-2" x1="56.15" y1="44.62" x2="57.33" y2="44.62"/>
        <line class="cls-2" x1="56.15" y1="44.81" x2="57.33" y2="44.81"/>
        <line class="cls-2" x1="56.15" y1="45" x2="57.33" y2="45"/>
        <line class="cls-2" x1="56.15" y1="45.18" x2="57.33" y2="45.18"/>
        <line class="cls-2" x1="56.15" y1="45.37" x2="57.33" y2="45.37"/>
        <line class="cls-2" x1="56.15" y1="45.56" x2="57.33" y2="45.56"/>
        <line class="cls-2" x1="56.15" y1="45.74" x2="57.33" y2="45.74"/>
        <line class="cls-2" x1="56.15" y1="45.93" x2="57.33" y2="45.93"/>
        <line class="cls-2" x1="56.15" y1="46.12" x2="57.33" y2="46.12"/>
        <line class="cls-2" x1="56.15" y1="46.3" x2="57.33" y2="46.3"/>
        <line class="cls-2" x1="56.15" y1="46.49" x2="57.33" y2="46.49"/>
        <line class="cls-2" x1="56.15" y1="46.68" x2="57.33" y2="46.68"/>
        <line class="cls-2" x1="56.15" y1="46.86" x2="57.33" y2="46.86"/>
      </g>
      <g>
        <line class="cls-2" x1="56.15" y1="47.49" x2="57.33" y2="47.49"/>
        <line class="cls-2" x1="56.15" y1="47.68" x2="57.33" y2="47.68"/>
        <line class="cls-2" x1="56.15" y1="47.87" x2="57.33" y2="47.87"/>
        <line class="cls-2" x1="56.15" y1="48.05" x2="57.33" y2="48.05"/>
        <line class="cls-2" x1="56.15" y1="48.24" x2="57.33" y2="48.24"/>
        <line class="cls-2" x1="56.15" y1="48.43" x2="57.33" y2="48.43"/>
        <line class="cls-2" x1="56.15" y1="48.61" x2="57.33" y2="48.61"/>
        <line class="cls-2" x1="56.15" y1="48.8" x2="57.33" y2="48.8"/>
        <line class="cls-2" x1="56.15" y1="48.99" x2="57.33" y2="48.99"/>
        <line class="cls-2" x1="56.15" y1="49.17" x2="57.33" y2="49.17"/>
        <line class="cls-2" x1="56.15" y1="49.36" x2="57.33" y2="49.36"/>
        <line class="cls-2" x1="56.15" y1="49.55" x2="57.33" y2="49.55"/>
        <line class="cls-2" x1="56.15" y1="49.73" x2="57.33" y2="49.73"/>
        <line class="cls-2" x1="56.15" y1="49.92" x2="57.33" y2="49.92"/>
        <line class="cls-2" x1="56.15" y1="50.1" x2="57.33" y2="50.1"/>
        <line class="cls-2" x1="56.15" y1="50.29" x2="57.33" y2="50.29"/>
      </g>
      <rect class="cls-2" x="51.29" y="43.72" width="1.49" height="6.94"/>
      <rect class="cls-2" x="51.45" y="43.89" width="1.19" height="3.18"/>
      <rect class="cls-2" x="51.45" y="47.3" width="1.19" height="3.18"/>
    </g>
    <g>
      <rect class="cls-2" x="42.33" y="43.68" width="3.21" height="7.07"/>
      <rect class="cls-2" x="42.48" y="43.85" width="2.91" height="6.9"/>
      <rect class="cls-2" x="42.61" y="44.07" width="1.18" height="6.49"/>
      <rect class="cls-2" x="44.01" y="44.07" width="1.26" height="6.49"/>
      <g>
        <rect class="cls-2" x="42.35" y="48.94" width="3.19" height=".11"/>
        <rect class="cls-2" x="42.64" y="49.33" width="2.61" height="1.14"/>
        <line class="cls-2" x1="42.35" y1="49.05" x2="42.63" y2="49.33"/>
        <line class="cls-2" x1="42.35" y1="50.75" x2="42.63" y2="50.46"/>
        <line class="cls-2" x1="45.25" y1="49.33" x2="45.53" y2="49.04"/>
        <line class="cls-2" x1="45.25" y1="50.46" x2="45.54" y2="50.75"/>
        <circle class="cls-2" cx="43.94" cy="49.87" r=".31"/>
        <path class="cls-2" d="M42.97,50.26s-.06-.03-.06-.07.03-.09.1-.09c.06,0,.11.06.11.13,0,.11-.1.18-.23.18s-.24-.11-.24-.24.11-.24.24-.24c.12,0,.17.09.22.09.06,0,.27,0,.31,0,.06,0,.11-.02.16-.02s.1.04.1.1-.04.1-.09.1c-.04,0-.08-.02-.08-.07,0-.04.03-.05.05-.05"/>
        <path class="cls-2" d="M42.97,49.53s-.06.03-.06.07.03.09.1.09c.06,0,.11-.06.11-.13,0-.11-.1-.18-.23-.18s-.24.11-.24.24.11.24.24.24c.12,0,.17-.09.22-.09.06,0,.27,0,.31,0,.06,0,.11.02.16.02s.1-.04.1-.1-.04-.1-.09-.1c-.04,0-.08.02-.08.07,0,.04.03.05.05.05"/>
        <path class="cls-2" d="M44.9,50.26s.06-.03.06-.07-.03-.09-.1-.09c-.06,0-.11.06-.11.13,0,.11.1.18.23.18s.24-.11.24-.24-.11-.24-.24-.24c-.12,0-.17.09-.22.09-.06,0-.27,0-.31,0-.06,0-.11-.02-.16-.02s-.1.04-.1.1.04.1.09.1c.04,0,.08-.02.08-.07,0-.04-.03-.05-.05-.05"/>
        <path class="cls-2" d="M44.9,49.53s.06.03.06.07-.03.09-.1.09c-.06,0-.11-.06-.11-.13,0-.11.1-.18.23-.18s.24.11.24.24-.11.24-.24.24c-.12,0-.17-.09-.22-.09-.06,0-.27,0-.31,0-.06,0-.11.02-.16.02s-.1-.04-.1-.1.04-.1.09-.1c.04,0,.08.02.08.07,0,.04-.03.05-.05.05"/>
      </g>
      <rect class="cls-2" x="45.53" y="43.72" width="1.49" height="6.94"/>
      <rect class="cls-2" x="45.69" y="43.89" width="1.19" height="3.18"/>
      <rect class="cls-2" x="45.69" y="47.3" width="1.19" height="3.18"/>
      <rect class="cls-2" x="40.83" y="43.72" width="1.49" height="6.94"/>
      <rect class="cls-2" x="40.99" y="43.89" width="1.19" height="3.18"/>
      <rect class="cls-2" x="40.99" y="47.3" width="1.19" height="3.18"/>
      <g>
        <line class="cls-2" x1="41" y1="44.07" x2="42.19" y2="44.07"/>
        <line class="cls-2" x1="41" y1="44.25" x2="42.19" y2="44.25"/>
        <line class="cls-2" x1="41" y1="44.44" x2="42.19" y2="44.44"/>
        <line class="cls-2" x1="41" y1="44.62" x2="42.19" y2="44.62"/>
        <line class="cls-2" x1="41" y1="44.81" x2="42.19" y2="44.81"/>
        <line class="cls-2" x1="41" y1="45" x2="42.19" y2="45"/>
        <line class="cls-2" x1="41" y1="45.18" x2="42.19" y2="45.18"/>
        <line class="cls-2" x1="41" y1="45.37" x2="42.19" y2="45.37"/>
        <line class="cls-2" x1="41" y1="45.56" x2="42.19" y2="45.56"/>
        <line class="cls-2" x1="41" y1="45.74" x2="42.19" y2="45.74"/>
        <line class="cls-2" x1="41" y1="45.93" x2="42.19" y2="45.93"/>
        <line class="cls-2" x1="41" y1="46.12" x2="42.19" y2="46.12"/>
        <line class="cls-2" x1="41" y1="46.3" x2="42.19" y2="46.3"/>
        <line class="cls-2" x1="41" y1="46.49" x2="42.19" y2="46.49"/>
        <line class="cls-2" x1="41" y1="46.68" x2="42.19" y2="46.68"/>
        <line class="cls-2" x1="41" y1="46.86" x2="42.19" y2="46.86"/>
      </g>
      <g>
        <line class="cls-2" x1="41" y1="47.49" x2="42.19" y2="47.49"/>
        <line class="cls-2" x1="41" y1="47.68" x2="42.19" y2="47.68"/>
        <line class="cls-2" x1="41" y1="47.87" x2="42.19" y2="47.87"/>
        <line class="cls-2" x1="41" y1="48.05" x2="42.19" y2="48.05"/>
        <line class="cls-2" x1="41" y1="48.24" x2="42.19" y2="48.24"/>
        <line class="cls-2" x1="41" y1="48.43" x2="42.19" y2="48.43"/>
        <line class="cls-2" x1="41" y1="48.61" x2="42.19" y2="48.61"/>
        <line class="cls-2" x1="41" y1="48.8" x2="42.19" y2="48.8"/>
        <line class="cls-2" x1="41" y1="48.99" x2="42.19" y2="48.99"/>
        <line class="cls-2" x1="41" y1="49.17" x2="42.19" y2="49.17"/>
        <line class="cls-2" x1="41" y1="49.36" x2="42.19" y2="49.36"/>
        <line class="cls-2" x1="41" y1="49.55" x2="42.19" y2="49.55"/>
        <line class="cls-2" x1="41" y1="49.73" x2="42.19" y2="49.73"/>
        <line class="cls-2" x1="41" y1="49.92" x2="42.19" y2="49.92"/>
        <line class="cls-2" x1="41" y1="50.1" x2="42.19" y2="50.1"/>
        <line class="cls-2" x1="41" y1="50.29" x2="42.19" y2="50.29"/>
      </g>
      <g>
        <line class="cls-2" x1="45.7" y1="44.07" x2="46.89" y2="44.07"/>
        <line class="cls-2" x1="45.7" y1="44.25" x2="46.89" y2="44.25"/>
        <line class="cls-2" x1="45.7" y1="44.44" x2="46.89" y2="44.44"/>
        <line class="cls-2" x1="45.7" y1="44.62" x2="46.89" y2="44.62"/>
        <line class="cls-2" x1="45.7" y1="44.81" x2="46.89" y2="44.81"/>
        <line class="cls-2" x1="45.7" y1="45" x2="46.89" y2="45"/>
        <line class="cls-2" x1="45.7" y1="45.18" x2="46.89" y2="45.18"/>
        <line class="cls-2" x1="45.7" y1="45.37" x2="46.89" y2="45.37"/>
        <line class="cls-2" x1="45.7" y1="45.56" x2="46.89" y2="45.56"/>
        <line class="cls-2" x1="45.7" y1="45.74" x2="46.89" y2="45.74"/>
        <line class="cls-2" x1="45.7" y1="45.93" x2="46.89" y2="45.93"/>
        <line class="cls-2" x1="45.7" y1="46.12" x2="46.89" y2="46.12"/>
        <line class="cls-2" x1="45.7" y1="46.3" x2="46.89" y2="46.3"/>
        <line class="cls-2" x1="45.7" y1="46.49" x2="46.89" y2="46.49"/>
        <line class="cls-2" x1="45.7" y1="46.68" x2="46.89" y2="46.68"/>
        <line class="cls-2" x1="45.7" y1="46.86" x2="46.89" y2="46.86"/>
      </g>
      <g>
        <line class="cls-2" x1="45.7" y1="47.49" x2="46.89" y2="47.49"/>
        <line class="cls-2" x1="45.7" y1="47.68" x2="46.89" y2="47.68"/>
        <line class="cls-2" x1="45.7" y1="47.87" x2="46.89" y2="47.87"/>
        <line class="cls-2" x1="45.7" y1="48.05" x2="46.89" y2="48.05"/>
        <line class="cls-2" x1="45.7" y1="48.24" x2="46.89" y2="48.24"/>
        <line class="cls-2" x1="45.7" y1="48.43" x2="46.89" y2="48.43"/>
        <line class="cls-2" x1="45.7" y1="48.61" x2="46.89" y2="48.61"/>
        <line class="cls-2" x1="45.7" y1="48.8" x2="46.89" y2="48.8"/>
        <line class="cls-2" x1="45.7" y1="48.99" x2="46.89" y2="48.99"/>
        <line class="cls-2" x1="45.7" y1="49.17" x2="46.89" y2="49.17"/>
        <line class="cls-2" x1="45.7" y1="49.36" x2="46.89" y2="49.36"/>
        <line class="cls-2" x1="45.7" y1="49.55" x2="46.89" y2="49.55"/>
        <line class="cls-2" x1="45.7" y1="49.73" x2="46.89" y2="49.73"/>
        <line class="cls-2" x1="45.7" y1="49.92" x2="46.89" y2="49.92"/>
        <line class="cls-2" x1="45.7" y1="50.1" x2="46.89" y2="50.1"/>
        <line class="cls-2" x1="45.7" y1="50.29" x2="46.89" y2="50.29"/>
      </g>
    </g>
    <g>
      <rect class="cls-2" x="34.73" y="43.68" width="3.21" height="7.07"/>
      <rect class="cls-2" x="34.89" y="43.85" width="2.91" height="6.9"/>
      <rect class="cls-2" x="35.02" y="44.07" width="1.18" height="6.49"/>
      <rect class="cls-2" x="36.42" y="44.07" width="1.26" height="6.49"/>
      <g>
        <rect class="cls-2" x="34.76" y="48.94" width="3.19" height=".11"/>
        <rect class="cls-2" x="35.05" y="49.33" width="2.61" height="1.14"/>
        <line class="cls-2" x1="34.76" y1="49.05" x2="35.04" y2="49.33"/>
        <line class="cls-2" x1="34.76" y1="50.75" x2="35.04" y2="50.46"/>
        <line class="cls-2" x1="37.66" y1="49.33" x2="37.94" y2="49.04"/>
        <line class="cls-2" x1="37.66" y1="50.46" x2="37.95" y2="50.75"/>
        <circle class="cls-2" cx="36.35" cy="49.87" r=".31"/>
        <path class="cls-2" d="M35.38,50.26s-.06-.03-.06-.07.03-.09.1-.09c.06,0,.11.06.11.13,0,.11-.1.18-.23.18s-.24-.11-.24-.24.11-.24.24-.24c.12,0,.17.09.22.09.06,0,.27,0,.31,0,.06,0,.11-.02.16-.02s.1.04.1.1-.04.1-.09.1c-.04,0-.08-.02-.08-.07,0-.04.03-.05.05-.05"/>
        <path class="cls-2" d="M35.38,49.53s-.06.03-.06.07.03.09.1.09c.06,0,.11-.06.11-.13,0-.11-.1-.18-.23-.18s-.24.11-.24.24.11.24.24.24c.12,0,.17-.09.22-.09.06,0,.27,0,.31,0,.06,0,.11.02.16.02s.1-.04.1-.1-.04-.1-.09-.1c-.04,0-.08.02-.08.07,0,.04.03.05.05.05"/>
        <path class="cls-2" d="M37.31,50.26s.06-.03.06-.07-.03-.09-.1-.09c-.06,0-.11.06-.11.13,0,.11.1.18.23.18s.24-.11.24-.24-.11-.24-.24-.24c-.12,0-.17.09-.22.09-.06,0-.27,0-.31,0-.06,0-.11-.02-.16-.02s-.1.04-.1.1.04.1.09.1c.04,0,.08-.02.08-.07,0-.04-.03-.05-.05-.05"/>
        <path class="cls-2" d="M37.31,49.53s.06.03.06.07-.03.09-.1.09c-.06,0-.11-.06-.11-.13,0-.11.1-.18.23-.18s.24.11.24.24-.11.24-.24.24c-.12,0-.17-.09-.22-.09-.06,0-.27,0-.31,0-.06,0-.11.02-.16.02s-.1-.04-.1-.1.04-.1.09-.1c.04,0,.08.02.08.07,0,.04-.03.05-.05.05"/>
      </g>
      <rect class="cls-2" x="37.94" y="43.72" width="1.49" height="6.94"/>
      <rect class="cls-2" x="38.1" y="43.89" width="1.19" height="3.18"/>
      <rect class="cls-2" x="38.1" y="47.3" width="1.19" height="3.18"/>
      <rect class="cls-2" x="33.24" y="43.72" width="1.49" height="6.94"/>
      <rect class="cls-2" x="33.4" y="43.89" width="1.19" height="3.18"/>
      <rect class="cls-2" x="33.4" y="47.3" width="1.19" height="3.18"/>
      <g>
        <line class="cls-2" x1="33.4" y1="44.07" x2="34.58" y2="44.07"/>
        <line class="cls-2" x1="33.4" y1="44.25" x2="34.58" y2="44.25"/>
        <line class="cls-2" x1="33.4" y1="44.44" x2="34.58" y2="44.44"/>
        <line class="cls-2" x1="33.4" y1="44.62" x2="34.58" y2="44.62"/>
        <line class="cls-2" x1="33.4" y1="44.81" x2="34.58" y2="44.81"/>
        <line class="cls-2" x1="33.4" y1="45" x2="34.58" y2="45"/>
        <line class="cls-2" x1="33.4" y1="45.18" x2="34.58" y2="45.18"/>
        <line class="cls-2" x1="33.4" y1="45.37" x2="34.58" y2="45.37"/>
        <line class="cls-2" x1="33.4" y1="45.56" x2="34.58" y2="45.56"/>
        <line class="cls-2" x1="33.4" y1="45.74" x2="34.58" y2="45.74"/>
        <line class="cls-2" x1="33.4" y1="45.93" x2="34.58" y2="45.93"/>
        <line class="cls-2" x1="33.4" y1="46.12" x2="34.58" y2="46.12"/>
        <line class="cls-2" x1="33.4" y1="46.3" x2="34.58" y2="46.3"/>
        <line class="cls-2" x1="33.4" y1="46.49" x2="34.58" y2="46.49"/>
        <line class="cls-2" x1="33.4" y1="46.68" x2="34.58" y2="46.68"/>
        <line class="cls-2" x1="33.4" y1="46.86" x2="34.58" y2="46.86"/>
      </g>
      <g>
        <line class="cls-2" x1="33.4" y1="47.49" x2="34.58" y2="47.49"/>
        <line class="cls-2" x1="33.4" y1="47.68" x2="34.58" y2="47.68"/>
        <line class="cls-2" x1="33.4" y1="47.87" x2="34.58" y2="47.87"/>
        <line class="cls-2" x1="33.4" y1="48.05" x2="34.58" y2="48.05"/>
        <line class="cls-2" x1="33.4" y1="48.24" x2="34.58" y2="48.24"/>
        <line class="cls-2" x1="33.4" y1="48.43" x2="34.58" y2="48.43"/>
        <line class="cls-2" x1="33.4" y1="48.61" x2="34.58" y2="48.61"/>
        <line class="cls-2" x1="33.4" y1="48.8" x2="34.58" y2="48.8"/>
        <line class="cls-2" x1="33.4" y1="48.99" x2="34.58" y2="48.99"/>
        <line class="cls-2" x1="33.4" y1="49.17" x2="34.58" y2="49.17"/>
        <line class="cls-2" x1="33.4" y1="49.36" x2="34.58" y2="49.36"/>
        <line class="cls-2" x1="33.4" y1="49.55" x2="34.58" y2="49.55"/>
        <line class="cls-2" x1="33.4" y1="49.73" x2="34.58" y2="49.73"/>
        <line class="cls-2" x1="33.4" y1="49.92" x2="34.58" y2="49.92"/>
        <line class="cls-2" x1="33.4" y1="50.1" x2="34.58" y2="50.1"/>
        <line class="cls-2" x1="33.4" y1="50.29" x2="34.58" y2="50.29"/>
      </g>
      <g>
        <line class="cls-2" x1="38.1" y1="44.07" x2="39.28" y2="44.07"/>
        <line class="cls-2" x1="38.1" y1="44.25" x2="39.28" y2="44.25"/>
        <line class="cls-2" x1="38.1" y1="44.44" x2="39.28" y2="44.44"/>
        <line class="cls-2" x1="38.1" y1="44.62" x2="39.28" y2="44.62"/>
        <line class="cls-2" x1="38.1" y1="44.81" x2="39.28" y2="44.81"/>
        <line class="cls-2" x1="38.1" y1="45" x2="39.28" y2="45"/>
        <line class="cls-2" x1="38.1" y1="45.18" x2="39.28" y2="45.18"/>
        <line class="cls-2" x1="38.1" y1="45.37" x2="39.28" y2="45.37"/>
        <line class="cls-2" x1="38.1" y1="45.56" x2="39.28" y2="45.56"/>
        <line class="cls-2" x1="38.1" y1="45.74" x2="39.28" y2="45.74"/>
        <line class="cls-2" x1="38.1" y1="45.93" x2="39.28" y2="45.93"/>
        <line class="cls-2" x1="38.1" y1="46.12" x2="39.28" y2="46.12"/>
        <line class="cls-2" x1="38.1" y1="46.3" x2="39.28" y2="46.3"/>
        <line class="cls-2" x1="38.1" y1="46.49" x2="39.28" y2="46.49"/>
        <line class="cls-2" x1="38.1" y1="46.68" x2="39.28" y2="46.68"/>
        <line class="cls-2" x1="38.1" y1="46.86" x2="39.28" y2="46.86"/>
      </g>
      <g>
        <line class="cls-2" x1="38.1" y1="47.49" x2="39.28" y2="47.49"/>
        <line class="cls-2" x1="38.1" y1="47.68" x2="39.28" y2="47.68"/>
        <line class="cls-2" x1="38.1" y1="47.87" x2="39.28" y2="47.87"/>
        <line class="cls-2" x1="38.1" y1="48.05" x2="39.28" y2="48.05"/>
        <line class="cls-2" x1="38.1" y1="48.24" x2="39.28" y2="48.24"/>
        <line class="cls-2" x1="38.1" y1="48.43" x2="39.28" y2="48.43"/>
        <line class="cls-2" x1="38.1" y1="48.61" x2="39.28" y2="48.61"/>
        <line class="cls-2" x1="38.1" y1="48.8" x2="39.28" y2="48.8"/>
        <line class="cls-2" x1="38.1" y1="48.99" x2="39.28" y2="48.99"/>
        <line class="cls-2" x1="38.1" y1="49.17" x2="39.28" y2="49.17"/>
        <line class="cls-2" x1="38.1" y1="49.36" x2="39.28" y2="49.36"/>
        <line class="cls-2" x1="38.1" y1="49.55" x2="39.28" y2="49.55"/>
        <line class="cls-2" x1="38.1" y1="49.73" x2="39.28" y2="49.73"/>
        <line class="cls-2" x1="38.1" y1="49.92" x2="39.28" y2="49.92"/>
        <line class="cls-2" x1="38.1" y1="50.1" x2="39.28" y2="50.1"/>
        <line class="cls-2" x1="38.1" y1="50.29" x2="39.28" y2="50.29"/>
      </g>
    </g>
    <g>
      <rect class="cls-2" x="61.3" y="43.68" width="3.21" height="7.07"/>
      <rect class="cls-2" x="61.45" y="43.85" width="2.91" height="6.9"/>
      <rect class="cls-2" x="61.58" y="44.07" width="1.18" height="6.49"/>
      <rect class="cls-2" x="62.99" y="44.07" width="1.26" height="6.49"/>
      <g>
        <rect class="cls-2" x="61.32" y="48.94" width="3.19" height=".11"/>
        <rect class="cls-2" x="61.61" y="49.33" width="2.61" height="1.14"/>
        <line class="cls-2" x1="61.32" y1="49.05" x2="61.61" y2="49.33"/>
        <line class="cls-2" x1="61.32" y1="50.75" x2="61.61" y2="50.46"/>
        <line class="cls-2" x1="64.23" y1="49.33" x2="64.51" y2="49.04"/>
        <line class="cls-2" x1="64.23" y1="50.46" x2="64.51" y2="50.75"/>
        <circle class="cls-2" cx="62.92" cy="49.87" r=".31"/>
        <path class="cls-2" d="M61.94,50.26s-.06-.03-.06-.07.03-.09.1-.09c.06,0,.11.06.11.13,0,.11-.1.18-.23.18s-.24-.11-.24-.24.11-.24.24-.24c.12,0,.17.09.22.09.06,0,.27,0,.31,0,.06,0,.11-.02.16-.02s.1.04.1.1-.04.1-.09.1c-.04,0-.08-.02-.08-.07,0-.04.03-.05.05-.05"/>
        <path class="cls-2" d="M61.94,49.53s-.06.03-.06.07.03.09.1.09c.06,0,.11-.06.11-.13,0-.11-.1-.18-.23-.18s-.24.11-.24.24.11.24.24.24c.12,0,.17-.09.22-.09.06,0,.27,0,.31,0,.06,0,.11.02.16.02s.1-.04.1-.1-.04-.1-.09-.1c-.04,0-.08.02-.08.07,0,.04.03.05.05.05"/>
        <path class="cls-2" d="M63.88,50.26s.06-.03.06-.07-.03-.09-.1-.09c-.06,0-.11.06-.11.13,0,.11.1.18.23.18s.24-.11.24-.24-.11-.24-.24-.24c-.12,0-.17.09-.22.09-.06,0-.27,0-.31,0-.06,0-.11-.02-.16-.02s-.1.04-.1.1.04.1.09.1c.04,0,.08-.02.08-.07,0-.04-.03-.05-.05-.05"/>
        <path class="cls-2" d="M63.88,49.53s.06.03.06.07-.03.09-.1.09c-.06,0-.11-.06-.11-.13,0-.11.1-.18.23-.18s.24.11.24.24-.11.24-.24.24c-.12,0-.17-.09-.22-.09-.06,0-.27,0-.31,0-.06,0-.11.02-.16.02s-.1-.04-.1-.1.04-.1.09-.1c.04,0,.08.02.08.07,0,.04-.03.05-.05.05"/>
      </g>
      <rect class="cls-2" x="64.51" y="43.72" width="1.49" height="6.94"/>
      <rect class="cls-2" x="64.67" y="43.89" width="1.19" height="3.18"/>
      <rect class="cls-2" x="64.67" y="47.3" width="1.19" height="3.18"/>
      <rect class="cls-2" x="59.81" y="43.72" width="1.49" height="6.94"/>
      <rect class="cls-2" x="59.96" y="43.89" width="1.19" height="3.18"/>
      <rect class="cls-2" x="59.96" y="47.3" width="1.19" height="3.18"/>
      <g>
        <line class="cls-2" x1="59.96" y1="44.07" x2="61.15" y2="44.07"/>
        <line class="cls-2" x1="59.96" y1="44.25" x2="61.15" y2="44.25"/>
        <line class="cls-2" x1="59.96" y1="44.44" x2="61.15" y2="44.44"/>
        <line class="cls-2" x1="59.96" y1="44.62" x2="61.15" y2="44.62"/>
        <line class="cls-2" x1="59.96" y1="44.81" x2="61.15" y2="44.81"/>
        <line class="cls-2" x1="59.96" y1="45" x2="61.15" y2="45"/>
        <line class="cls-2" x1="59.96" y1="45.18" x2="61.15" y2="45.18"/>
        <line class="cls-2" x1="59.96" y1="45.37" x2="61.15" y2="45.37"/>
        <line class="cls-2" x1="59.96" y1="45.56" x2="61.15" y2="45.56"/>
        <line class="cls-2" x1="59.96" y1="45.74" x2="61.15" y2="45.74"/>
        <line class="cls-2" x1="59.96" y1="45.93" x2="61.15" y2="45.93"/>
        <line class="cls-2" x1="59.96" y1="46.12" x2="61.15" y2="46.12"/>
        <line class="cls-2" x1="59.96" y1="46.3" x2="61.15" y2="46.3"/>
        <line class="cls-2" x1="59.96" y1="46.49" x2="61.15" y2="46.49"/>
        <line class="cls-2" x1="59.96" y1="46.68" x2="61.15" y2="46.68"/>
        <line class="cls-2" x1="59.96" y1="46.86" x2="61.15" y2="46.86"/>
      </g>
      <g>
        <line class="cls-2" x1="59.96" y1="47.49" x2="61.15" y2="47.49"/>
        <line class="cls-2" x1="59.96" y1="47.68" x2="61.15" y2="47.68"/>
        <line class="cls-2" x1="59.96" y1="47.87" x2="61.15" y2="47.87"/>
        <line class="cls-2" x1="59.96" y1="48.05" x2="61.15" y2="48.05"/>
        <line class="cls-2" x1="59.96" y1="48.24" x2="61.15" y2="48.24"/>
        <line class="cls-2" x1="59.96" y1="48.43" x2="61.15" y2="48.43"/>
        <line class="cls-2" x1="59.96" y1="48.61" x2="61.15" y2="48.61"/>
        <line class="cls-2" x1="59.96" y1="48.8" x2="61.15" y2="48.8"/>
        <line class="cls-2" x1="59.96" y1="48.99" x2="61.15" y2="48.99"/>
        <line class="cls-2" x1="59.96" y1="49.17" x2="61.15" y2="49.17"/>
        <line class="cls-2" x1="59.96" y1="49.36" x2="61.15" y2="49.36"/>
        <line class="cls-2" x1="59.96" y1="49.55" x2="61.15" y2="49.55"/>
        <line class="cls-2" x1="59.96" y1="49.73" x2="61.15" y2="49.73"/>
        <line class="cls-2" x1="59.96" y1="49.92" x2="61.15" y2="49.92"/>
        <line class="cls-2" x1="59.96" y1="50.1" x2="61.15" y2="50.1"/>
        <line class="cls-2" x1="59.96" y1="50.29" x2="61.15" y2="50.29"/>
      </g>
      <g>
        <line class="cls-2" x1="64.66" y1="44.07" x2="65.85" y2="44.07"/>
        <line class="cls-2" x1="64.66" y1="44.25" x2="65.85" y2="44.25"/>
        <line class="cls-2" x1="64.66" y1="44.44" x2="65.85" y2="44.44"/>
        <line class="cls-2" x1="64.66" y1="44.62" x2="65.85" y2="44.62"/>
        <line class="cls-2" x1="64.66" y1="44.81" x2="65.85" y2="44.81"/>
        <line class="cls-2" x1="64.66" y1="45" x2="65.85" y2="45"/>
        <line class="cls-2" x1="64.66" y1="45.18" x2="65.85" y2="45.18"/>
        <line class="cls-2" x1="64.66" y1="45.37" x2="65.85" y2="45.37"/>
        <line class="cls-2" x1="64.66" y1="45.56" x2="65.85" y2="45.56"/>
        <line class="cls-2" x1="64.66" y1="45.74" x2="65.85" y2="45.74"/>
        <line class="cls-2" x1="64.66" y1="45.93" x2="65.85" y2="45.93"/>
        <line class="cls-2" x1="64.66" y1="46.12" x2="65.85" y2="46.12"/>
        <line class="cls-2" x1="64.66" y1="46.3" x2="65.85" y2="46.3"/>
        <line class="cls-2" x1="64.66" y1="46.49" x2="65.85" y2="46.49"/>
        <line class="cls-2" x1="64.66" y1="46.68" x2="65.85" y2="46.68"/>
        <line class="cls-2" x1="64.66" y1="46.86" x2="65.85" y2="46.86"/>
      </g>
      <g>
        <line class="cls-2" x1="64.66" y1="47.49" x2="65.85" y2="47.49"/>
        <line class="cls-2" x1="64.66" y1="47.68" x2="65.85" y2="47.68"/>
        <line class="cls-2" x1="64.66" y1="47.87" x2="65.85" y2="47.87"/>
        <line class="cls-2" x1="64.66" y1="48.05" x2="65.85" y2="48.05"/>
        <line class="cls-2" x1="64.66" y1="48.24" x2="65.85" y2="48.24"/>
        <line class="cls-2" x1="64.66" y1="48.43" x2="65.85" y2="48.43"/>
        <line class="cls-2" x1="64.66" y1="48.61" x2="65.85" y2="48.61"/>
        <line class="cls-2" x1="64.66" y1="48.8" x2="65.85" y2="48.8"/>
        <line class="cls-2" x1="64.66" y1="48.99" x2="65.85" y2="48.99"/>
        <line class="cls-2" x1="64.66" y1="49.17" x2="65.85" y2="49.17"/>
        <line class="cls-2" x1="64.66" y1="49.36" x2="65.85" y2="49.36"/>
        <line class="cls-2" x1="64.66" y1="49.55" x2="65.85" y2="49.55"/>
        <line class="cls-2" x1="64.66" y1="49.73" x2="65.85" y2="49.73"/>
        <line class="cls-2" x1="64.66" y1="49.92" x2="65.85" y2="49.92"/>
        <line class="cls-2" x1="64.66" y1="50.1" x2="65.85" y2="50.1"/>
        <line class="cls-2" x1="64.66" y1="50.29" x2="65.85" y2="50.29"/>
      </g>
    </g>
    <g>
      <rect class="cls-2" x="42" y="52.65" width="3.84" height="8.33"/>
      <rect class="cls-2" x="42.18" y="52.85" width="3.48" height="8.12"/>
      <rect class="cls-2" x="42.33" y="53.1" width="1.6" height="7.64"/>
      <rect class="cls-2" x="43.93" y="53.1" width="1.6" height="7.64"/>
      <g>
        <g>
          <rect class="cls-2" x="42.56" y="53.27" width="1.14" height="1.47"/>
          <rect class="cls-2" x="42.56" y="54.92" width="1.14" height="1.47"/>
          <rect class="cls-2" x="42.56" y="56.58" width="1.14" height="1.47"/>
          <rect class="cls-2" x="42.56" y="59.04" width="1.14" height=".78"/>
          <rect class="cls-2" x="42.56" y="58.24" width="1.14" height=".69"/>
        </g>
        <g>
          <rect class="cls-2" x="44.16" y="53.27" width="1.14" height="1.47"/>
          <rect class="cls-2" x="44.16" y="54.92" width="1.14" height="1.47"/>
          <rect class="cls-2" x="44.16" y="56.58" width="1.14" height="1.47"/>
          <rect class="cls-2" x="44.16" y="58.24" width="1.14" height=".69"/>
          <rect class="cls-2" x="44.16" y="59.04" width="1.14" height=".78"/>
        </g>
      </g>
      <rect class="cls-2" x="42.33" y="58.93" width="3.19" height=".11"/>
      <rect class="cls-2" x="42.62" y="59.32" width="2.61" height="1.14"/>
      <line class="cls-2" x1="42.33" y1="59.04" x2="42.62" y2="59.32"/>
      <line class="cls-2" x1="42.33" y1="60.74" x2="42.62" y2="60.45"/>
      <line class="cls-2" x1="45.23" y1="59.32" x2="45.52" y2="59.03"/>
      <line class="cls-2" x1="45.23" y1="60.46" x2="45.52" y2="60.74"/>
      <circle class="cls-2" cx="43.93" cy="59.86" r=".31"/>
      <path class="cls-2" d="M42.95,60.25s-.06-.03-.06-.07.03-.09.1-.09c.06,0,.11.06.11.13,0,.11-.1.18-.23.18s-.24-.11-.24-.24.11-.24.24-.24c.12,0,.17.09.22.09.06,0,.27,0,.31,0,.06,0,.11-.02.16-.02s.1.04.1.1-.04.1-.09.1c-.04,0-.08-.02-.08-.07,0-.04.03-.05.05-.05"/>
      <path class="cls-2" d="M42.95,59.52s-.06.03-.06.07.03.09.1.09c.06,0,.11-.06.11-.13,0-.11-.1-.18-.23-.18s-.24.11-.24.24.11.24.24.24c.12,0,.17-.09.22-.09.06,0,.27,0,.31,0,.06,0,.11.02.16.02s.1-.04.1-.1-.04-.1-.09-.1c-.04,0-.08.02-.08.07,0,.04.03.05.05.05"/>
      <path class="cls-2" d="M44.89,60.25s.06-.03.06-.07-.03-.09-.1-.09c-.06,0-.11.06-.11.13,0,.11.1.18.23.18s.24-.11.24-.24-.11-.24-.24-.24c-.12,0-.17.09-.22.09-.06,0-.27,0-.31,0-.06,0-.11-.02-.16-.02s-.1.04-.1.1.04.1.09.1c.04,0,.08-.02.08-.07,0-.04-.03-.05-.05-.05"/>
      <path class="cls-2" d="M44.89,59.52s.06.03.06.07-.03.09-.1.09c-.06,0-.11-.06-.11-.13,0-.11.1-.18.23-.18s.24.11.24.24-.11.24-.24.24c-.12,0-.17-.09-.22-.09-.06,0-.27,0-.31,0-.06,0-.11.02-.16.02s-.1-.04-.1-.1.04-.1.09-.1c.04,0,.08.02.08.07,0,.04-.03.05-.05.05"/>
      <rect class="cls-2" x="45.83" y="52.7" width="1.79" height="8.17"/>
      <rect class="cls-2" x="46.02" y="52.89" width="1.42" height="3.74"/>
      <rect class="cls-2" x="46.02" y="56.91" width="1.42" height="3.74"/>
      <rect class="cls-2" x="40.21" y="52.7" width="1.79" height="8.17"/>
      <rect class="cls-2" x="40.4" y="52.89" width="1.42" height="3.74"/>
      <rect class="cls-2" x="40.4" y="56.91" width="1.42" height="3.74"/>
      <g>
        <line class="cls-2" x1="46.02" y1="53.04" x2="47.43" y2="53.04"/>
        <line class="cls-2" x1="46.02" y1="53.22" x2="47.43" y2="53.22"/>
        <line class="cls-2" x1="46.02" y1="53.41" x2="47.43" y2="53.41"/>
        <line class="cls-2" x1="46.02" y1="53.59" x2="47.43" y2="53.59"/>
        <line class="cls-2" x1="46.02" y1="53.77" x2="47.43" y2="53.77"/>
        <line class="cls-2" x1="46.02" y1="53.95" x2="47.43" y2="53.95"/>
        <line class="cls-2" x1="46.02" y1="54.13" x2="47.43" y2="54.13"/>
        <line class="cls-2" x1="46.02" y1="54.31" x2="47.43" y2="54.31"/>
        <line class="cls-2" x1="46.02" y1="54.49" x2="47.43" y2="54.49"/>
        <line class="cls-2" x1="46.02" y1="54.67" x2="47.43" y2="54.67"/>
        <line class="cls-2" x1="46.02" y1="54.86" x2="47.43" y2="54.86"/>
        <line class="cls-2" x1="46.02" y1="55.04" x2="47.43" y2="55.04"/>
        <line class="cls-2" x1="46.02" y1="55.22" x2="47.43" y2="55.22"/>
        <line class="cls-2" x1="46.02" y1="55.4" x2="47.43" y2="55.4"/>
        <line class="cls-2" x1="46.02" y1="55.58" x2="47.43" y2="55.58"/>
        <line class="cls-2" x1="46.02" y1="55.76" x2="47.43" y2="55.76"/>
        <line class="cls-2" x1="46.02" y1="55.94" x2="47.43" y2="55.94"/>
        <line class="cls-2" x1="46.02" y1="56.13" x2="47.43" y2="56.13"/>
        <line class="cls-2" x1="46.02" y1="56.31" x2="47.43" y2="56.31"/>
        <line class="cls-2" x1="46.02" y1="56.49" x2="47.43" y2="56.49"/>
      </g>
      <g>
        <line class="cls-2" x1="46.02" y1="57.07" x2="47.43" y2="57.07"/>
        <line class="cls-2" x1="46.02" y1="57.25" x2="47.43" y2="57.25"/>
        <line class="cls-2" x1="46.02" y1="57.43" x2="47.43" y2="57.43"/>
        <line class="cls-2" x1="46.02" y1="57.61" x2="47.43" y2="57.61"/>
        <line class="cls-2" x1="46.02" y1="57.79" x2="47.43" y2="57.79"/>
        <line class="cls-2" x1="46.02" y1="57.98" x2="47.43" y2="57.98"/>
        <line class="cls-2" x1="46.02" y1="58.16" x2="47.43" y2="58.16"/>
        <line class="cls-2" x1="46.02" y1="58.34" x2="47.43" y2="58.34"/>
        <line class="cls-2" x1="46.02" y1="58.52" x2="47.43" y2="58.52"/>
        <line class="cls-2" x1="46.02" y1="58.7" x2="47.43" y2="58.7"/>
        <line class="cls-2" x1="46.02" y1="58.88" x2="47.43" y2="58.88"/>
        <line class="cls-2" x1="46.02" y1="59.06" x2="47.43" y2="59.06"/>
        <line class="cls-2" x1="46.02" y1="59.25" x2="47.43" y2="59.25"/>
        <line class="cls-2" x1="46.02" y1="59.43" x2="47.43" y2="59.43"/>
        <line class="cls-2" x1="46.02" y1="59.61" x2="47.43" y2="59.61"/>
        <line class="cls-2" x1="46.02" y1="59.79" x2="47.43" y2="59.79"/>
        <line class="cls-2" x1="46.02" y1="59.97" x2="47.43" y2="59.97"/>
        <line class="cls-2" x1="46.02" y1="60.15" x2="47.43" y2="60.15"/>
        <line class="cls-2" x1="46.02" y1="60.33" x2="47.43" y2="60.33"/>
        <line class="cls-2" x1="46.02" y1="60.52" x2="47.43" y2="60.52"/>
      </g>
      <g>
        <line class="cls-2" x1="40.39" y1="53.04" x2="41.81" y2="53.04"/>
        <line class="cls-2" x1="40.39" y1="53.22" x2="41.81" y2="53.22"/>
        <line class="cls-2" x1="40.39" y1="53.41" x2="41.81" y2="53.41"/>
        <line class="cls-2" x1="40.39" y1="53.59" x2="41.81" y2="53.59"/>
        <line class="cls-2" x1="40.39" y1="53.77" x2="41.81" y2="53.77"/>
        <line class="cls-2" x1="40.39" y1="53.95" x2="41.81" y2="53.95"/>
        <line class="cls-2" x1="40.39" y1="54.13" x2="41.81" y2="54.13"/>
        <line class="cls-2" x1="40.39" y1="54.31" x2="41.81" y2="54.31"/>
        <line class="cls-2" x1="40.39" y1="54.49" x2="41.81" y2="54.49"/>
        <line class="cls-2" x1="40.39" y1="54.67" x2="41.81" y2="54.67"/>
        <line class="cls-2" x1="40.39" y1="54.86" x2="41.81" y2="54.86"/>
        <line class="cls-2" x1="40.39" y1="55.04" x2="41.81" y2="55.04"/>
        <line class="cls-2" x1="40.39" y1="55.22" x2="41.81" y2="55.22"/>
        <line class="cls-2" x1="40.39" y1="55.4" x2="41.81" y2="55.4"/>
        <line class="cls-2" x1="40.39" y1="55.58" x2="41.81" y2="55.58"/>
        <line class="cls-2" x1="40.39" y1="55.76" x2="41.81" y2="55.76"/>
        <line class="cls-2" x1="40.39" y1="55.94" x2="41.81" y2="55.94"/>
        <line class="cls-2" x1="40.39" y1="56.13" x2="41.81" y2="56.13"/>
        <line class="cls-2" x1="40.39" y1="56.31" x2="41.81" y2="56.31"/>
        <line class="cls-2" x1="40.39" y1="56.49" x2="41.81" y2="56.49"/>
      </g>
      <g>
        <line class="cls-2" x1="40.39" y1="57.07" x2="41.81" y2="57.07"/>
        <line class="cls-2" x1="40.39" y1="57.25" x2="41.81" y2="57.25"/>
        <line class="cls-2" x1="40.39" y1="57.43" x2="41.81" y2="57.43"/>
        <line class="cls-2" x1="40.39" y1="57.61" x2="41.81" y2="57.61"/>
        <line class="cls-2" x1="40.39" y1="57.79" x2="41.81" y2="57.79"/>
        <line class="cls-2" x1="40.39" y1="57.98" x2="41.81" y2="57.98"/>
        <line class="cls-2" x1="40.39" y1="58.16" x2="41.81" y2="58.16"/>
        <line class="cls-2" x1="40.39" y1="58.34" x2="41.81" y2="58.34"/>
        <line class="cls-2" x1="40.39" y1="58.52" x2="41.81" y2="58.52"/>
        <line class="cls-2" x1="40.39" y1="58.7" x2="41.81" y2="58.7"/>
        <line class="cls-2" x1="40.39" y1="58.88" x2="41.81" y2="58.88"/>
        <line class="cls-2" x1="40.39" y1="59.06" x2="41.81" y2="59.06"/>
        <line class="cls-2" x1="40.39" y1="59.25" x2="41.81" y2="59.25"/>
        <line class="cls-2" x1="40.39" y1="59.43" x2="41.81" y2="59.43"/>
        <line class="cls-2" x1="40.39" y1="59.61" x2="41.81" y2="59.61"/>
        <line class="cls-2" x1="40.39" y1="59.79" x2="41.81" y2="59.79"/>
        <line class="cls-2" x1="40.39" y1="59.97" x2="41.81" y2="59.97"/>
        <line class="cls-2" x1="40.39" y1="60.15" x2="41.81" y2="60.15"/>
        <line class="cls-2" x1="40.39" y1="60.33" x2="41.81" y2="60.33"/>
        <line class="cls-2" x1="40.39" y1="60.52" x2="41.81" y2="60.52"/>
      </g>
    </g>
    <g>
      <rect class="cls-2" x="34.52" y="52.65" width="3.84" height="8.33"/>
      <rect class="cls-2" x="34.7" y="52.85" width="3.48" height="8.12"/>
      <rect class="cls-2" x="34.85" y="53.1" width="1.6" height="7.64"/>
      <rect class="cls-2" x="36.45" y="53.1" width="1.6" height="7.64"/>
      <g>
        <g>
          <rect class="cls-2" x="35.08" y="53.27" width="1.14" height="1.47"/>
          <rect class="cls-2" x="35.08" y="54.92" width="1.14" height="1.47"/>
          <rect class="cls-2" x="35.08" y="56.58" width="1.14" height="1.47"/>
          <rect class="cls-2" x="35.08" y="59.04" width="1.14" height=".78"/>
          <rect class="cls-2" x="35.08" y="58.24" width="1.14" height=".69"/>
        </g>
        <g>
          <rect class="cls-2" x="36.68" y="53.27" width="1.14" height="1.47"/>
          <rect class="cls-2" x="36.68" y="54.92" width="1.14" height="1.47"/>
          <rect class="cls-2" x="36.68" y="56.58" width="1.14" height="1.47"/>
          <rect class="cls-2" x="36.68" y="58.24" width="1.14" height=".69"/>
          <rect class="cls-2" x="36.68" y="59.04" width="1.14" height=".78"/>
        </g>
      </g>
      <rect class="cls-2" x="34.85" y="58.93" width="3.19" height=".11"/>
      <rect class="cls-2" x="35.15" y="59.32" width="2.61" height="1.14"/>
      <line class="cls-2" x1="34.85" y1="59.04" x2="35.14" y2="59.32"/>
      <line class="cls-2" x1="34.85" y1="60.74" x2="35.14" y2="60.45"/>
      <line class="cls-2" x1="37.76" y1="59.32" x2="38.04" y2="59.03"/>
      <line class="cls-2" x1="37.76" y1="60.46" x2="38.04" y2="60.74"/>
      <circle class="cls-2" cx="36.45" cy="59.86" r=".31"/>
      <path class="cls-2" d="M35.47,60.25s-.06-.03-.06-.07.03-.09.1-.09c.06,0,.11.06.11.13,0,.11-.1.18-.23.18s-.24-.11-.24-.24.11-.24.24-.24c.12,0,.17.09.22.09.06,0,.27,0,.31,0,.06,0,.11-.02.16-.02s.1.04.1.1-.04.1-.09.1c-.04,0-.08-.02-.08-.07,0-.04.03-.05.05-.05"/>
      <path class="cls-2" d="M35.47,59.52s-.06.03-.06.07.03.09.1.09c.06,0,.11-.06.11-.13,0-.11-.1-.18-.23-.18s-.24.11-.24.24.11.24.24.24c.12,0,.17-.09.22-.09.06,0,.27,0,.31,0,.06,0,.11.02.16.02s.1-.04.1-.1-.04-.1-.09-.1c-.04,0-.08.02-.08.07,0,.04.03.05.05.05"/>
      <path class="cls-2" d="M37.41,60.25s.06-.03.06-.07-.03-.09-.1-.09c-.06,0-.11.06-.11.13,0,.11.1.18.23.18s.24-.11.24-.24-.11-.24-.24-.24c-.12,0-.17.09-.22.09-.06,0-.27,0-.31,0-.06,0-.11-.02-.16-.02s-.1.04-.1.1.04.1.09.1c.04,0,.08-.02.08-.07,0-.04-.03-.05-.05-.05"/>
      <path class="cls-2" d="M37.41,59.52s.06.03.06.07-.03.09-.1.09c-.06,0-.11-.06-.11-.13,0-.11.1-.18.23-.18s.24.11.24.24-.11.24-.24.24c-.12,0-.17-.09-.22-.09-.06,0-.27,0-.31,0-.06,0-.11.02-.16.02s-.1-.04-.1-.1.04-.1.09-.1c.04,0,.08.02.08.07,0,.04-.03.05-.05.05"/>
      <rect class="cls-2" x="38.35" y="52.7" width="1.79" height="8.17"/>
      <rect class="cls-2" x="38.54" y="52.89" width="1.42" height="3.74"/>
      <rect class="cls-2" x="38.54" y="56.91" width="1.42" height="3.74"/>
      <rect class="cls-2" x="32.73" y="52.7" width="1.79" height="8.17"/>
      <rect class="cls-2" x="32.92" y="52.89" width="1.42" height="3.74"/>
      <rect class="cls-2" x="32.92" y="56.91" width="1.42" height="3.74"/>
      <g>
        <line class="cls-2" x1="38.54" y1="53.04" x2="39.96" y2="53.04"/>
        <line class="cls-2" x1="38.54" y1="53.22" x2="39.96" y2="53.22"/>
        <line class="cls-2" x1="38.54" y1="53.41" x2="39.96" y2="53.41"/>
        <line class="cls-2" x1="38.54" y1="53.59" x2="39.96" y2="53.59"/>
        <line class="cls-2" x1="38.54" y1="53.77" x2="39.96" y2="53.77"/>
        <line class="cls-2" x1="38.54" y1="53.95" x2="39.96" y2="53.95"/>
        <line class="cls-2" x1="38.54" y1="54.13" x2="39.96" y2="54.13"/>
        <line class="cls-2" x1="38.54" y1="54.31" x2="39.96" y2="54.31"/>
        <line class="cls-2" x1="38.54" y1="54.49" x2="39.96" y2="54.49"/>
        <line class="cls-2" x1="38.54" y1="54.67" x2="39.96" y2="54.67"/>
        <line class="cls-2" x1="38.54" y1="54.86" x2="39.96" y2="54.86"/>
        <line class="cls-2" x1="38.54" y1="55.04" x2="39.96" y2="55.04"/>
        <line class="cls-2" x1="38.54" y1="55.22" x2="39.96" y2="55.22"/>
        <line class="cls-2" x1="38.54" y1="55.4" x2="39.96" y2="55.4"/>
        <line class="cls-2" x1="38.54" y1="55.58" x2="39.96" y2="55.58"/>
        <line class="cls-2" x1="38.54" y1="55.76" x2="39.96" y2="55.76"/>
        <line class="cls-2" x1="38.54" y1="55.94" x2="39.96" y2="55.94"/>
        <line class="cls-2" x1="38.54" y1="56.13" x2="39.96" y2="56.13"/>
        <line class="cls-2" x1="38.54" y1="56.31" x2="39.96" y2="56.31"/>
        <line class="cls-2" x1="38.54" y1="56.49" x2="39.96" y2="56.49"/>
      </g>
      <g>
        <line class="cls-2" x1="38.54" y1="57.07" x2="39.96" y2="57.07"/>
        <line class="cls-2" x1="38.54" y1="57.25" x2="39.96" y2="57.25"/>
        <line class="cls-2" x1="38.54" y1="57.43" x2="39.96" y2="57.43"/>
        <line class="cls-2" x1="38.54" y1="57.61" x2="39.96" y2="57.61"/>
        <line class="cls-2" x1="38.54" y1="57.79" x2="39.96" y2="57.79"/>
        <line class="cls-2" x1="38.54" y1="57.98" x2="39.96" y2="57.98"/>
        <line class="cls-2" x1="38.54" y1="58.16" x2="39.96" y2="58.16"/>
        <line class="cls-2" x1="38.54" y1="58.34" x2="39.96" y2="58.34"/>
        <line class="cls-2" x1="38.54" y1="58.52" x2="39.96" y2="58.52"/>
        <line class="cls-2" x1="38.54" y1="58.7" x2="39.96" y2="58.7"/>
        <line class="cls-2" x1="38.54" y1="58.88" x2="39.96" y2="58.88"/>
        <line class="cls-2" x1="38.54" y1="59.06" x2="39.96" y2="59.06"/>
        <line class="cls-2" x1="38.54" y1="59.25" x2="39.96" y2="59.25"/>
        <line class="cls-2" x1="38.54" y1="59.43" x2="39.96" y2="59.43"/>
        <line class="cls-2" x1="38.54" y1="59.61" x2="39.96" y2="59.61"/>
        <line class="cls-2" x1="38.54" y1="59.79" x2="39.96" y2="59.79"/>
        <line class="cls-2" x1="38.54" y1="59.97" x2="39.96" y2="59.97"/>
        <line class="cls-2" x1="38.54" y1="60.15" x2="39.96" y2="60.15"/>
        <line class="cls-2" x1="38.54" y1="60.33" x2="39.96" y2="60.33"/>
        <line class="cls-2" x1="38.54" y1="60.52" x2="39.96" y2="60.52"/>
      </g>
      <g>
        <line class="cls-2" x1="32.92" y1="53.04" x2="34.34" y2="53.04"/>
        <line class="cls-2" x1="32.92" y1="53.22" x2="34.34" y2="53.22"/>
        <line class="cls-2" x1="32.92" y1="53.41" x2="34.34" y2="53.41"/>
        <line class="cls-2" x1="32.92" y1="53.59" x2="34.34" y2="53.59"/>
        <line class="cls-2" x1="32.92" y1="53.77" x2="34.34" y2="53.77"/>
        <line class="cls-2" x1="32.92" y1="53.95" x2="34.34" y2="53.95"/>
        <line class="cls-2" x1="32.92" y1="54.13" x2="34.34" y2="54.13"/>
        <line class="cls-2" x1="32.92" y1="54.31" x2="34.34" y2="54.31"/>
        <line class="cls-2" x1="32.92" y1="54.49" x2="34.34" y2="54.49"/>
        <line class="cls-2" x1="32.92" y1="54.67" x2="34.34" y2="54.67"/>
        <line class="cls-2" x1="32.92" y1="54.86" x2="34.34" y2="54.86"/>
        <line class="cls-2" x1="32.92" y1="55.04" x2="34.34" y2="55.04"/>
        <line class="cls-2" x1="32.92" y1="55.22" x2="34.34" y2="55.22"/>
        <line class="cls-2" x1="32.92" y1="55.4" x2="34.34" y2="55.4"/>
        <line class="cls-2" x1="32.92" y1="55.58" x2="34.34" y2="55.58"/>
        <line class="cls-2" x1="32.92" y1="55.76" x2="34.34" y2="55.76"/>
        <line class="cls-2" x1="32.92" y1="55.94" x2="34.34" y2="55.94"/>
        <line class="cls-2" x1="32.92" y1="56.13" x2="34.34" y2="56.13"/>
        <line class="cls-2" x1="32.92" y1="56.31" x2="34.34" y2="56.31"/>
        <line class="cls-2" x1="32.92" y1="56.49" x2="34.34" y2="56.49"/>
      </g>
      <g>
        <line class="cls-2" x1="32.92" y1="57.07" x2="34.34" y2="57.07"/>
        <line class="cls-2" x1="32.92" y1="57.25" x2="34.34" y2="57.25"/>
        <line class="cls-2" x1="32.92" y1="57.43" x2="34.34" y2="57.43"/>
        <line class="cls-2" x1="32.92" y1="57.61" x2="34.34" y2="57.61"/>
        <line class="cls-2" x1="32.92" y1="57.79" x2="34.34" y2="57.79"/>
        <line class="cls-2" x1="32.92" y1="57.98" x2="34.34" y2="57.98"/>
        <line class="cls-2" x1="32.92" y1="58.16" x2="34.34" y2="58.16"/>
        <line class="cls-2" x1="32.92" y1="58.34" x2="34.34" y2="58.34"/>
        <line class="cls-2" x1="32.92" y1="58.52" x2="34.34" y2="58.52"/>
        <line class="cls-2" x1="32.92" y1="58.7" x2="34.34" y2="58.7"/>
        <line class="cls-2" x1="32.92" y1="58.88" x2="34.34" y2="58.88"/>
        <line class="cls-2" x1="32.92" y1="59.06" x2="34.34" y2="59.06"/>
        <line class="cls-2" x1="32.92" y1="59.25" x2="34.34" y2="59.25"/>
        <line class="cls-2" x1="32.92" y1="59.43" x2="34.34" y2="59.43"/>
        <line class="cls-2" x1="32.92" y1="59.61" x2="34.34" y2="59.61"/>
        <line class="cls-2" x1="32.92" y1="59.79" x2="34.34" y2="59.79"/>
        <line class="cls-2" x1="32.92" y1="59.97" x2="34.34" y2="59.97"/>
        <line class="cls-2" x1="32.92" y1="60.15" x2="34.34" y2="60.15"/>
        <line class="cls-2" x1="32.92" y1="60.33" x2="34.34" y2="60.33"/>
        <line class="cls-2" x1="32.92" y1="60.52" x2="34.34" y2="60.52"/>
      </g>
    </g>
    <g>
      <rect class="cls-2" x="61.08" y="52.65" width="3.84" height="8.33"/>
      <rect class="cls-2" x="61.26" y="52.85" width="3.48" height="8.12"/>
      <rect class="cls-2" x="61.42" y="53.1" width="1.6" height="7.64"/>
      <rect class="cls-2" x="63.01" y="53.1" width="1.6" height="7.64"/>
      <g>
        <g>
          <rect class="cls-2" x="61.64" y="53.27" width="1.14" height="1.47"/>
          <rect class="cls-2" x="61.64" y="54.92" width="1.14" height="1.47"/>
          <rect class="cls-2" x="61.64" y="56.58" width="1.14" height="1.47"/>
          <rect class="cls-2" x="61.64" y="59.04" width="1.14" height=".78"/>
          <rect class="cls-2" x="61.64" y="58.24" width="1.14" height=".69"/>
        </g>
        <g>
          <rect class="cls-2" x="63.24" y="53.27" width="1.14" height="1.47"/>
          <rect class="cls-2" x="63.24" y="54.92" width="1.14" height="1.47"/>
          <rect class="cls-2" x="63.24" y="56.58" width="1.14" height="1.47"/>
          <rect class="cls-2" x="63.24" y="58.24" width="1.14" height=".69"/>
          <rect class="cls-2" x="63.24" y="59.04" width="1.14" height=".78"/>
        </g>
      </g>
      <rect class="cls-2" x="61.42" y="58.93" width="3.19" height=".11"/>
      <rect class="cls-2" x="61.71" y="59.32" width="2.61" height="1.14"/>
      <line class="cls-2" x1="61.42" y1="59.04" x2="61.7" y2="59.32"/>
      <line class="cls-2" x1="61.42" y1="60.74" x2="61.7" y2="60.45"/>
      <line class="cls-2" x1="64.32" y1="59.32" x2="64.6" y2="59.03"/>
      <line class="cls-2" x1="64.32" y1="60.46" x2="64.6" y2="60.74"/>
      <circle class="cls-2" cx="63.01" cy="59.86" r=".31"/>
      <path class="cls-2" d="M62.03,60.25s-.06-.03-.06-.07.03-.09.1-.09c.06,0,.11.06.11.13,0,.11-.1.18-.23.18s-.24-.11-.24-.24.11-.24.24-.24c.12,0,.17.09.22.09.06,0,.27,0,.31,0,.06,0,.11-.02.16-.02s.1.04.1.1-.04.1-.09.1c-.04,0-.08-.02-.08-.07,0-.04.03-.05.05-.05"/>
      <path class="cls-2" d="M62.03,59.52s-.06.03-.06.07.03.09.1.09c.06,0,.11-.06.11-.13,0-.11-.1-.18-.23-.18s-.24.11-.24.24.11.24.24.24c.12,0,.17-.09.22-.09.06,0,.27,0,.31,0,.06,0,.11.02.16.02s.1-.04.1-.1-.04-.1-.09-.1c-.04,0-.08.02-.08.07,0,.04.03.05.05.05"/>
      <path class="cls-2" d="M63.97,60.25s.06-.03.06-.07-.03-.09-.1-.09c-.06,0-.11.06-.11.13,0,.11.1.18.23.18s.24-.11.24-.24-.11-.24-.24-.24c-.12,0-.17.09-.22.09-.06,0-.27,0-.31,0-.06,0-.11-.02-.16-.02s-.1.04-.1.1.04.1.09.1c.04,0,.08-.02.08-.07,0-.04-.03-.05-.05-.05"/>
      <path class="cls-2" d="M63.97,59.52s.06.03.06.07-.03.09-.1.09c-.06,0-.11-.06-.11-.13,0-.11.1-.18.23-.18s.24.11.24.24-.11.24-.24.24c-.12,0-.17-.09-.22-.09-.06,0-.27,0-.31,0-.06,0-.11.02-.16.02s-.1-.04-.1-.1.04-.1.09-.1c.04,0,.08.02.08.07,0,.04-.03.05-.05.05"/>
      <rect class="cls-2" x="64.92" y="52.7" width="1.79" height="8.17"/>
      <rect class="cls-2" x="65.1" y="52.89" width="1.42" height="3.74"/>
      <rect class="cls-2" x="65.1" y="56.91" width="1.42" height="3.74"/>
      <rect class="cls-2" x="59.29" y="52.7" width="1.79" height="8.17"/>
      <rect class="cls-2" x="59.48" y="52.89" width="1.42" height="3.74"/>
      <rect class="cls-2" x="59.48" y="56.91" width="1.42" height="3.74"/>
      <g>
        <line class="cls-2" x1="59.48" y1="53.04" x2="60.9" y2="53.04"/>
        <line class="cls-2" x1="59.48" y1="53.22" x2="60.9" y2="53.22"/>
        <line class="cls-2" x1="59.48" y1="53.41" x2="60.9" y2="53.41"/>
        <line class="cls-2" x1="59.48" y1="53.59" x2="60.9" y2="53.59"/>
        <line class="cls-2" x1="59.48" y1="53.77" x2="60.9" y2="53.77"/>
        <line class="cls-2" x1="59.48" y1="53.95" x2="60.9" y2="53.95"/>
        <line class="cls-2" x1="59.48" y1="54.13" x2="60.9" y2="54.13"/>
        <line class="cls-2" x1="59.48" y1="54.31" x2="60.9" y2="54.31"/>
        <line class="cls-2" x1="59.48" y1="54.49" x2="60.9" y2="54.49"/>
        <line class="cls-2" x1="59.48" y1="54.67" x2="60.9" y2="54.67"/>
        <line class="cls-2" x1="59.48" y1="54.86" x2="60.9" y2="54.86"/>
        <line class="cls-2" x1="59.48" y1="55.04" x2="60.9" y2="55.04"/>
        <line class="cls-2" x1="59.48" y1="55.22" x2="60.9" y2="55.22"/>
        <line class="cls-2" x1="59.48" y1="55.4" x2="60.9" y2="55.4"/>
        <line class="cls-2" x1="59.48" y1="55.58" x2="60.9" y2="55.58"/>
        <line class="cls-2" x1="59.48" y1="55.76" x2="60.9" y2="55.76"/>
        <line class="cls-2" x1="59.48" y1="55.94" x2="60.9" y2="55.94"/>
        <line class="cls-2" x1="59.48" y1="56.13" x2="60.9" y2="56.13"/>
        <line class="cls-2" x1="59.48" y1="56.31" x2="60.9" y2="56.31"/>
        <line class="cls-2" x1="59.48" y1="56.49" x2="60.9" y2="56.49"/>
      </g>
      <g>
        <line class="cls-2" x1="59.48" y1="57.07" x2="60.9" y2="57.07"/>
        <line class="cls-2" x1="59.48" y1="57.25" x2="60.9" y2="57.25"/>
        <line class="cls-2" x1="59.48" y1="57.43" x2="60.9" y2="57.43"/>
        <line class="cls-2" x1="59.48" y1="57.61" x2="60.9" y2="57.61"/>
        <line class="cls-2" x1="59.48" y1="57.79" x2="60.9" y2="57.79"/>
        <line class="cls-2" x1="59.48" y1="57.98" x2="60.9" y2="57.98"/>
        <line class="cls-2" x1="59.48" y1="58.16" x2="60.9" y2="58.16"/>
        <line class="cls-2" x1="59.48" y1="58.34" x2="60.9" y2="58.34"/>
        <line class="cls-2" x1="59.48" y1="58.52" x2="60.9" y2="58.52"/>
        <line class="cls-2" x1="59.48" y1="58.7" x2="60.9" y2="58.7"/>
        <line class="cls-2" x1="59.48" y1="58.88" x2="60.9" y2="58.88"/>
        <line class="cls-2" x1="59.48" y1="59.06" x2="60.9" y2="59.06"/>
        <line class="cls-2" x1="59.48" y1="59.25" x2="60.9" y2="59.25"/>
        <line class="cls-2" x1="59.48" y1="59.43" x2="60.9" y2="59.43"/>
        <line class="cls-2" x1="59.48" y1="59.61" x2="60.9" y2="59.61"/>
        <line class="cls-2" x1="59.48" y1="59.79" x2="60.9" y2="59.79"/>
        <line class="cls-2" x1="59.48" y1="59.97" x2="60.9" y2="59.97"/>
        <line class="cls-2" x1="59.48" y1="60.15" x2="60.9" y2="60.15"/>
        <line class="cls-2" x1="59.48" y1="60.33" x2="60.9" y2="60.33"/>
        <line class="cls-2" x1="59.48" y1="60.52" x2="60.9" y2="60.52"/>
      </g>
      <g>
        <line class="cls-2" x1="65.1" y1="53.04" x2="66.52" y2="53.04"/>
        <line class="cls-2" x1="65.1" y1="53.22" x2="66.52" y2="53.22"/>
        <line class="cls-2" x1="65.1" y1="53.41" x2="66.52" y2="53.41"/>
        <line class="cls-2" x1="65.1" y1="53.59" x2="66.52" y2="53.59"/>
        <line class="cls-2" x1="65.1" y1="53.77" x2="66.52" y2="53.77"/>
        <line class="cls-2" x1="65.1" y1="53.95" x2="66.52" y2="53.95"/>
        <line class="cls-2" x1="65.1" y1="54.13" x2="66.52" y2="54.13"/>
        <line class="cls-2" x1="65.1" y1="54.31" x2="66.52" y2="54.31"/>
        <line class="cls-2" x1="65.1" y1="54.49" x2="66.52" y2="54.49"/>
        <line class="cls-2" x1="65.1" y1="54.67" x2="66.52" y2="54.67"/>
        <line class="cls-2" x1="65.1" y1="54.86" x2="66.52" y2="54.86"/>
        <line class="cls-2" x1="65.1" y1="55.04" x2="66.52" y2="55.04"/>
        <line class="cls-2" x1="65.1" y1="55.22" x2="66.52" y2="55.22"/>
        <line class="cls-2" x1="65.1" y1="55.4" x2="66.52" y2="55.4"/>
        <line class="cls-2" x1="65.1" y1="55.58" x2="66.52" y2="55.58"/>
        <line class="cls-2" x1="65.1" y1="55.76" x2="66.52" y2="55.76"/>
        <line class="cls-2" x1="65.1" y1="55.94" x2="66.52" y2="55.94"/>
        <line class="cls-2" x1="65.1" y1="56.13" x2="66.52" y2="56.13"/>
        <line class="cls-2" x1="65.1" y1="56.31" x2="66.52" y2="56.31"/>
        <line class="cls-2" x1="65.1" y1="56.49" x2="66.52" y2="56.49"/>
      </g>
      <g>
        <line class="cls-2" x1="65.1" y1="57.07" x2="66.52" y2="57.07"/>
        <line class="cls-2" x1="65.1" y1="57.25" x2="66.52" y2="57.25"/>
        <line class="cls-2" x1="65.1" y1="57.43" x2="66.52" y2="57.43"/>
        <line class="cls-2" x1="65.1" y1="57.61" x2="66.52" y2="57.61"/>
        <line class="cls-2" x1="65.1" y1="57.79" x2="66.52" y2="57.79"/>
        <line class="cls-2" x1="65.1" y1="57.98" x2="66.52" y2="57.98"/>
        <line class="cls-2" x1="65.1" y1="58.16" x2="66.52" y2="58.16"/>
        <line class="cls-2" x1="65.1" y1="58.34" x2="66.52" y2="58.34"/>
        <line class="cls-2" x1="65.1" y1="58.52" x2="66.52" y2="58.52"/>
        <line class="cls-2" x1="65.1" y1="58.7" x2="66.52" y2="58.7"/>
        <line class="cls-2" x1="65.1" y1="58.88" x2="66.52" y2="58.88"/>
        <line class="cls-2" x1="65.1" y1="59.06" x2="66.52" y2="59.06"/>
        <line class="cls-2" x1="65.1" y1="59.25" x2="66.52" y2="59.25"/>
        <line class="cls-2" x1="65.1" y1="59.43" x2="66.52" y2="59.43"/>
        <line class="cls-2" x1="65.1" y1="59.61" x2="66.52" y2="59.61"/>
        <line class="cls-2" x1="65.1" y1="59.79" x2="66.52" y2="59.79"/>
        <line class="cls-2" x1="65.1" y1="59.97" x2="66.52" y2="59.97"/>
        <line class="cls-2" x1="65.1" y1="60.15" x2="66.52" y2="60.15"/>
        <line class="cls-2" x1="65.1" y1="60.33" x2="66.52" y2="60.33"/>
        <line class="cls-2" x1="65.1" y1="60.52" x2="66.52" y2="60.52"/>
      </g>
    </g>
    <g>
      <path class="cls-2" d="M41.35,39.8h-2.4v-3.58c.8-.34,1.6-.34,2.4,0v3.58Z"/>
      <rect class="cls-2" x="38.55" y="39.8" width="3.03" height=".14"/>
      <rect class="cls-2" x="38.7" y="40.16" width="2.73" height=".1"/>
      <rect class="cls-2" x="39.03" y="36.54" width="2.25" height="3.26"/>
      <rect class="cls-2" x="39.2" y="36.73" width=".82" height="2.99"/>
      <rect class="cls-2" x="40.28" y="36.73" width=".82" height="2.99"/>
    </g>
    <polyline class="cls-2" points="37.32 36.23 37.32 41.57 42.73 41.57 42.78 36.36"/>
    <rect class="cls-2" x="31.77" y="41.57" width="40.84" height=".46"/>
    <polygon class="cls-2" points="37.32 36.37 40.08 34.87 42.78 36.44 42.78 36.27 40.08 34.73 37.32 36.23 37.32 36.37"/>
    <g>
      <path class="cls-2" d="M55.32,39.8h-2.4v-3.58c.8-.34,1.6-.34,2.4,0v3.58Z"/>
      <rect class="cls-2" x="52.52" y="39.8" width="3.03" height=".14"/>
      <rect class="cls-2" x="52.67" y="40.16" width="2.73" height=".1"/>
      <rect class="cls-2" x="52.99" y="36.54" width="2.25" height="3.26"/>
      <rect class="cls-2" x="53.16" y="36.73" width=".82" height="2.99"/>
      <rect class="cls-2" x="54.25" y="36.73" width=".82" height="2.99"/>
    </g>
    <polyline class="cls-2" points="51.55 36.23 51.55 41.57 56.7 41.57 56.74 36.36"/>
    <polygon class="cls-2" points="51.55 36.3 54.04 34.87 56.74 36.44 56.74 36.27 54.05 34.73 51.55 36.16 51.55 36.3"/>
    <g>
      <path class="cls-2" d="M63.91,39.8h-2.4v-3.58c.8-.34,1.6-.34,2.4,0v3.58Z"/>
      <rect class="cls-2" x="61.11" y="39.8" width="3.03" height=".14"/>
      <rect class="cls-2" x="61.26" y="40.16" width="2.73" height=".1"/>
      <rect class="cls-2" x="61.59" y="36.54" width="2.25" height="3.26"/>
      <rect class="cls-2" x="61.76" y="36.73" width=".82" height="2.99"/>
      <rect class="cls-2" x="62.84" y="36.73" width=".82" height="2.99"/>
    </g>
    <polyline class="cls-2" points="60.14 36.23 60.14 41.57 65.29 41.57 65.34 36.36"/>
    <polygon class="cls-2" points="60.14 36.3 62.64 34.87 65.34 36.44 65.34 36.27 62.64 34.73 60.14 36.16 60.14 36.3"/>
    <rect class="cls-2" x="47.22" y="34.12" width="2.99" height="5.67"/>
    <rect class="cls-2" x="47.05" y="33.82" width="3.3" height=".31"/>
    <path class="cls-2" d="M48.09,33.82h-.45v-.54c0-.06.45-.06.45,0v.54Z"/>
    <path class="cls-2" d="M49.9,33.82h-.45v-.54c0-.06.45-.06.45,0v.54Z"/>
    <line class="cls-2" x1="32.2" y1="41.57" x2="37.32" y2="36.73"/>
    <line class="cls-2" x1="42.78" y1="36.54" x2="47.22" y2="36.54"/>
    <line class="cls-2" x1="50.21" y1="36.54" x2="51.55" y2="36.54"/>
    <line class="cls-2" x1="56.74" y1="36.54" x2="60.14" y2="36.54"/>
    <line class="cls-2" x1="65.33" y1="36.63" x2="72.31" y2="41.57"/>
  </g>
  <g>
    <g>
      <path class="cls-1" d="M11.46,43.57c.06-.15.13-.36.23-.62.09-.26.18-.52.27-.78.1-.3.19-.59.28-.87.09-.28.15-.48.19-.6.28-.86.67-1.45,1.15-1.76.48-.32.99-.38,1.53-.21.22.07.44.19.66.36.22.17.39.39.53.67.14.28.21.62.22,1.02.01.4-.07.88-.25,1.42l-.31.95-.19-.06.28-.85c.12-.37.13-.67.02-.91s-.28-.45-.53-.61c-.25-.16-.53-.29-.85-.4-.59-.19-1.06-.25-1.4-.18-.35.08-.59.33-.73.75-.08.24-.08.42,0,.52.08.11.28.21.6.32l4.55,1.5c.24.08.43.11.56.1.13,0,.24-.08.33-.21.08-.13.18-.33.27-.61l.2.07c-.07.19-.16.44-.26.74-.11.3-.21.62-.33.95-.09.27-.17.53-.25.78-.08.26-.15.49-.21.69l-.19-.06c.05-.2.08-.36.07-.47,0-.11-.06-.2-.16-.27-.1-.07-.26-.14-.48-.22l-4.6-1.52c-.23-.08-.4-.11-.52-.12-.12,0-.22.04-.29.13s-.15.23-.22.42l-.19-.06Z"/>
      <path class="cls-1" d="M21.34,37.57c-.15.25-.32.44-.51.55-.19.11-.39.17-.6.15-.21-.01-.41-.08-.6-.19-.24-.14-.41-.31-.5-.51-.09-.2-.13-.41-.13-.64,0-.23.03-.46.08-.69.05-.23.1-.45.14-.67s.06-.4.04-.55c-.02-.16-.09-.27-.22-.35l-.66-.38c-.15-.08-.29-.14-.44-.15-.14-.02-.28,0-.39.07-.12.06-.22.17-.31.33-.06.11-.11.24-.15.37-.03.13-.03.25,0,.37.15-.12.3-.2.47-.22.17-.02.32,0,.47.09.19.11.31.26.34.46.04.2,0,.39-.1.57-.12.2-.27.32-.46.35s-.37,0-.55-.11c-.16-.09-.28-.21-.34-.36s-.1-.32-.11-.52c0-.21.04-.44.12-.69.08-.25.19-.51.34-.77.15-.26.31-.48.48-.66s.37-.3.59-.36c.2-.06.41-.05.62.02s.46.19.75.35l2.31,1.32c.14.08.25.12.32.12.07,0,.12-.03.16-.1.03-.05.04-.11.04-.17s0-.14-.01-.21h.19c.03.17.03.36,0,.54-.04.19-.11.38-.22.57-.12.21-.25.36-.38.45-.13.09-.26.13-.39.13-.13,0-.27-.05-.4-.12.14.26.21.52.22.78.01.26-.06.53-.22.81ZM21.15,36.66c.07-.11.1-.23.1-.36s-.04-.26-.11-.42l-1.74-1c.06.1.09.21.11.34.02.13.03.26.04.41.01.14.03.28.07.43.03.14.09.28.18.4s.23.24.4.34c.22.13.41.17.57.14.16-.04.29-.13.38-.29Z"/>
      <path class="cls-1" d="M20.17,27.39l1.24,1.01.73-.89.15.12-.73.89,3.06,2.5c.15.12.28.18.39.18s.21-.06.3-.17c.07-.09.11-.21.12-.36,0-.15-.05-.32-.15-.53l.17-.07c.16.27.25.54.26.83.01.28-.1.57-.33.85-.14.17-.28.3-.42.39-.15.09-.3.14-.45.16-.2.02-.4-.02-.59-.12-.19-.1-.42-.25-.68-.47l-2.56-2.09-.52.64-.15-.12.52-.64-1-.82c.17-.21.31-.42.42-.63s.18-.43.23-.66Z"/>
      <path class="cls-1" d="M27.57,22.27l2.67,3.11c.19.22.37.36.53.4.16.05.33,0,.51-.16l.13.16c-.17.12-.33.24-.48.37-.21.18-.39.35-.56.52-.17.17-.31.34-.43.51l-.57-.67c.09.35.08.67-.04.95-.12.29-.31.54-.56.76-.21.18-.4.3-.57.35-.18.06-.34.07-.48.05-.16-.02-.33-.09-.5-.22-.17-.12-.35-.31-.56-.55l-1.61-1.88c-.19-.22-.37-.36-.52-.41s-.33,0-.51.16l-.13-.16c.17-.12.33-.25.48-.37.21-.18.39-.35.56-.53.17-.17.31-.34.43-.51l2.64,3.07c.11.12.21.22.31.3.1.07.21.11.32.11.11,0,.23-.06.35-.17.13-.11.22-.25.26-.42.04-.17.04-.34,0-.53s-.14-.36-.28-.53l-1.67-1.94c-.19-.22-.37-.36-.52-.41s-.33,0-.51.16l-.13-.16c.17-.12.33-.25.48-.37.21-.18.39-.35.56-.53.17-.17.31-.34.43-.51Z"/>
      <path class="cls-1" d="M33.36,18.57c.18-.1.35-.15.51-.14.16.01.3.06.42.15.12.09.22.2.29.33.12.21.16.42.11.62-.05.2-.17.36-.37.47s-.38.15-.55.12c-.17-.04-.3-.14-.39-.3-.09-.16-.13-.31-.12-.46.01-.15.05-.29.12-.42-.09.02-.17.07-.23.14-.1.08-.17.18-.23.31-.06.13-.09.26-.1.4,0,.14,0,.29.03.43.03.14.08.27.14.39l1.28,2.25c.15.27.33.42.51.44.19.02.42-.04.68-.2l.1.18c-.13.07-.33.17-.58.3-.25.13-.52.28-.79.43-.23.13-.45.26-.68.4s-.4.25-.51.32l-.1-.18c.2-.11.31-.23.35-.37.03-.13-.02-.32-.15-.55l-1.52-2.68c-.15-.26-.29-.42-.44-.5-.15-.08-.32-.06-.53.06l-.1-.18c.19-.09.37-.18.54-.27.24-.14.46-.27.65-.41s.37-.28.52-.42l.45.79c-.02-.19,0-.38.04-.57.04-.19.12-.36.22-.52.11-.16.25-.28.43-.39Z"/>
      <path class="cls-1" d="M38.85,16.21c.54-.19,1.02-.18,1.44.03s.76.68,1.02,1.4l-3.03,1.08-.08-.17,1.89-.67c-.1-.3-.22-.58-.35-.81-.13-.24-.27-.42-.42-.54-.15-.12-.3-.15-.45-.1-.22.08-.35.28-.4.6-.05.32.01.8.21,1.44l.05.04c.02.08.04.15.07.24.02.08.05.17.08.25.15.42.33.75.55.97s.43.36.66.41c.23.05.44.05.63-.02.13-.05.25-.11.38-.2.12-.09.24-.21.34-.37.1-.16.18-.36.23-.6h.19c0,.26-.03.52-.11.8-.08.28-.22.53-.41.76s-.47.4-.81.53c-.42.15-.82.19-1.2.13s-.73-.25-1.04-.54c-.31-.3-.56-.73-.76-1.29-.2-.57-.28-1.08-.22-1.53.06-.45.22-.83.5-1.14s.63-.54,1.07-.7Z"/>
      <path class="cls-1" d="M44.91,12.12l1.23,6.63c.05.27.13.44.24.52.11.08.28.1.5.06l.04.2c-.12.02-.31.04-.55.08s-.49.08-.74.12c-.25.05-.5.1-.75.15-.25.06-.44.1-.57.13l-.04-.2c.22-.04.37-.12.45-.23s.09-.3.04-.57l-1.01-5.48c-.05-.29-.14-.49-.25-.62-.11-.12-.29-.16-.52-.12l-.04-.2c.21-.02.41-.05.6-.08.26-.05.51-.11.74-.17.23-.07.44-.14.63-.22Z"/>
      <path class="cls-1" d="M57.42,19.56l.93-4.4.4.08,2.01,4.34.79-3.75.4.08-.93,4.4-.4-.08-2.01-4.35-.79,3.76-.4-.08Z"/>
      <path class="cls-1" d="M65.37,21.94c-.39-.16-.7-.4-.93-.71s-.36-.66-.4-1.06c-.04-.4.03-.8.21-1.22.18-.42.42-.76.72-1.01.3-.25.64-.41,1.02-.46.37-.06.76,0,1.15.16s.7.4.92.71c.22.31.35.66.39,1.05s-.04.8-.21,1.22c-.17.42-.41.76-.72,1.01-.3.25-.64.41-1.01.47-.37.06-.75,0-1.14-.16ZM65.51,21.59c.31.13.62.17.92.11s.58-.19.83-.4c.25-.21.45-.5.59-.85.15-.35.21-.69.18-1.02-.03-.33-.13-.62-.3-.88-.18-.25-.42-.45-.74-.58-.31-.13-.62-.17-.93-.12s-.59.19-.84.4-.45.5-.6.85c-.15.35-.21.69-.18,1.02s.13.62.31.88c.18.26.43.45.75.58Z"/>
      <path class="cls-1" d="M70.28,24.37l2.19-3.5-1.24-.78.2-.32,2.83,1.77-.2.32-1.24-.78-2.19,3.5-.35-.22Z"/>
      <path class="cls-1" d="M72.9,26.08l4.32-2.24.32.27-1.49,4.63-.33-.28.46-1.43-1.61-1.36-1.34.7-.33-.28ZM74.92,25.48l1.38,1.17.74-2.27-2.12,1.1Z"/>
      <path class="cls-1" d="M77.62,30.44l3.33-3.03.28.3-3.33,3.03-.28-.3Z"/>
      <path class="cls-1" d="M79.75,32.94l3.68-2.58.79,1.13c.16.23.26.47.29.71.03.24,0,.47-.09.69-.09.21-.25.4-.46.55-.24.17-.5.25-.78.23-.28-.02-.54-.11-.78-.29l-.93,2.03-.26-.37.89-1.94s-.04-.05-.06-.07c-.02-.02-.04-.05-.05-.07l-.51-.73-1.5,1.06-.24-.34ZM81.8,32l.62.88c.1.14.22.24.37.31s.3.09.47.08c.17-.01.33-.07.48-.18.23-.16.36-.38.4-.64s-.04-.52-.21-.77l-.56-.79-1.56,1.1Z"/>
      <path class="cls-1" d="M82.74,37.6l4.04-1.98,1.14,2.33-.33.16-.96-1.96-1.45.71.89,1.82-.33.16-.89-1.82-1.58.77.96,1.96-.33.16-1.14-2.33Z"/>
      <path class="cls-1" d="M85.24,43.86c-.07-.24-.11-.46-.12-.66,0-.2.02-.38.07-.54.05-.16.12-.3.2-.42.08-.12.18-.22.29-.3l.25.33c-.17.13-.3.32-.38.57-.08.25-.08.52.01.82.12.38.28.65.49.81.21.16.43.21.67.14.23-.07.38-.22.46-.46.08-.23.11-.52.09-.85l-.02-.47c0-.2,0-.4.05-.59.04-.19.12-.36.23-.5.11-.14.27-.25.48-.31.39-.12.72-.09,1.01.09.29.18.51.5.65.98.09.28.11.54.08.78-.03.23-.1.44-.2.6s-.22.29-.35.38l-.25-.32c.2-.16.33-.36.39-.6.06-.24.05-.5-.04-.79-.09-.3-.24-.52-.44-.65s-.43-.16-.68-.08c-.23.07-.37.19-.44.36-.07.17-.1.38-.09.62l.03.47c.03.46-.03.85-.18,1.15-.15.3-.36.49-.61.57-.22.07-.43.07-.65.02s-.41-.17-.59-.36-.32-.45-.42-.78Z"/>
    </g>
    <g>
      <path class="cls-1" d="M13.53,64.3c-.04-.14-.05-.27-.05-.39,0-.12.04-.23.08-.33.04-.1.1-.18.16-.25l.24.23s-.06.09-.09.15c-.03.06-.06.13-.07.2-.01.08,0,.17.03.27.05.18.15.31.28.39.14.08.28.1.44.05.12-.03.21-.1.27-.19.06-.09.1-.2.11-.34,0-.13-.01-.29-.06-.46l-.02-.08.29-.08.02.08c.07.23.16.4.28.51.12.11.25.15.4.1.08-.02.15-.07.2-.13.06-.06.09-.14.11-.23.02-.09.01-.19-.02-.3-.02-.07-.05-.14-.09-.19-.04-.06-.08-.11-.14-.15-.05-.04-.12-.07-.19-.1l.07-.31c.1.03.19.07.27.13.08.06.16.14.22.23.06.09.11.2.15.32.05.16.06.32.03.47s-.08.27-.17.38c-.09.11-.2.18-.34.22-.14.04-.27.04-.4-.01-.13-.05-.24-.14-.34-.26-.02.18-.08.33-.18.46-.09.13-.23.22-.4.27-.16.05-.32.05-.47,0-.15-.05-.28-.13-.38-.25-.11-.12-.19-.26-.24-.43Z"/>
      <path class="cls-1" d="M14.42,66.87l2.71-1.06.35.88c.07.18.09.35.07.51-.02.16-.08.31-.18.44-.1.13-.23.22-.4.29-.17.06-.33.09-.48.07-.16-.02-.3-.08-.42-.17-.12-.09-.21-.22-.28-.38l-.25-.64-1,.39-.13-.33ZM15.85,66.69l.25.64c.06.14.15.24.29.29.14.05.29.04.46-.02.17-.07.28-.17.34-.32.06-.15.06-.31,0-.48l-.22-.55-1.12.44Z"/>
      <path class="cls-1" d="M15.34,69.12l2.66-1.18.14.3-2.66,1.18-.14-.3Z"/>
      <path class="cls-1" d="M15.99,70.64c-.11-.22-.14-.42-.1-.59.04-.17.15-.3.33-.39.19-.09.36-.1.53-.03.16.08.3.23.41.45l.26.52c.17-.1.28-.21.33-.33s.04-.25-.03-.4c-.05-.1-.11-.18-.19-.23s-.17-.08-.29-.08l-.03-.32c.11,0,.21.02.31.06s.18.09.26.16c.08.07.15.17.2.28.09.17.12.33.11.48s-.07.28-.18.4-.26.23-.45.33l-1.01.5-.14-.28.24-.14c-.12,0-.23-.05-.33-.11s-.18-.16-.24-.29ZM16.26,70.53c.05.11.12.19.21.25s.18.09.29.09c.11,0,.22-.03.34-.09l.07-.04-.23-.46c-.09-.17-.18-.28-.27-.33-.09-.05-.19-.04-.3.01-.1.05-.16.12-.18.22s0,.21.07.34Z"/>
      <path class="cls-1" d="M17.17,72.86c-.1-.18-.15-.36-.15-.54,0-.18.05-.35.15-.51.1-.16.24-.29.43-.39.19-.11.37-.16.56-.17s.36.04.52.13c.16.09.29.23.39.4.1.17.15.35.15.53,0,.18-.05.35-.16.51l-.27-.2c.07-.1.1-.22.11-.34,0-.12-.03-.24-.1-.36-.07-.12-.16-.21-.27-.26-.11-.06-.23-.08-.36-.08-.13,0-.26.05-.4.12s-.24.17-.31.28c-.07.11-.11.23-.12.35,0,.13.03.25.09.37.07.12.16.21.27.27.11.06.24.08.37.07l.03.33c-.2.02-.38-.02-.54-.11-.16-.09-.3-.22-.4-.4Z"/>
      <path class="cls-1" d="M18.41,74.88c-.11-.17-.17-.34-.18-.53s.03-.35.12-.52c.09-.16.22-.3.4-.42.18-.12.36-.18.55-.2.18-.02.36.01.52.09.16.08.3.2.41.37.11.16.16.33.15.5,0,.17-.06.34-.16.49s-.25.3-.45.43l-.89-1.37c-.18.14-.29.29-.33.47s0,.35.11.52c.08.12.18.21.29.26.11.05.23.06.36.05l.03.32c-.12.01-.24,0-.35-.02-.12-.03-.22-.08-.33-.16s-.19-.17-.27-.29ZM19.14,73.61l.68,1.05c.09-.07.16-.15.21-.25.04-.09.06-.19.05-.29,0-.1-.04-.19-.1-.28-.06-.09-.13-.16-.22-.22-.09-.06-.19-.09-.3-.09-.11,0-.22.02-.32.08Z"/>
      <path class="cls-1" d="M19.76,76.77l3.02-.89.23.29-1.54,2.74-.23-.29.44-.78-.82-1.03-.86.25-.23-.29ZM21.17,76.71l.67.84.7-1.25-1.37.41Z"/>
      <path class="cls-1" d="M21.78,79.26l1.54-1.4.21.23-.22.22c.13-.03.26-.02.38.02s.23.11.33.22c.11.12.18.25.22.38.03.13.02.27-.04.42-.06.15-.17.3-.35.45l-.86.79-.22-.25.79-.72c.15-.14.25-.26.3-.37.05-.11.06-.21.03-.29-.03-.09-.08-.17-.15-.25-.12-.14-.27-.2-.43-.18s-.33.1-.51.26l-.8.73-.22-.25Z"/>
      <path class="cls-1" d="M23.99,81.65c-.13-.13-.22-.28-.26-.44-.04-.16-.03-.33.03-.51.06-.17.16-.34.31-.49.15-.15.31-.26.48-.33.17-.06.34-.08.5-.05.17.03.32.11.45.24.11.11.18.23.22.36.04.13.04.27,0,.41l.82-.85.24.23-2.03,2.1-.23-.22.23-.27c-.14.04-.28.04-.42,0-.14-.03-.26-.1-.37-.21ZM24.26,81.49c.09.09.19.14.3.15s.23,0,.35-.04c.12-.05.23-.12.34-.23l.02-.02c.1-.11.17-.23.22-.35.04-.12.05-.24.03-.35-.02-.11-.08-.21-.17-.3-.09-.09-.2-.15-.32-.17s-.24-.01-.37.03c-.12.05-.24.12-.35.23-.11.11-.18.23-.22.35-.04.13-.05.25-.02.37.03.12.09.22.18.31Z"/>
      <path class="cls-1" d="M25.31,82.81l1.37-1.57.25.22-.24.28c.15-.04.29-.04.43,0,.14.04.26.11.37.2l-.21.24c-.09-.08-.19-.14-.3-.18s-.22-.06-.34-.03c-.11.02-.22.09-.33.21l-.75.86-.25-.22Z"/>
      <path class="cls-1" d="M27.13,84.4c-.16-.13-.27-.27-.34-.44-.06-.17-.08-.35-.05-.53.03-.18.12-.36.25-.53.13-.17.28-.29.45-.36.17-.07.34-.1.52-.08.18.02.35.1.5.22.15.12.25.26.31.42.05.16.05.34,0,.52-.05.18-.14.37-.28.55l-1.28-1.01c-.13.19-.18.37-.16.55.02.18.11.33.27.46.12.09.23.14.36.15.12,0,.24-.01.36-.07l.14.29c-.11.05-.22.08-.34.09-.12,0-.24,0-.36-.04-.12-.04-.24-.1-.35-.19ZM27.41,82.95l.98.78c.07-.1.11-.2.12-.3s0-.2-.04-.29c-.04-.09-.1-.17-.18-.24-.08-.07-.18-.11-.28-.13s-.21-.02-.31,0c-.1.03-.2.09-.28.17ZM28.4,82.31l.72-.12.34.27-.75.09-.3-.23Z"/>
      <path class="cls-1" d="M29.32,85.97l1.56-2.46.31.2.06,1.8,1.65-.72.31.19-1.56,2.46-.3-.19,1.26-1.98-1.67.74-.05-1.82-1.25,1.98-.3-.19Z"/>
      <path class="cls-1" d="M32.92,88.19c-.21-.11-.36-.25-.43-.42s-.06-.33.04-.51c.1-.19.24-.3.41-.33.18-.03.38,0,.6.13l.51.27c.08-.18.11-.33.08-.46-.03-.13-.11-.23-.26-.31-.1-.05-.2-.08-.29-.08s-.19.03-.28.1l-.21-.24c.09-.06.19-.1.29-.13s.2-.03.31-.02.21.05.33.11c.17.09.29.2.37.33.08.13.11.27.09.43-.01.16-.07.34-.18.53l-.53.99-.27-.15.12-.25c-.1.06-.21.1-.33.1s-.24-.03-.36-.09ZM33.07,87.94c.11.06.21.08.31.08s.2-.04.28-.1c.09-.06.16-.15.22-.27l.04-.07-.45-.24c-.17-.09-.31-.13-.41-.11-.1.02-.18.08-.24.18-.05.09-.06.19-.01.28s.13.17.25.24Z"/>
      <path class="cls-1" d="M34.31,88.85l1.27-2.63.3.14-1.27,2.63-.3-.14Z"/>
      <path class="cls-1" d="M35.21,89.27l.85-1.9.3.13-.15.34c.13-.09.27-.13.41-.13s.28.03.42.08l-.13.29c-.11-.05-.23-.08-.35-.09-.12,0-.23.01-.33.07-.1.06-.19.15-.25.3l-.46,1.05-.3-.14Z"/>
      <path class="cls-1" d="M37.19,90.16c-.23-.09-.39-.21-.47-.36-.09-.15-.09-.33-.02-.51.08-.2.2-.32.37-.38s.37-.04.61.06l.54.21c.06-.19.07-.34.03-.47-.04-.12-.14-.21-.3-.27-.11-.04-.21-.06-.3-.04-.09.01-.18.06-.27.13l-.24-.22c.08-.07.17-.13.27-.17.1-.04.2-.06.3-.06s.22.03.34.07c.18.07.32.16.41.28.09.12.14.26.14.42s-.03.34-.11.55l-.41,1.05-.29-.11.09-.27c-.09.08-.2.12-.32.14s-.24,0-.37-.05ZM37.31,89.89c.11.04.22.06.32.04s.19-.06.27-.13c.08-.07.14-.17.19-.29l.03-.08-.48-.19c-.18-.07-.32-.09-.42-.06s-.17.1-.21.21c-.04.1-.03.19.02.28.05.09.15.16.28.21Z"/>
      <path class="cls-1" d="M39.39,90.95c-.15-.05-.28-.12-.37-.22-.09-.1-.15-.23-.17-.38-.02-.16,0-.34.07-.56l.36-1.11.32.1-.33,1.01c-.06.2-.09.35-.08.47.01.12.05.21.12.27.07.06.15.11.25.14.17.06.33.04.46-.06.14-.09.24-.25.31-.47l.33-1.03.32.1-.64,1.98-.3-.1.08-.3c-.1.09-.21.15-.34.17-.12.03-.26.02-.4-.03Z"/>
      <path class="cls-1" d="M40.77,91.33l1.02-.85-.44-1.15.38.1.3.84.66-.59.38.1-.93.8.46,1.23-.39-.1-.32-.92-.73.64-.39-.1Z"/>
      <path class="cls-1" d="M44.18,92.13l1.8-2.32-1.53-.26.05-.32,1.91.33-.05.29-1.8,2.35-.38-.07Z"/>
      <path class="cls-1" d="M47.4,92.65c-.21-.02-.39-.07-.54-.16s-.26-.19-.33-.32c-.07-.13-.1-.27-.08-.43.02-.17.08-.32.19-.44s.25-.21.42-.26c-.12-.08-.21-.18-.28-.3s-.09-.26-.07-.41c.02-.15.07-.29.16-.4.09-.11.21-.19.36-.24s.31-.07.5-.05c.19.02.35.07.48.15.13.08.23.18.3.31.07.13.09.27.07.42-.02.15-.07.28-.15.38-.09.11-.2.18-.33.23.16.08.27.2.35.34.08.14.11.3.09.47-.02.16-.07.3-.17.41-.1.11-.23.19-.39.24-.16.05-.35.07-.56.04ZM47.44,92.35c.2.02.38,0,.52-.09.14-.08.22-.21.24-.36.02-.16-.03-.3-.15-.41s-.28-.18-.48-.2c-.13-.01-.25,0-.36.03-.11.03-.2.09-.26.16s-.11.17-.12.27c-.01.1,0,.2.06.28.05.09.12.16.22.21.1.06.21.09.35.1ZM47.59,90.95c.17.02.32,0,.44-.08.12-.08.19-.18.2-.32.02-.15-.03-.28-.13-.39s-.24-.17-.41-.19c-.17-.02-.32.01-.44.1-.12.08-.19.2-.21.36-.01.14.03.26.13.36.1.1.24.16.41.18Z"/>
      <path class="cls-1" d="M49.72,92.78l.12-2.45c-.11.08-.22.15-.33.19-.11.05-.22.07-.33.06l.02-.32c.06,0,.13-.01.21-.05.08-.04.17-.09.26-.15.09-.06.17-.13.24-.2l.32.02-.14,2.91-.35-.02Z"/>
      <path class="cls-1" d="M52.01,92.87c-.22,0-.42-.06-.59-.18-.17-.13-.31-.3-.41-.53s-.15-.48-.16-.78c0-.29.04-.56.13-.78.09-.23.22-.41.39-.54s.37-.2.59-.2c.23,0,.42.06.6.18.17.13.31.3.41.53.1.22.15.48.16.78,0,.29-.04.56-.13.78-.09.23-.23.41-.4.54-.17.13-.36.2-.59.2ZM52.01,92.56c.15,0,.29-.06.41-.16.12-.1.21-.25.27-.42.07-.18.1-.38.09-.62s-.04-.44-.11-.62c-.07-.18-.17-.32-.29-.42-.12-.1-.26-.15-.42-.15-.16,0-.29.06-.41.16-.12.1-.21.24-.27.42-.06.18-.1.39-.09.62s.04.44.11.62.17.32.29.42c.12.1.26.15.42.15Z"/>
      <path class="cls-1" d="M54.77,92.76c-.22.02-.42-.03-.6-.15-.18-.12-.33-.28-.44-.5s-.18-.47-.21-.77c-.02-.29,0-.56.08-.79.08-.23.2-.42.36-.56.16-.14.35-.22.57-.24.22-.02.43.03.61.15.18.12.33.28.44.5s.18.47.21.77c.02.29,0,.56-.09.79s-.2.42-.36.56c-.16.14-.35.22-.58.24ZM54.75,92.44c.15-.01.29-.07.4-.19.11-.11.19-.26.25-.44.05-.18.07-.39.05-.62-.02-.23-.07-.44-.15-.61-.08-.17-.19-.31-.31-.4-.13-.09-.27-.13-.42-.12-.15.01-.29.07-.4.18s-.19.26-.25.44c-.05.18-.07.39-.05.62.02.23.07.44.15.61s.19.31.31.4c.13.09.27.13.42.12Z"/>
      <path class="cls-1" d="M58.63,92.27c-.16.03-.3.04-.43.02s-.24-.04-.34-.09c-.1-.05-.19-.1-.26-.17-.07-.07-.13-.14-.17-.22l.31-.17c.06.11.16.2.3.27s.3.08.48.05c.22-.04.39-.11.5-.22s.15-.24.13-.38c-.02-.13-.1-.23-.23-.3-.13-.06-.29-.1-.48-.12l-.33-.03c-.13-.01-.26-.04-.38-.08s-.22-.11-.3-.2c-.08-.09-.14-.2-.16-.34-.05-.26,0-.48.14-.65.14-.18.37-.29.69-.35.19-.03.36-.03.5,0,.15.04.27.1.38.18s.18.17.24.27l-.31.17c-.08-.13-.18-.22-.32-.27-.14-.06-.29-.07-.47-.04-.18.03-.32.1-.41.21-.09.11-.13.24-.1.39.02.13.08.22.18.28.1.06.22.09.36.09l.33.02c.29.02.52.09.7.21.18.13.28.28.31.45.03.15.01.29-.04.43-.05.14-.15.26-.29.36-.14.1-.32.17-.54.21Z"/>
      <path class="cls-1" d="M60.9,91.8c-.24.06-.44.05-.6-.03-.16-.08-.26-.21-.31-.41-.05-.21-.02-.38.09-.52.11-.14.29-.24.53-.3l.56-.14c-.06-.19-.14-.32-.25-.4-.1-.08-.24-.09-.4-.06-.11.03-.2.07-.27.14s-.12.15-.15.26l-.32-.04c.03-.11.07-.2.13-.29s.13-.16.22-.22c.09-.06.19-.1.32-.13.19-.05.35-.05.49,0,.14.05.26.13.36.26s.17.3.22.52l.26,1.1-.3.07-.08-.27c-.03.12-.09.21-.18.29-.09.08-.2.14-.33.17ZM60.85,91.51c.12-.03.21-.08.29-.15s.12-.16.15-.26c.03-.1.02-.22,0-.35l-.02-.08-.5.12c-.19.05-.32.11-.38.19-.06.08-.08.18-.05.3.03.11.08.18.18.22s.21.05.35.01Z"/>
      <path class="cls-1" d="M61.87,88.84c-.05.01-.11,0-.16-.02-.05-.03-.08-.07-.1-.12-.02-.06,0-.11.02-.16.03-.05.07-.08.12-.1.06-.02.11,0,.16.02.05.03.08.07.1.13.01.05,0,.11-.02.16-.03.05-.07.08-.12.1ZM62.41,91.35l-.57-2,.32-.09.57,2-.32.09Z"/>
      <path class="cls-1" d="M63.4,91.07l-.66-1.97.3-.1.12.29c.03-.13.09-.25.17-.34.09-.09.2-.17.34-.21.15-.05.3-.07.44-.04.13.02.26.09.37.2.11.11.2.28.27.5l.37,1.11-.32.11-.34-1.01c-.06-.19-.14-.34-.22-.42-.08-.09-.16-.14-.26-.15-.09-.01-.19,0-.29.03-.17.06-.29.16-.34.32s-.05.34.03.57l.34,1.02-.32.11Z"/>
      <path class="cls-1" d="M66.45,90.03c-.19.07-.35.08-.5.03-.14-.06-.25-.18-.32-.35l-.45-1.15-.34.13-.11-.27.34-.13-.24-.61.31-.12.24.61.58-.23.11.28-.58.23.44,1.12c.04.1.09.16.17.2.07.03.16.03.25,0,.03-.01.06-.03.09-.05.03-.02.06-.06.09-.11l.22.2c-.05.07-.1.12-.15.16-.05.04-.1.07-.16.09Z"/>
      <path class="cls-1" d="M66.77,88.67l-.12-.28,1.14-.51.12.28-1.14.51Z"/>
      <path class="cls-1" d="M70.21,88.28c-.26.14-.53.2-.79.19-.26,0-.5-.08-.72-.22-.22-.14-.4-.34-.53-.6-.14-.26-.2-.52-.19-.78,0-.26.08-.5.23-.72.14-.22.34-.4.61-.54.14-.07.28-.12.44-.14.15-.02.31-.02.45,0,.15.02.28.07.4.13l-.16.3c-.09-.05-.19-.09-.31-.11-.12-.02-.23-.02-.35,0-.12.02-.23.05-.33.11-.2.1-.35.24-.46.41-.11.17-.16.36-.17.56s.05.41.16.62c.11.2.24.36.42.47.17.11.36.17.56.18.2,0,.4-.04.6-.14.16-.09.29-.2.39-.33.09-.14.14-.29.15-.45,0-.16-.03-.32-.11-.48l-.63.33-.14-.27.93-.49.13.24c.12.22.17.45.16.67-.01.22-.08.42-.21.61-.12.19-.3.34-.52.45Z"/>
      <path class="cls-1" d="M72.66,86.88c-.17.11-.35.16-.53.17s-.35-.04-.51-.13-.3-.23-.41-.41c-.11-.18-.18-.36-.19-.55-.01-.19.02-.36.1-.52.08-.16.21-.29.38-.4.16-.1.33-.15.5-.14.17,0,.33.06.49.17.16.11.3.26.42.45l-1.39.86c.13.19.29.3.46.34s.35,0,.52-.1c.12-.08.21-.17.26-.29s.07-.23.06-.36l.32-.03c.01.12,0,.24-.03.35-.03.11-.09.22-.16.32-.08.1-.18.19-.3.26ZM71.39,86.12l1.06-.66c-.07-.1-.15-.17-.24-.21-.09-.04-.19-.06-.28-.06-.1,0-.19.04-.29.09-.09.06-.16.13-.22.22-.06.09-.09.19-.1.3,0,.11.01.22.07.32Z"/>
      <path class="cls-1" d="M73.86,86.04l-1.18-1.71.27-.19.21.3c0-.15.03-.29.1-.42.07-.13.17-.23.29-.31l.18.26c-.1.07-.18.15-.25.25-.07.1-.11.2-.12.32,0,.12.03.24.12.37l.65.94-.27.19Z"/>
      <path class="cls-1" d="M75.14,85.16l-1.3-1.63.24-.19.19.22c-.02-.13,0-.24.03-.35s.12-.2.22-.29c.13-.1.27-.16.41-.17.14-.01.28.03.42.12-.05-.15-.06-.3-.02-.43.04-.13.12-.25.24-.34.18-.15.37-.2.58-.16.2.04.4.18.6.43l.74.93-.26.21-.66-.83c-.13-.16-.24-.27-.34-.33-.1-.06-.19-.08-.27-.07-.08.01-.16.05-.23.11-.13.1-.19.23-.18.39s.09.33.23.51l.67.84-.26.21-.66-.83c-.13-.16-.24-.27-.34-.33-.1-.06-.19-.08-.28-.07-.08.01-.16.05-.23.11-.13.1-.18.23-.18.39,0,.16.09.33.23.52l.67.84-.26.21Z"/>
      <path class="cls-1" d="M78.51,82.42c-.18.17-.36.25-.53.27s-.33-.06-.47-.2c-.14-.15-.2-.32-.18-.5.03-.18.13-.35.32-.52l.42-.39c-.14-.14-.28-.21-.41-.23-.13-.02-.25.03-.38.15-.08.08-.14.16-.17.25s-.03.19,0,.3l-.3.12c-.03-.11-.04-.21-.03-.31s.03-.2.08-.3c.05-.1.12-.19.21-.27.14-.13.29-.21.43-.24.14-.03.29-.01.44.05.15.07.29.18.44.34l.76.83-.23.21-.2-.19c.03.12.02.23-.02.35s-.11.21-.21.31ZM78.32,82.19c.09-.08.15-.17.18-.27.03-.1.03-.2,0-.3-.03-.1-.09-.2-.18-.3l-.06-.06-.38.35c-.14.13-.22.25-.24.35-.02.1.02.2.1.28.07.08.16.12.26.11s.21-.06.31-.16Z"/>
      <path class="cls-1" d="M77.92,79.36s-.09.06-.15.06-.11-.02-.15-.06c-.04-.04-.06-.09-.06-.15s.02-.11.06-.15c.04-.04.09-.06.15-.06.06,0,.11.02.15.06.04.04.06.09.06.15,0,.06-.02.11-.06.15ZM79.61,81.29l-1.47-1.47.24-.24,1.47,1.47-.24.24Z"/>
      <path class="cls-1" d="M80.34,80.57l-1.54-1.4.21-.23.24.2c-.04-.13-.04-.26-.02-.38s.09-.24.19-.35c.11-.12.23-.2.36-.25.13-.05.27-.05.42,0,.15.05.31.15.48.3l.86.79-.22.25-.79-.72c-.15-.14-.28-.23-.39-.27-.11-.04-.21-.04-.3,0-.09.03-.16.09-.24.17-.12.14-.17.28-.15.45.03.16.13.32.3.48l.8.73-.22.25Z"/>
      <path class="cls-1" d="M81.09,78.1l-.23-.19.79-.97.24.19-.79.97Z"/>
      <path class="cls-1" d="M83.2,77.22l-2.35-1.72,1.02-1.39.26.19-.81,1.11.76.56.74-1.01.26.19-.74,1.01.82.6.81-1.11.26.19-1.02,1.4Z"/>
      <path class="cls-1" d="M84.64,75.21l-1.76-1.12.17-.26.27.15c-.06-.12-.09-.25-.08-.37,0-.13.05-.25.13-.38.09-.14.19-.24.31-.31s.26-.09.41-.07c.16.02.33.09.52.22l.98.63-.18.28-.9-.57c-.17-.11-.32-.17-.43-.19-.12-.02-.21,0-.29.04s-.15.12-.2.21c-.1.15-.12.31-.07.46.05.15.18.3.38.42l.91.58-.18.28Z"/>
      <path class="cls-1" d="M84.96,72.64l-.27-.15.61-1.09.27.15-.61,1.09Z"/>
      <path class="cls-1" d="M86.86,71.45l-2.61-1.3.16-.32,2.32,1.16.61-1.23.29.14-.77,1.55Z"/>
      <path class="cls-1" d="M88.12,68.9c-.1.22-.22.38-.38.46-.16.08-.33.08-.51,0-.19-.08-.31-.21-.36-.38s-.02-.38.08-.61l.23-.53c-.19-.06-.34-.08-.46-.04-.12.04-.22.13-.28.29-.04.1-.06.2-.05.3,0,.09.05.18.12.27l-.23.23c-.07-.09-.12-.18-.16-.27s-.05-.2-.05-.31c0-.11.03-.22.08-.34.08-.18.18-.31.3-.4.12-.09.26-.13.42-.13s.34.04.54.13l1.03.45-.12.28-.26-.09c.07.1.12.21.13.32.01.12,0,.24-.06.37ZM87.86,68.77c.05-.11.06-.22.05-.32-.01-.1-.05-.19-.12-.28-.07-.08-.16-.15-.29-.2l-.08-.03-.2.47c-.08.18-.1.32-.08.42.03.1.09.17.2.22.1.04.19.04.28,0,.09-.05.16-.14.22-.27Z"/>
      <path class="cls-1" d="M89.56,67.58s-.05.1-.09.16-.09.12-.15.18l-.22-.21c.05-.05.09-.1.12-.14.03-.04.05-.07.06-.1.03-.07.03-.14,0-.19s-.06-.12-.12-.17l-.28-.25-2.25.14.12-.33,1.83-.09-1.35-1.23.12-.34,1.89,1.75c.1.09.18.18.24.26.06.08.1.17.12.26.02.09,0,.2-.04.31Z"/>
      <path class="cls-1" d="M89.73,64.45c-.06.19-.15.35-.29.48-.13.12-.29.2-.47.24-.18.04-.38.03-.58-.04-.21-.06-.37-.16-.51-.29-.13-.13-.22-.28-.27-.46s-.04-.36.02-.55c.06-.19.15-.33.28-.44.13-.11.29-.18.48-.2.19-.03.39,0,.62.06l-.47,1.57c.22.05.41.03.57-.06.16-.09.27-.23.33-.42.04-.14.04-.27,0-.39-.04-.12-.1-.22-.2-.3l.22-.23c.09.08.16.18.21.28s.08.22.09.35,0,.26-.05.4ZM88.29,64.72l.36-1.2c-.12-.03-.22-.03-.32,0-.1.03-.18.08-.25.15-.07.07-.12.15-.15.26-.03.1-.04.21-.02.31.02.11.06.2.12.29s.15.15.27.2Z"/>
    </g>
    <g>
      <path class="cls-1" d="M12.86,53.9c-.03-.31.05-.58.24-.81.18-.23.43-.36.75-.38.3-.02.56.06.78.26.22.2.34.45.37.76s-.05.58-.24.81c-.19.23-.43.36-.73.38-.31.03-.58-.06-.8-.26s-.34-.45-.37-.76Z"/>
      <path class="cls-1" d="M90.56,54.21c-.03.31-.15.56-.37.76-.22.19-.49.28-.8.25-.3-.03-.54-.16-.73-.39-.18-.23-.26-.5-.23-.81.03-.31.15-.56.37-.76.22-.19.48-.28.78-.25.31.03.56.16.74.39.18.23.26.5.23.81Z"/>
    </g>
  </g>
</svg>