<svg width="67" height="70" viewBox="0 0 67 70" fill="none" xmlns="http://www.w3.org/2000/svg">
<mask id="mask0_2005_5348" style="mask-type:luminance" maskUnits="userSpaceOnUse" x="0" y="0" width="67" height="70">
<path d="M66.6677 0H0V69.1688H66.6677V0Z" fill="white"/>
</mask>
<g mask="url(#mask0_2005_5348)">
<path d="M65.2815 26.4413C64.6795 26.4413 64.1251 26.0483 63.9508 25.4431C60.1014 12.0888 47.476 2.75889 33.2664 2.75889C19.0569 2.75889 6.71656 11.8923 2.71665 24.9715C2.49487 25.7025 1.71865 26.1034 0.989959 25.8911C0.261264 25.6711 -0.158528 24.9008 0.0632486 24.1776C4.41166 9.94302 18.0668 0 33.2664 0C48.4661 0 62.4301 10.1474 66.6201 24.6807C66.8339 25.4117 66.4062 26.1741 65.6696 26.3863C65.5429 26.4256 65.4161 26.4413 65.2894 26.4413H65.2815Z" fill="#352397"/>
<path d="M33.4089 69.1689C18.2093 69.1689 4.71256 59.108 0.585921 44.7083C0.482953 44.3467 0.696809 43.9616 1.06116 43.8594C1.4255 43.7572 1.81361 43.9694 1.91658 44.331C5.87688 58.1412 18.8192 67.7934 33.4089 67.7934C47.9987 67.7934 60.6479 58.3456 64.7587 44.8183C64.8695 44.4568 65.2497 44.2524 65.622 44.3625C65.9864 44.4725 66.1923 44.8576 66.0814 45.2192C61.7963 59.3281 48.363 69.1768 33.4089 69.1768V69.1689Z" fill="#352397"/>
<path d="M0.997995 35.9441C1.55244 35.9441 1.99599 35.504 1.99599 34.9538C1.99599 34.4035 1.55244 33.9634 0.997995 33.9634C0.443553 33.9634 0 34.4035 0 34.9538C0 35.504 0.443553 35.9441 0.997995 35.9441Z" fill="#352397"/>
<path d="M65.6699 35.9441C66.2243 35.9441 66.6679 35.504 66.6679 34.9538C66.6679 34.4035 66.2243 33.9634 65.6699 33.9634C65.1154 33.9634 64.6719 34.4035 64.6719 34.9538C64.6719 35.504 65.1154 35.9441 65.6699 35.9441Z" fill="#352397"/>
</g>
</svg>
