<svg width="250" height="176" viewBox="0 0 250 176" fill="none" xmlns="http://www.w3.org/2000/svg">
<path d="M30.0874 32.519C30.8498 32.5445 31.8917 32.57 33.1622 32.621C34.4582 32.6465 35.7542 32.672 37.0248 32.672C38.4987 32.672 39.8963 32.672 41.2686 32.621C42.6408 32.5955 43.6064 32.57 44.1909 32.57C48.4346 32.57 51.6111 33.411 53.6949 35.093C55.7786 36.7751 56.8459 38.9413 56.8459 41.6172C56.8459 42.7131 56.6426 43.8854 56.2106 45.0832C55.7786 46.281 55.0671 47.4023 54.0506 48.4217C53.0342 49.4411 51.6365 50.2821 49.8577 50.9193C48.0789 51.5564 45.8681 51.8877 43.1744 51.8877H38.4987V50.9702H42.717C44.5212 50.9702 45.8681 50.5625 46.8083 49.7215C47.7485 48.906 48.3838 47.8101 48.7396 46.4594C49.0954 45.1087 49.2732 43.656 49.2732 42.1014C49.2732 39.1961 48.8412 37.0299 48.0026 35.5773C47.1387 34.1501 45.6902 33.411 43.6064 33.411C42.4121 33.411 41.6497 33.6659 41.294 34.2011C40.9382 34.7108 40.7603 35.7811 40.7603 37.3612V59.8391C40.7603 61.0369 40.8874 61.9288 41.1161 62.4895C41.3702 63.0757 41.8276 63.4579 42.5391 63.6363C43.2507 63.8147 44.2671 63.9167 45.6394 63.9676V64.987C44.6991 64.9616 43.4794 64.9361 41.9801 64.8851C40.4808 64.8596 38.9053 64.8341 37.2789 64.8341C35.9575 64.8341 34.6869 64.8341 33.4418 64.8851C32.1966 64.9106 31.0531 64.9361 30.062 64.987V64.0696C31.0277 64.0186 31.7646 63.8912 32.2474 63.7128C32.7302 63.5344 33.0606 63.1521 33.2385 62.6169C33.4164 62.0563 33.4926 61.2407 33.4926 60.1449V37.3867C33.4926 36.2654 33.4164 35.4243 33.2385 34.8892C33.0606 34.354 32.7302 33.9972 32.222 33.7933C31.7138 33.5894 31.0022 33.4875 30.062 33.462V32.5445L30.0874 32.519Z" fill="white"/>
<path d="M70.6701 65.3185C69.2978 65.3185 68.1543 65.0636 67.2395 64.5285C66.3247 64.0187 65.664 63.3052 65.232 62.4387C64.8 61.5722 64.5967 60.6037 64.5967 59.5843C64.5967 58.2591 64.9016 57.1887 65.4861 56.3732C66.0706 55.5577 66.8583 54.8696 67.7986 54.3599C68.7388 53.8502 69.7298 53.417 70.7971 53.0856C71.839 52.7543 72.8555 52.423 73.8211 52.0917C74.7868 51.7604 75.5491 51.3781 76.159 50.9449C76.7435 50.5117 77.0484 49.9255 77.0484 49.2374V45.6695C77.0484 44.8795 76.9213 44.1659 76.6672 43.5287C76.4131 42.8916 76.0065 42.4329 75.4729 42.0761C74.9392 41.7448 74.2531 41.5664 73.3891 41.5664C72.7792 41.5664 72.1694 41.6428 71.5595 41.8212C70.9496 41.9996 70.4414 42.28 70.0602 42.6622C70.9242 42.9681 71.5849 43.4268 72.0423 44.0639C72.5251 44.7011 72.7538 45.3891 72.7538 46.2047C72.7538 47.2496 72.3981 48.0651 71.6865 48.6767C70.975 49.2884 70.111 49.5942 69.1454 49.5942C68.0527 49.5942 67.2141 49.2374 66.655 48.5493C66.096 47.8612 65.8164 47.0202 65.8164 46.0518C65.8164 45.1598 66.0451 44.4207 66.4771 43.86C66.9091 43.2994 67.5444 42.7387 68.3322 42.2035C69.1962 41.7193 70.2127 41.337 71.407 41.0567C72.6014 40.7764 73.9228 40.6489 75.3204 40.6489C76.718 40.6489 77.9886 40.8018 79.1067 41.0822C80.2249 41.3625 81.1905 41.8977 81.9529 42.6622C82.6644 43.3758 83.1218 44.2423 83.3251 45.2617C83.5284 46.2811 83.6554 47.5809 83.6554 49.1355V61.6232C83.6554 62.3877 83.7317 62.9229 83.8841 63.2032C84.0366 63.4836 84.2907 63.6365 84.6465 63.6365C84.926 63.6365 85.1801 63.56 85.4597 63.4071C85.7138 63.2542 85.9933 63.0758 86.2982 62.8464L86.7557 63.6365C86.1204 64.1971 85.3834 64.6049 84.5448 64.9107C83.7063 65.2165 82.766 65.344 81.7241 65.344C80.606 65.344 79.6912 65.1911 79.0305 64.8598C78.3698 64.5285 77.887 64.0952 77.582 63.56C77.3025 62.9993 77.15 62.3622 77.15 61.6232C76.4131 62.7955 75.5237 63.6874 74.5072 64.3501C73.4654 65.0127 72.1948 65.344 70.7209 65.344L70.6701 65.3185ZM73.9228 62.3877C74.5326 62.3877 75.0917 62.2348 75.5999 61.9545C76.1082 61.6741 76.591 61.1899 77.0484 60.5018V51.0978C76.7689 51.5565 76.3877 51.9643 75.9049 52.3466C75.4221 52.7034 74.8884 53.0856 74.3548 53.4679C73.7957 53.8502 73.2875 54.258 72.7792 54.7167C72.271 55.1754 71.8644 55.7361 71.5595 56.4242C71.2545 57.0868 71.1021 57.9023 71.1021 58.8453C71.1021 60.0431 71.3562 60.9351 71.8898 61.4957C72.3981 62.0819 73.0842 62.3622 73.9482 62.3622L73.9228 62.3877Z" fill="white"/>
<path d="M103.273 33.7681V41.2862H108.661V42.2036H103.273V60.7313C103.273 61.6488 103.451 62.2859 103.781 62.6682C104.112 63.0504 104.62 63.2543 105.281 63.2543C105.84 63.2543 106.373 63.0504 106.933 62.6427C107.492 62.2349 107.974 61.5213 108.406 60.5019L109.194 60.9097C108.711 62.2859 107.974 63.4072 106.983 64.2992C105.992 65.1912 104.645 65.6244 102.943 65.6244C101.926 65.6244 101.062 65.497 100.3 65.2422C99.5377 64.9873 98.9024 64.605 98.3688 64.0698C97.7081 63.4072 97.2507 62.5662 97.0474 61.5723C96.8441 60.5784 96.7171 59.2786 96.7171 57.6986V42.2036H92.8799V41.2862H96.7171V35.2207C97.9876 35.2207 99.182 35.1188 100.275 34.8894C101.367 34.66 102.358 34.2778 103.324 33.7681H103.273Z" fill="white"/>
<path d="M138.824 40.7765V59.9922C138.824 61.3684 139.027 62.3878 139.459 63.0504C139.891 63.713 140.654 64.0443 141.746 64.0443V65.0128C140.806 64.9108 139.866 64.8854 138.9 64.8854C137.63 64.8854 136.435 64.9363 135.343 65.0128C134.25 65.0892 133.208 65.2676 132.242 65.5225V61.3939C131.505 62.923 130.489 64.0189 129.193 64.6815C127.897 65.3441 126.448 65.6754 124.873 65.6754C123.602 65.6754 122.56 65.497 121.773 65.1657C120.985 64.8344 120.35 64.4011 119.892 63.8914C119.359 63.3053 119.003 62.5407 118.8 61.5978C118.596 60.6548 118.469 59.4315 118.469 57.9279V46.3322C118.469 44.956 118.266 43.9366 117.859 43.274C117.453 42.6114 116.665 42.2801 115.547 42.2801V41.3116C116.513 41.4136 117.478 41.4391 118.393 41.4391C119.664 41.4391 120.858 41.3881 121.976 41.2862C123.094 41.1842 124.111 41.0313 125.051 40.8019V59.7883C125.051 60.5529 125.127 61.2155 125.254 61.8017C125.381 62.3878 125.661 62.8211 126.042 63.1524C126.423 63.4837 127.008 63.6366 127.77 63.6366C128.583 63.6366 129.345 63.4072 129.981 62.9485C130.616 62.4898 131.175 61.8526 131.582 61.0371C131.988 60.2216 132.192 59.3296 132.192 58.3102V46.2812C132.192 44.905 131.988 43.8856 131.582 43.223C131.175 42.5604 130.387 42.2291 129.269 42.2291V41.2607C130.235 41.3626 131.2 41.3881 132.115 41.3881C133.386 41.3881 134.58 41.3371 135.698 41.2352C136.816 41.1333 137.833 40.9803 138.773 40.751L138.824 40.7765Z" fill="white"/>
<path d="M165.455 40.6491C166.421 40.6491 167.234 40.853 167.844 41.2608C168.454 41.6685 168.911 42.2037 169.191 42.8408C169.47 43.478 169.623 44.1661 169.623 44.8542C169.623 45.9755 169.293 46.9184 168.632 47.632C167.971 48.3456 167.107 48.7024 166.04 48.7024C164.973 48.7024 164.134 48.4475 163.55 47.9124C162.965 47.3772 162.66 46.6636 162.66 45.7716C162.66 44.8796 162.863 44.217 163.245 43.6309C163.626 43.0702 164.109 42.586 164.693 42.1782C164.261 42.0508 163.829 42.0763 163.422 42.2292C162.838 42.3311 162.304 42.5605 161.771 42.9428C161.263 43.325 160.805 43.8093 160.449 44.3699C160.094 44.9306 159.789 45.5422 159.585 46.2049C159.382 46.8675 159.255 47.5046 159.255 48.1162V60.2726C159.255 61.7508 159.611 62.7447 160.322 63.2544C161.034 63.7641 162.127 64.0444 163.55 64.0444V65.0129C162.838 64.9874 161.822 64.9364 160.475 64.9109C159.128 64.8599 157.73 64.8345 156.256 64.8345C155.037 64.8345 153.817 64.8345 152.546 64.9109C151.276 64.9874 150.361 64.9874 149.7 65.0129V64.0444C150.767 64.0444 151.53 63.8151 151.962 63.3563C152.394 62.8976 152.623 62.0311 152.623 60.7314V46.2813C152.623 44.9051 152.419 43.8857 152.013 43.2231C151.606 42.5605 150.844 42.2292 149.7 42.2292V41.2608C150.666 41.3627 151.631 41.3882 152.546 41.3882C153.817 41.3882 155.011 41.3372 156.129 41.2353C157.247 41.1333 158.264 40.9804 159.204 40.7511V45.0071C159.56 44.1915 160.068 43.427 160.678 42.7644C161.288 42.1018 161.999 41.5666 162.787 41.1843C163.575 40.802 164.464 40.5981 165.43 40.5981L165.455 40.6491Z" fill="white"/>
<path d="M188.173 40.6489C190.867 40.6489 192.951 41.439 194.475 43.0445C196 44.6246 196.763 47.2241 196.763 50.843H181.719L181.617 49.9765H190.994C191.019 48.4728 190.943 47.0967 190.715 45.8224C190.511 44.5481 190.181 43.5287 189.698 42.7642C189.241 41.9996 188.631 41.6174 187.868 41.6174C186.801 41.6174 185.886 42.28 185.149 43.6307C184.412 44.9814 183.955 47.1986 183.803 50.3333L183.93 50.6136C183.904 50.9704 183.879 51.3527 183.853 51.7604C183.853 52.1682 183.853 52.5759 183.853 53.0092C183.853 55.1245 184.158 56.832 184.743 58.1572C185.327 59.4824 186.09 60.4254 187.004 61.0115C187.919 61.5977 188.86 61.9035 189.8 61.9035C190.435 61.9035 191.096 61.8015 191.782 61.5977C192.468 61.3938 193.154 61.037 193.866 60.5018C194.577 59.9666 195.212 59.2021 195.822 58.2336L196.635 58.514C196.28 59.6863 195.695 60.8076 194.907 61.9035C194.12 62.9993 193.103 63.9168 191.883 64.6049C190.664 65.3185 189.19 65.6498 187.487 65.6498C185.404 65.6498 183.574 65.2165 181.998 64.3246C180.423 63.4326 179.178 62.0819 178.263 60.2979C177.348 58.514 176.916 56.1948 176.916 53.417C176.916 50.6391 177.399 48.1925 178.364 46.3066C179.33 44.4207 180.652 42.9936 182.354 42.0761C184.057 41.1586 185.988 40.6744 188.148 40.6744L188.173 40.6489Z" fill="white"/>
<path d="M214.703 29.0787V60.7312C214.703 62.0054 214.932 62.8974 215.364 63.3562C215.796 63.8149 216.558 64.0442 217.626 64.0442V65.0127C217.041 64.9872 216.177 64.9362 215.008 64.9107C213.839 64.8598 212.67 64.8343 211.476 64.8343C210.282 64.8343 209.087 64.8343 207.893 64.9107C206.699 64.9617 205.784 64.9872 205.174 65.0127V64.0442C206.241 64.0442 207.003 63.8149 207.435 63.3562C207.867 62.8974 208.096 62.0309 208.096 60.7312V34.5835C208.096 33.2073 207.893 32.1879 207.486 31.5253C207.08 30.8627 206.292 30.5314 205.174 30.5314V29.5629C206.139 29.6649 207.105 29.6903 208.02 29.6903C209.265 29.6903 210.459 29.6394 211.578 29.5374C212.696 29.4355 213.738 29.2826 214.678 29.0532L214.703 29.0787Z" fill="white"/>
<path d="M32.0947 113.409V88.4336H34.3818L50.2387 109.739V88.4336H52.5257V113.409H50.2387L34.3818 92.078V113.409H32.0947Z" fill="white"/>
<path d="M77.3786 113.842C75.0408 113.842 72.957 113.307 71.1274 112.211C69.3231 111.115 67.9001 109.586 66.8582 107.649C65.8163 105.687 65.3081 103.47 65.3081 100.947C65.3081 98.4238 65.8163 96.1556 66.8328 94.2188C67.8493 92.2819 69.2723 90.7528 71.0511 89.6569C72.83 88.5611 74.9137 88.0259 77.2516 88.0259C79.5895 88.0259 81.6732 88.5865 83.4774 89.6824C85.2817 90.7783 86.6793 92.3074 87.6958 94.2442C88.7122 96.1811 89.1951 98.4238 89.1951 100.921C89.1951 103.419 88.6868 105.687 87.6958 107.624C86.6793 109.586 85.2817 111.09 83.5029 112.186C81.724 113.282 79.6657 113.817 77.3532 113.817L77.3786 113.842ZM77.3786 111.778C79.2591 111.778 80.9109 111.319 82.3339 110.376C83.757 109.459 84.9005 108.159 85.7137 106.554C86.5268 104.948 86.9334 103.062 86.9334 100.921C86.9334 98.7806 86.5268 96.9202 85.6883 95.2891C84.8497 93.6581 83.7316 92.3838 82.2831 91.4664C80.8346 90.5489 79.1575 90.0647 77.277 90.0647C75.3965 90.0647 73.7448 90.5234 72.2709 91.4664C70.8224 92.3838 69.6789 93.6836 68.8403 95.2891C68.0017 96.9202 67.5952 98.7806 67.5952 100.921C67.5952 103.062 68.0017 104.922 68.8403 106.554C69.6789 108.185 70.8224 109.459 72.3217 110.376C73.7956 111.294 75.4982 111.778 77.3786 111.778Z" fill="white"/>
<path d="M106.78 113.409V90.4979H98.6733V88.4336H117.173V90.4979H109.067V113.409H106.78Z" fill="white"/>
<path d="M122.865 113.409L133.106 88.4336H135.444L145.685 113.409H143.271L140.094 105.662H128.43L125.254 113.409H122.84H122.865ZM129.269 103.597H139.307L134.301 91.3134L129.294 103.597H129.269Z" fill="white"/>
<path d="M157.069 113.409V88.4336H159.356V113.409H157.069Z" fill="white"/>
<path d="M173.943 113.409V88.4336H181.592C183.167 88.4336 184.54 88.7394 185.759 89.3765C186.979 90.0137 187.919 90.8802 188.58 91.976C189.266 93.0719 189.596 94.3716 189.596 95.8243C189.596 97.4553 189.114 98.8825 188.148 100.106C187.182 101.329 185.912 102.196 184.387 102.705L190.613 113.409H188.123L182.151 103.164C181.973 103.164 181.821 103.189 181.643 103.189H176.23V113.383H173.943V113.409ZM176.23 101.1H182.202C183.142 101.1 184.006 100.87 184.794 100.412C185.556 99.9529 186.191 99.3412 186.649 98.5512C187.132 97.7611 187.36 96.8437 187.36 95.8243C187.36 94.2442 186.827 92.9699 185.734 91.976C184.667 90.9821 183.269 90.4979 181.592 90.4979H176.23V101.1Z" fill="white"/>
<path d="M203.395 113.409V88.4336H217.727V90.4979H205.657V99.4941H216.863V101.558H205.657V111.345H217.727V113.409H203.395Z" fill="white"/>
<path d="M217.778 137.008H32.3491V143.812H217.778V137.008Z" fill="white"/>
</svg>
