<?xml version="1.0" encoding="UTF-8" standalone="no"?>
<!DOCTYPE svg PUBLIC "-//W3C//DTD SVG 1.1//EN" "http://www.w3.org/Graphics/SVG/1.1/DTD/svg11.dtd">
<svg width="100%" height="100%" viewBox="0 0 73 45" version="1.1" xmlns="http://www.w3.org/2000/svg" xmlns:xlink="http://www.w3.org/1999/xlink" xml:space="preserve" xmlns:serif="http://www.serif.com/" style="fill-rule:evenodd;clip-rule:evenodd;stroke-linejoin:round;stroke-miterlimit:2;">
    <g transform="matrix(1,0,0,1,-12.73,-12.2094)">
        <rect x="12.73" y="54" width="72.97" height="2.67" style="fill:rgb(42,37,90);"/>
    </g>
    <g id="Artboard1" transform="matrix(2.48243,0,0,1.28211,-11.716,-5.17069)">
        <rect x="4.72" y="4.033" width="29.395" height="34.678" style="fill:none;"/>
        <g transform="matrix(0.402831,0,0,0.779965,-0.40847,-5.48993)">
            <path d="M12.83,13.74C13.13,13.75 13.54,13.76 14.04,13.78C14.55,13.79 15.06,13.8 15.56,13.8C16.14,13.8 16.69,13.8 17.23,13.78C17.77,13.77 18.15,13.76 18.38,13.76C20.05,13.76 21.3,14.09 22.12,14.75C22.94,15.41 23.36,16.26 23.36,17.31C23.36,17.74 23.28,18.2 23.11,18.67C22.94,19.14 22.66,19.58 22.26,19.98C21.86,20.38 21.31,20.71 20.61,20.96C19.91,21.21 19.04,21.34 17.98,21.34L16.14,21.34L16.14,20.98L17.8,20.98C18.51,20.98 19.04,20.82 19.41,20.49C19.78,20.17 20.03,19.74 20.17,19.21C20.31,18.68 20.38,18.11 20.38,17.5C20.38,16.36 20.21,15.51 19.88,14.94C19.54,14.38 18.97,14.09 18.15,14.09C17.68,14.09 17.38,14.19 17.24,14.4C17.1,14.6 17.03,15.02 17.03,15.64L17.03,24.46C17.03,24.93 17.08,25.28 17.17,25.5C17.27,25.73 17.45,25.88 17.73,25.95C18.01,26.02 18.41,26.06 18.95,26.08L18.95,26.48C18.58,26.47 18.1,26.46 17.51,26.44C16.92,26.43 16.3,26.42 15.66,26.42C15.14,26.42 14.64,26.42 14.15,26.44C13.66,26.45 13.21,26.46 12.82,26.48L12.82,26.12C13.2,26.1 13.49,26.05 13.68,25.98C13.87,25.91 14,25.76 14.07,25.55C14.14,25.33 14.17,25.01 14.17,24.58L14.17,15.65C14.17,15.21 14.14,14.88 14.07,14.67C14,14.46 13.87,14.32 13.67,14.24C13.47,14.16 13.19,14.12 12.82,14.11L12.82,13.75L12.83,13.74Z" style="fill:rgb(42,37,90);fill-rule:nonzero;"/>
            <path d="M28.62,26.61C28.08,26.61 27.63,26.51 27.27,26.3C26.91,26.1 26.65,25.82 26.48,25.48C26.31,25.14 26.23,24.76 26.23,24.36C26.23,23.84 26.35,23.42 26.58,23.1C26.81,22.78 27.12,22.51 27.49,22.31C27.86,22.11 28.25,21.94 28.67,21.81C29.08,21.68 29.48,21.55 29.86,21.42C30.24,21.29 30.54,21.14 30.78,20.97C31.01,20.8 31.13,20.57 31.13,20.3L31.13,18.9C31.13,18.59 31.08,18.31 30.98,18.06C30.88,17.81 30.72,17.63 30.51,17.49C30.3,17.36 30.03,17.29 29.69,17.29C29.45,17.29 29.21,17.32 28.97,17.39C28.73,17.46 28.53,17.57 28.38,17.72C28.72,17.84 28.98,18.02 29.16,18.27C29.35,18.52 29.44,18.79 29.44,19.11C29.44,19.52 29.3,19.84 29.02,20.08C28.74,20.32 28.4,20.44 28.02,20.44C27.59,20.44 27.26,20.3 27.04,20.03C26.82,19.76 26.71,19.43 26.71,19.05C26.71,18.7 26.8,18.41 26.97,18.19C27.14,17.97 27.39,17.75 27.7,17.54C28.04,17.35 28.44,17.2 28.91,17.09C29.38,16.98 29.9,16.93 30.45,16.93C31,16.93 31.5,16.99 31.94,17.1C32.38,17.21 32.76,17.42 33.06,17.72C33.34,18 33.52,18.34 33.6,18.74C33.68,19.14 33.73,19.65 33.73,20.26L33.73,25.16C33.73,25.46 33.76,25.67 33.82,25.78C33.88,25.89 33.98,25.95 34.13,25.95C34.24,25.95 34.34,25.92 34.45,25.86C34.55,25.8 34.66,25.73 34.78,25.64L34.96,25.95C34.71,26.17 34.42,26.33 34.09,26.45C33.76,26.57 33.39,26.62 32.98,26.62C32.54,26.62 32.18,26.56 31.92,26.43C31.66,26.3 31.47,26.13 31.35,25.92C31.24,25.7 31.18,25.45 31.18,25.16C30.89,25.62 30.54,25.97 30.14,26.23C29.73,26.49 29.23,26.62 28.65,26.62L28.62,26.61ZM29.9,25.46C30.14,25.46 30.36,25.4 30.56,25.29C30.76,25.18 30.95,24.99 31.13,24.72L31.13,21.03C31.02,21.21 30.87,21.37 30.68,21.52C30.49,21.66 30.28,21.81 30.07,21.96C29.86,22.11 29.65,22.27 29.45,22.45C29.25,22.63 29.09,22.85 28.97,23.12C28.85,23.38 28.79,23.7 28.79,24.07C28.79,24.54 28.89,24.89 29.1,25.11C29.3,25.34 29.57,25.45 29.91,25.45L29.9,25.46Z" style="fill:rgb(42,37,90);fill-rule:nonzero;"/>
            <path d="M41.27,14.23L41.27,17.18L43.39,17.18L43.39,17.54L41.27,17.54L41.27,24.81C41.27,25.17 41.34,25.42 41.47,25.57C41.6,25.72 41.8,25.8 42.06,25.8C42.28,25.8 42.49,25.72 42.71,25.56C42.93,25.4 43.12,25.12 43.29,24.72L43.6,24.88C43.41,25.42 43.12,25.86 42.73,26.21C42.34,26.56 41.81,26.73 41.14,26.73C40.74,26.73 40.4,26.68 40.1,26.58C39.8,26.48 39.55,26.33 39.34,26.12C39.08,25.86 38.9,25.53 38.82,25.14C38.74,24.75 38.69,24.24 38.69,23.62L38.69,17.54L37.18,17.54L37.18,17.18L38.69,17.18L38.69,14.8C39.19,14.8 39.66,14.76 40.09,14.67C40.52,14.58 40.91,14.43 41.29,14.23L41.27,14.23Z" style="fill:rgb(42,37,90);fill-rule:nonzero;"/>
            <path d="M55.08,16.98L55.08,24.52C55.08,25.06 55.16,25.46 55.33,25.72C55.5,25.98 55.8,26.11 56.23,26.11L56.23,26.49C55.86,26.45 55.49,26.44 55.11,26.44C54.61,26.44 54.14,26.46 53.71,26.49C53.28,26.52 52.87,26.59 52.49,26.69L52.49,25.07C52.2,25.67 51.8,26.1 51.29,26.36C50.78,26.62 50.21,26.75 49.59,26.75C49.09,26.75 48.68,26.68 48.37,26.55C48.06,26.42 47.81,26.25 47.63,26.05C47.43,25.82 47.28,25.52 47.2,25.15C47.12,24.78 47.07,24.3 47.07,23.71L47.07,19.16C47.07,18.62 46.99,18.22 46.83,17.96C46.67,17.7 46.36,17.57 45.92,17.57L45.92,17.19C46.3,17.23 46.68,17.24 47.04,17.24C47.54,17.24 48.01,17.22 48.45,17.18C48.89,17.14 49.29,17.08 49.66,16.99L49.66,24.44C49.66,24.74 49.69,25 49.74,25.23C49.79,25.46 49.9,25.63 50.05,25.76C50.2,25.89 50.43,25.95 50.73,25.95C51.05,25.95 51.34,25.86 51.6,25.68C51.86,25.5 52.07,25.25 52.23,24.93C52.39,24.61 52.47,24.26 52.47,23.86L52.47,19.14C52.47,18.6 52.39,18.2 52.23,17.94C52.07,17.68 51.76,17.55 51.32,17.55L51.32,17.17C51.7,17.21 52.08,17.22 52.44,17.22C52.94,17.22 53.41,17.2 53.85,17.16C54.29,17.12 54.69,17.06 55.06,16.97L55.08,16.98Z" style="fill:rgb(42,37,90);fill-rule:nonzero;"/>
            <path d="M65.38,16.93C65.76,16.93 66.08,17.01 66.32,17.17C66.56,17.33 66.74,17.54 66.85,17.79C66.96,18.04 67.02,18.31 67.02,18.58C67.02,19.02 66.89,19.39 66.63,19.67C66.37,19.95 66.03,20.09 65.61,20.09C65.19,20.09 64.86,19.99 64.63,19.78C64.4,19.57 64.28,19.29 64.28,18.94C64.28,18.59 64.36,18.33 64.51,18.1C64.66,17.88 64.85,17.69 65.08,17.53C64.91,17.48 64.74,17.49 64.58,17.55C64.35,17.59 64.14,17.68 63.93,17.83C63.72,17.98 63.55,18.17 63.41,18.39C63.27,18.61 63.15,18.85 63.07,19.11C62.99,19.37 62.94,19.62 62.94,19.86L62.94,24.63C62.94,25.21 63.08,25.6 63.36,25.8C63.64,26 64.07,26.11 64.63,26.11L64.63,26.49C64.35,26.48 63.95,26.46 63.42,26.45C62.89,26.43 62.34,26.42 61.76,26.42C61.28,26.42 60.79,26.42 60.3,26.45C59.81,26.48 59.44,26.48 59.18,26.49L59.18,26.11C59.6,26.11 59.9,26.02 60.07,25.84C60.24,25.66 60.33,25.32 60.33,24.81L60.33,19.14C60.33,18.6 60.25,18.2 60.09,17.94C59.93,17.68 59.63,17.55 59.18,17.55L59.18,17.17C59.56,17.21 59.94,17.22 60.3,17.22C60.8,17.22 61.27,17.2 61.71,17.16C62.15,17.12 62.55,17.06 62.92,16.97L62.92,18.64C63.06,18.32 63.26,18.02 63.5,17.76C63.74,17.5 64.02,17.29 64.33,17.14C64.64,16.99 64.99,16.91 65.37,16.91L65.38,16.93Z" style="fill:rgb(42,37,90);fill-rule:nonzero;"/>
            <path d="M74.14,16.93C75.2,16.93 76.02,17.24 76.62,17.87C77.22,18.49 77.52,19.51 77.52,20.93L71.6,20.93L71.56,20.59L75.25,20.59C75.26,20 75.23,19.46 75.14,18.96C75.06,18.46 74.92,18.06 74.74,17.76C74.56,17.46 74.32,17.31 74.02,17.31C73.6,17.31 73.24,17.57 72.95,18.1C72.66,18.63 72.48,19.5 72.42,20.73L72.47,20.84C72.46,20.98 72.45,21.13 72.44,21.29L72.44,21.78C72.44,22.61 72.56,23.28 72.79,23.8C73.02,24.32 73.32,24.69 73.68,24.92C74.04,25.15 74.41,25.27 74.78,25.27C75.03,25.27 75.29,25.23 75.56,25.15C75.83,25.07 76.1,24.93 76.38,24.72C76.66,24.51 76.91,24.21 77.15,23.83L77.47,23.94C77.33,24.4 77.1,24.84 76.79,25.27C76.48,25.7 76.08,26.06 75.6,26.33C75.12,26.61 74.54,26.74 73.87,26.74C73.05,26.74 72.33,26.57 71.71,26.22C71.09,25.87 70.6,25.34 70.24,24.64C69.89,23.93 69.71,23.03 69.71,21.94C69.71,20.85 69.9,19.89 70.28,19.15C70.66,18.41 71.18,17.85 71.85,17.49C72.52,17.13 73.27,16.94 74.13,16.94L74.14,16.93Z" style="fill:rgb(42,37,90);fill-rule:nonzero;"/>
            <path d="M84.4,12.39L84.4,24.81C84.4,25.31 84.49,25.66 84.66,25.84C84.83,26.02 85.13,26.11 85.55,26.11L85.55,26.49C85.32,26.48 84.98,26.46 84.52,26.45C84.06,26.44 83.6,26.42 83.13,26.42C82.66,26.42 82.19,26.42 81.72,26.45C81.25,26.47 80.89,26.48 80.65,26.49L80.65,26.11C81.07,26.11 81.37,26.02 81.54,25.84C81.71,25.66 81.8,25.32 81.8,24.81L81.8,14.55C81.8,14.01 81.72,13.61 81.56,13.35C81.4,13.09 81.09,12.96 80.65,12.96L80.65,12.58C81.03,12.62 81.41,12.63 81.77,12.63C82.26,12.63 82.73,12.61 83.17,12.57C83.61,12.53 84.02,12.47 84.39,12.38L84.4,12.39Z" style="fill:rgb(42,37,90);fill-rule:nonzero;"/>
        </g>
        <g transform="matrix(0.402831,0,0,0.779965,-0.40847,-5.48993)">
            <path d="M13.27,44.63L13.27,36.23L14.04,36.23L19.39,43.39L19.39,36.23L20.16,36.23L20.16,44.63L19.39,44.63L14.04,37.45L14.04,44.63L13.27,44.63Z" style="fill:rgb(42,37,90);fill-rule:nonzero;"/>
            <path d="M28.43,44.77C27.64,44.77 26.94,44.59 26.32,44.22C25.71,43.85 25.23,43.34 24.88,42.68C24.53,42.02 24.36,41.27 24.36,40.42C24.36,39.57 24.53,38.81 24.88,38.16C25.22,37.51 25.7,37 26.3,36.63C26.9,36.26 27.6,36.08 28.39,36.08C29.18,36.08 29.88,36.27 30.49,36.64C31.1,37.01 31.57,37.52 31.91,38.18C32.25,38.83 32.42,39.58 32.42,40.43C32.42,41.28 32.25,42.03 31.91,42.69C31.57,43.35 31.1,43.86 30.5,44.23C29.9,44.6 29.21,44.78 28.42,44.78L28.43,44.77ZM28.43,44.08C29.06,44.08 29.62,43.92 30.1,43.61C30.58,43.3 30.96,42.87 31.24,42.32C31.52,41.77 31.65,41.14 31.65,40.43C31.65,39.72 31.51,39.09 31.23,38.54C30.95,37.99 30.57,37.56 30.08,37.25C29.59,36.94 29.03,36.78 28.39,36.78C27.75,36.78 27.2,36.94 26.7,37.25C26.2,37.56 25.82,37.99 25.54,38.54C25.26,39.09 25.12,39.72 25.12,40.43C25.12,41.14 25.26,41.77 25.54,42.32C25.82,42.87 26.21,43.3 26.71,43.61C27.21,43.92 27.78,44.08 28.42,44.08L28.43,44.08Z" style="fill:rgb(42,37,90);fill-rule:nonzero;"/>
            <path d="M38.22,44.63L38.22,36.93L35.48,36.93L35.48,36.23L41.72,36.23L41.72,36.93L38.98,36.93L38.98,44.63L38.21,44.63L38.22,44.63Z" style="fill:rgb(42,37,90);fill-rule:nonzero;"/>
            <path d="M43.52,44.63L46.98,36.23L47.77,36.23L51.23,44.63L50.41,44.63L49.34,42.03L45.4,42.03L44.33,44.63L43.51,44.63L43.52,44.63ZM45.68,41.33L49.06,41.33L47.37,37.2L45.68,41.33Z" style="fill:rgb(42,37,90);fill-rule:nonzero;"/>
            <rect x="54.95" y="36.23" width="0.77" height="8.4" style="fill:rgb(42,37,90);fill-rule:nonzero;"/>
            <path d="M60.51,44.63L60.51,36.23L63.09,36.23C63.62,36.23 64.09,36.34 64.49,36.55C64.9,36.76 65.22,37.05 65.44,37.43C65.67,37.8 65.78,38.23 65.78,38.72C65.78,39.27 65.62,39.75 65.29,40.16C64.96,40.57 64.54,40.86 64.02,41.04L66.12,44.64L65.28,44.64L63.26,41.2C63.2,41.2 63.15,41.21 63.09,41.21L61.27,41.21L61.27,44.64L60.5,44.64L60.51,44.63ZM61.28,40.49L63.3,40.49C63.62,40.49 63.91,40.41 64.17,40.26C64.43,40.11 64.64,39.9 64.8,39.63C64.96,39.36 65.04,39.06 65.04,38.71C65.04,38.18 64.86,37.75 64.49,37.42C64.12,37.09 63.66,36.92 63.09,36.92L61.28,36.92L61.28,40.49Z" style="fill:rgb(42,37,90);fill-rule:nonzero;"/>
            <path d="M70.33,44.64L70.33,36.23L75.17,36.23L75.17,36.93L71.1,36.93L71.1,39.95L74.88,39.95L74.88,40.65L71.1,40.65L71.1,43.94L75.17,43.94L75.17,44.64L70.33,44.64Z" style="fill:rgb(42,37,90);fill-rule:nonzero;"/>
            <path d="M82.47,44.77C82,44.77 81.58,44.72 81.23,44.62C80.87,44.52 80.57,44.38 80.31,44.21C80.05,44.04 79.84,43.84 79.68,43.62C79.52,43.4 79.39,43.18 79.3,42.94L80.02,42.66C80.16,43.04 80.42,43.37 80.82,43.65C81.22,43.93 81.71,44.08 82.28,44.08C83.02,44.08 83.59,43.94 84,43.65C84.41,43.37 84.61,42.99 84.61,42.53C84.61,42.07 84.42,41.72 84.05,41.46C83.68,41.2 83.19,40.98 82.59,40.83L81.74,40.61C81.37,40.51 81.03,40.38 80.71,40.2C80.39,40.02 80.14,39.79 79.95,39.51C79.76,39.23 79.66,38.89 79.66,38.48C79.66,37.73 79.9,37.14 80.38,36.72C80.86,36.3 81.56,36.09 82.48,36.09C83.03,36.09 83.51,36.18 83.91,36.37C84.31,36.56 84.63,36.79 84.88,37.07C85.12,37.35 85.29,37.62 85.37,37.9L84.66,38.18C84.48,37.74 84.2,37.4 83.8,37.15C83.4,36.91 82.93,36.78 82.37,36.78C81.78,36.78 81.31,36.92 80.96,37.21C80.61,37.5 80.44,37.89 80.44,38.37C80.44,38.81 80.58,39.14 80.85,39.36C81.12,39.58 81.48,39.75 81.92,39.86L82.77,40.06C83.62,40.26 84.27,40.58 84.72,41.01C85.17,41.45 85.4,41.91 85.4,42.41C85.4,42.83 85.29,43.22 85.08,43.58C84.87,43.94 84.54,44.22 84.11,44.44C83.68,44.66 83.14,44.76 82.49,44.76L82.47,44.77Z" style="fill:rgb(42,37,90);fill-rule:nonzero;"/>
        </g>
    </g>
</svg>
