<svg width="162" height="115" viewBox="0 0 162 115" fill="none" xmlns="http://www.w3.org/2000/svg">
<path d="M19.4964 21.2482C19.9905 21.2649 20.6656 21.2815 21.4889 21.3148C22.3287 21.3315 23.1685 21.3481 23.9919 21.3481C24.9469 21.3481 25.8526 21.3481 26.7418 21.3148C27.631 21.2982 28.2568 21.2815 28.6355 21.2815C31.3854 21.2815 33.4438 21.831 34.7941 22.9301C36.1443 24.0291 36.8359 25.4446 36.8359 27.193C36.8359 27.9091 36.7042 28.6751 36.4243 29.4577C36.1443 30.2404 35.6833 30.9731 35.0246 31.6392C34.3659 32.3053 33.4603 32.8548 32.3076 33.2711C31.1549 33.6874 29.7223 33.9039 27.9768 33.9039H24.9469V33.3044H27.6804C28.8496 33.3044 29.7223 33.0379 30.3316 32.4884C30.9408 31.9556 31.3525 31.2395 31.5831 30.3569C31.8136 29.4744 31.9289 28.5252 31.9289 27.5094C31.9289 25.6111 31.6489 24.1956 31.1055 23.2465C30.5456 22.3139 29.607 21.831 28.2568 21.831C27.4828 21.831 26.9888 21.9975 26.7583 22.3472C26.5278 22.6803 26.4125 23.3797 26.4125 24.4121V39.0993C26.4125 39.882 26.4948 40.4648 26.643 40.8312C26.8077 41.2142 27.1041 41.464 27.5652 41.5805C28.0262 41.6971 28.6849 41.7637 29.5741 41.797V42.4631C28.9648 42.4464 28.1744 42.4298 27.2029 42.3965C26.2314 42.3798 25.2104 42.3632 24.1565 42.3632C23.3003 42.3632 22.4769 42.3632 21.6701 42.3965C20.8632 42.4131 20.1222 42.4298 19.48 42.4631V41.8636C20.1057 41.8303 20.5833 41.747 20.8961 41.6305C21.209 41.5139 21.4231 41.2641 21.5383 40.9144C21.6536 40.5481 21.703 40.0152 21.703 39.2992V24.4288C21.703 23.6961 21.6536 23.1465 21.5383 22.7969C21.4231 22.4472 21.209 22.214 20.8797 22.0808C20.5503 21.9476 20.0893 21.881 19.48 21.8643V21.2649L19.4964 21.2482Z" fill="#251B5E"/>
<path d="M45.794 42.6796C44.9047 42.6796 44.1637 42.513 43.5709 42.1633C42.9781 41.8303 42.55 41.364 42.2701 40.7979C41.9901 40.2317 41.8584 39.5989 41.8584 38.9328C41.8584 38.0669 42.056 37.3675 42.4347 36.8346C42.8135 36.3018 43.3239 35.8522 43.9332 35.5191C44.5425 35.1861 45.1847 34.903 45.8763 34.6865C46.5514 34.47 47.2101 34.2536 47.8358 34.0371C48.4616 33.8206 48.9556 33.5708 49.3508 33.2877C49.7295 33.0046 49.9271 32.6216 49.9271 32.172V29.8407C49.9271 29.3245 49.8448 28.8582 49.6801 28.4419C49.5154 28.0256 49.252 27.7259 48.9062 27.4928C48.5604 27.2763 48.1158 27.1597 47.5559 27.1597C47.1607 27.1597 46.7655 27.2097 46.3703 27.3262C45.9751 27.4428 45.6458 27.626 45.3988 27.8758C45.9586 28.0756 46.3868 28.3753 46.6832 28.7916C46.996 29.2079 47.1442 29.6575 47.1442 30.1904C47.1442 30.8732 46.9137 31.406 46.4526 31.8057C45.9916 32.2053 45.4317 32.4052 44.8059 32.4052C44.0979 32.4052 43.5545 32.172 43.1922 31.7224C42.8299 31.2728 42.6488 30.7233 42.6488 30.0905C42.6488 29.5077 42.797 29.0248 43.0769 28.6584C43.3569 28.2921 43.7685 27.9257 44.279 27.576C44.8389 27.2596 45.4976 27.0099 46.2715 26.8267C47.0454 26.6435 47.9017 26.5602 48.8074 26.5602C49.713 26.5602 50.5364 26.6602 51.2609 26.8433C51.9855 27.0265 52.6112 27.3762 53.1052 27.8758C53.5663 28.342 53.8627 28.9082 53.9944 29.5743C54.1261 30.2404 54.2085 31.0896 54.2085 32.1054V40.265C54.2085 40.7646 54.2579 41.1143 54.3567 41.2974C54.4555 41.4806 54.6201 41.5805 54.8507 41.5805C55.0318 41.5805 55.1965 41.5306 55.3776 41.4306C55.5423 41.3307 55.7234 41.2142 55.921 41.0643L56.2174 41.5805C55.8057 41.9469 55.3282 42.2133 54.7848 42.4131C54.2414 42.6129 53.6321 42.6962 52.957 42.6962C52.2325 42.6962 51.6397 42.5963 51.2115 42.3798C50.7834 42.1633 50.4705 41.8803 50.2729 41.5306C50.0918 41.1642 49.993 40.7479 49.993 40.265C49.5154 41.031 48.9391 41.6138 48.2804 42.0468C47.6053 42.4797 46.782 42.6962 45.8269 42.6962L45.794 42.6796ZM47.9017 40.7646C48.2969 40.7646 48.6592 40.6646 48.9885 40.4815C49.3178 40.2983 49.6307 39.9819 49.9271 39.5323V33.3876C49.746 33.6874 49.499 33.9538 49.1861 34.2036C48.8732 34.4367 48.5274 34.6865 48.1816 34.9363C47.8194 35.1861 47.49 35.4525 47.1607 35.7522C46.8314 36.052 46.5679 36.4183 46.3703 36.8679C46.1727 37.3009 46.0739 37.8338 46.0739 38.4499C46.0739 39.2326 46.2386 39.8154 46.5844 40.1817C46.9137 40.5647 47.3583 40.7479 47.9182 40.7479L47.9017 40.7646Z" fill="#251B5E"/>
<path d="M66.9209 22.0641V26.9765H70.4119V27.576H66.9209V39.6822C66.9209 40.2816 67.0362 40.6979 67.2503 40.9477C67.4643 41.1975 67.7937 41.3307 68.2218 41.3307C68.5841 41.3307 68.9299 41.1975 69.2922 40.9311C69.6544 40.6646 69.9673 40.1984 70.2472 39.5323L70.7577 39.7987C70.4448 40.6979 69.9673 41.4306 69.3251 42.0135C68.6829 42.5963 67.8101 42.8794 66.7069 42.8794C66.0482 42.8794 65.4883 42.7961 64.9943 42.6296C64.5003 42.4631 64.0887 42.2133 63.7429 41.8636C63.3147 41.4306 63.0183 40.8811 62.8866 40.2317C62.7548 39.5822 62.6725 38.733 62.6725 37.7005V27.576H60.186V26.9765H62.6725V23.0133C63.4959 23.0133 64.2698 22.9467 64.9779 22.7968C65.6859 22.647 66.3281 22.3972 66.9539 22.0641H66.9209Z" fill="#251B5E"/>
<path d="M89.9576 26.6435V39.1992C89.9576 40.0985 90.0893 40.7645 90.3692 41.1975C90.6492 41.6305 91.1432 41.8469 91.8512 41.8469V42.4797C91.242 42.4131 90.6327 42.3965 90.007 42.3965C89.1836 42.3965 88.4097 42.4298 87.7016 42.4797C86.9936 42.5297 86.3184 42.6462 85.6927 42.8128V40.1151C85.2151 41.1142 84.5565 41.8303 83.7167 42.2632C82.8769 42.6962 81.9383 42.9127 80.9173 42.9127C80.094 42.9127 79.4188 42.7961 78.9084 42.5796C78.3979 42.3631 77.9862 42.0801 77.6898 41.747C77.344 41.364 77.1135 40.8645 76.9818 40.2483C76.85 39.6322 76.7677 38.8329 76.7677 37.8504V30.2737C76.7677 29.3744 76.636 28.7084 76.3725 28.2754C76.109 27.8424 75.5986 27.626 74.874 27.626V26.9932C75.4998 27.0598 76.1255 27.0764 76.7183 27.0764C77.5416 27.0764 78.3156 27.0431 79.0401 26.9765C79.7646 26.9099 80.4233 26.81 81.0326 26.6601V39.066C81.0326 39.5656 81.082 39.9985 81.1643 40.3815C81.2467 40.7645 81.4278 41.0476 81.6748 41.2641C81.9218 41.4806 82.3005 41.5805 82.7945 41.5805C83.3215 41.5805 83.8155 41.4306 84.2271 41.1309C84.6388 40.8311 85.0011 40.4148 85.2645 39.882C85.528 39.3491 85.6597 38.7663 85.6597 38.1002V30.2404C85.6597 29.3411 85.528 28.675 85.2645 28.2421C85.0011 27.8091 84.4906 27.5927 83.7661 27.5927V26.9599C84.3918 27.0265 85.0175 27.0431 85.6104 27.0431C86.4337 27.0431 87.2076 27.0098 87.9322 26.9432C88.6567 26.8766 89.3154 26.7767 89.9246 26.6268L89.9576 26.6435Z" fill="#251B5E"/>
<path d="M107.215 26.5602C107.841 26.5602 108.367 26.6934 108.763 26.9599C109.158 27.2263 109.454 27.576 109.635 27.9923C109.817 28.4086 109.915 28.8582 109.915 29.3078C109.915 30.0405 109.701 30.6567 109.273 31.1229C108.845 31.5892 108.285 31.8223 107.593 31.8223C106.902 31.8223 106.358 31.6558 105.98 31.3061C105.601 30.9564 105.403 30.4901 105.403 29.9073C105.403 29.3245 105.535 28.8915 105.782 28.5085C106.029 28.1422 106.342 27.8258 106.721 27.5594C106.441 27.4761 106.161 27.4927 105.897 27.5927C105.519 27.6593 105.173 27.8091 104.827 28.0589C104.498 28.3087 104.201 28.6251 103.971 28.9914C103.74 29.3578 103.543 29.7574 103.411 30.1904C103.279 30.6234 103.197 31.0397 103.197 31.4393V39.3824C103.197 40.3482 103.427 40.9977 103.888 41.3307C104.35 41.6638 105.058 41.8469 105.98 41.8469V42.4797C105.519 42.4631 104.86 42.4298 103.987 42.4131C103.115 42.3798 102.209 42.3631 101.254 42.3631C100.463 42.3631 99.673 42.3631 98.8496 42.4131C98.0263 42.4631 97.4335 42.4631 97.0054 42.4797V41.8469C97.697 41.8469 98.191 41.6971 98.4709 41.3973C98.7508 41.0976 98.8991 40.5314 98.8991 39.6821V30.2404C98.8991 29.3411 98.7673 28.675 98.5038 28.2421C98.2404 27.8091 97.7464 27.5927 97.0054 27.5927V26.9599C97.6311 27.0265 98.2568 27.0431 98.8496 27.0431C99.673 27.0431 100.447 27.0098 101.171 26.9432C101.896 26.8766 102.555 26.7767 103.164 26.6268V29.4077C103.394 28.8749 103.724 28.3753 104.119 27.9424C104.514 27.5094 104.975 27.1597 105.486 26.9099C105.996 26.6601 106.573 26.5269 107.198 26.5269L107.215 26.5602Z" fill="#251B5E"/>
<path d="M121.936 26.5602C123.682 26.5602 125.032 27.0765 126.02 28.1255C127.008 29.158 127.502 30.8565 127.502 33.2211H117.754L117.688 32.6549H123.764C123.781 31.6725 123.731 30.7732 123.583 29.9406C123.451 29.108 123.237 28.4419 122.924 27.9424C122.628 27.4428 122.233 27.193 121.739 27.193C121.047 27.193 120.454 27.626 119.977 28.5085C119.499 29.3911 119.203 30.8399 119.104 32.8881L119.186 33.0712C119.17 33.3044 119.153 33.5542 119.137 33.8206C119.137 34.087 119.137 34.3535 119.137 34.6366C119.137 36.0187 119.335 37.1344 119.713 38.0003C120.092 38.8662 120.586 39.4823 121.179 39.8653C121.772 40.2483 122.381 40.4482 122.99 40.4482C123.402 40.4482 123.83 40.3816 124.275 40.2483C124.719 40.1151 125.164 39.882 125.625 39.5323C126.086 39.1826 126.498 38.683 126.893 38.0503L127.42 38.2334C127.189 38.9994 126.811 39.7321 126.3 40.4482C125.79 41.1642 125.131 41.7637 124.341 42.2133C123.55 42.6796 122.595 42.896 121.492 42.896C120.141 42.896 118.956 42.6129 117.935 42.0301C116.914 41.4473 116.107 40.5647 115.514 39.3991C114.922 38.2334 114.642 36.7181 114.642 34.903C114.642 33.0879 114.954 31.4893 115.58 30.257C116.206 29.0248 117.062 28.0922 118.165 27.4928C119.269 26.8933 120.52 26.5769 121.92 26.5769L121.936 26.5602Z" fill="#251B5E"/>
<path d="M139.128 19.0001V39.6822C139.128 40.5148 139.276 41.0976 139.556 41.3973C139.836 41.6971 140.33 41.8469 141.021 41.8469V42.4797C140.643 42.4631 140.083 42.4298 139.325 42.4131C138.568 42.3798 137.81 42.3632 137.036 42.3632C136.262 42.3632 135.489 42.3632 134.715 42.4131C133.941 42.4464 133.348 42.4631 132.953 42.4797V41.8469C133.644 41.8469 134.138 41.6971 134.418 41.3973C134.698 41.0976 134.846 40.5314 134.846 39.6822V22.597C134.846 21.6978 134.715 21.0317 134.451 20.5988C134.188 20.1658 133.677 19.9493 132.953 19.9493V19.3165C133.578 19.3831 134.204 19.3998 134.797 19.3998C135.604 19.3998 136.378 19.3665 137.102 19.2999C137.827 19.2333 138.502 19.1334 139.111 18.9835L139.128 19.0001Z" fill="#251B5E"/>
<path d="M20.7974 74.1022V57.7831H22.2794L32.5546 71.7043V57.7831H34.0366V74.1022H32.5546L22.2794 60.1643V74.1022H20.7974Z" fill="#251B5E"/>
<path d="M50.141 74.3853C48.6261 74.3853 47.2758 74.0356 46.0902 73.3196C44.9211 72.6035 43.9989 71.6044 43.3238 70.3388C42.6487 69.0566 42.3193 67.6079 42.3193 65.9593C42.3193 64.3107 42.6487 62.8287 43.3073 61.5631C43.966 60.2976 44.8881 59.2984 46.0408 58.5824C47.1935 57.8663 48.5438 57.5166 50.0587 57.5166C51.5737 57.5166 52.9239 57.883 54.0931 58.599C55.2622 59.3151 56.1679 60.3142 56.8265 61.5798C57.4852 62.8453 57.7981 64.3107 57.7981 65.9426C57.7981 67.5746 57.4688 69.0566 56.8265 70.3222C56.1679 71.6044 55.2622 72.5869 54.1095 73.3029C52.9569 74.019 51.6231 74.3687 50.1246 74.3687L50.141 74.3853ZM50.141 73.0365C51.3596 73.0365 52.4299 72.7367 53.3521 72.1206C54.2742 71.5211 55.0152 70.6719 55.5421 69.6228C56.0691 68.5737 56.3325 67.3414 56.3325 65.9426C56.3325 64.5439 56.0691 63.3283 55.5257 62.2625C54.9823 61.1968 54.2577 60.3642 53.3191 59.7647C52.3805 59.1652 51.2937 58.8488 50.0752 58.8488C48.8566 58.8488 47.7863 59.1486 46.8312 59.7647C45.8926 60.3642 45.1516 61.2134 44.6082 62.2625C44.0648 63.3283 43.8013 64.5439 43.8013 65.9426C43.8013 67.3414 44.0648 68.557 44.6082 69.6228C45.1516 70.6885 45.8926 71.5211 46.8642 72.1206C47.8192 72.7201 48.9225 73.0365 50.141 73.0365Z" fill="#251B5E"/>
<path d="M69.1933 74.1022V59.1319H63.9404V57.7831H75.9282V59.1319H70.6753V74.1022H69.1933Z" fill="#251B5E"/>
<path d="M79.6166 74.1022L86.2527 57.7831H87.7676L94.4037 74.1022H92.8394L90.781 69.04H83.2228L81.1644 74.1022H79.6001H79.6166ZM83.7662 67.6911H90.2706L87.0266 59.6648L83.7827 67.6911H83.7662Z" fill="#251B5E"/>
<path d="M101.781 74.1022V57.7831H103.263V74.1022H101.781Z" fill="#251B5E"/>
<path d="M112.715 74.1022V57.7831H117.671C118.692 57.7831 119.581 57.9829 120.372 58.3992C121.162 58.8155 121.772 59.3817 122.2 60.0977C122.644 60.8138 122.858 61.663 122.858 62.6122C122.858 63.678 122.546 64.6105 121.92 65.4098C121.294 66.2091 120.471 66.7753 119.483 67.1083L123.517 74.1022H121.903L118.034 67.408C117.918 67.408 117.82 67.4247 117.704 67.4247H114.197V74.0856H112.715V74.1022ZM114.197 66.0592H118.067C118.676 66.0592 119.236 65.9094 119.746 65.6096C120.24 65.3099 120.652 64.9102 120.948 64.394C121.261 63.8778 121.409 63.2783 121.409 62.6122C121.409 61.5798 121.063 60.7472 120.355 60.0977C119.664 59.4483 118.758 59.1319 117.671 59.1319H114.197V66.0592Z" fill="#251B5E"/>
<path d="M131.8 74.1022V57.7831H141.087V59.1319H133.265V65.0101H140.527V66.359H133.265V72.7534H141.087V74.1022H131.8Z" fill="#251B5E"/>
<path d="M141.12 89.5222H20.9624V93.9683H141.12V89.5222Z" fill="#251B5E"/>
</svg>
