<?xml version="1.0" encoding="UTF-8" standalone="no"?>
<!DOCTYPE svg PUBLIC "-//W3C//DTD SVG 1.1//EN" "http://www.w3.org/Graphics/SVG/1.1/DTD/svg11.dtd">
<svg width="100%" height="100%" viewBox="0 0 122 77" version="1.1" xmlns="http://www.w3.org/2000/svg" xmlns:xlink="http://www.w3.org/1999/xlink" xml:space="preserve" xmlns:serif="http://www.serif.com/" style="fill-rule:evenodd;clip-rule:evenodd;stroke-linejoin:round;stroke-miterlimit:2;">
    <g id="Artboard1" transform="matrix(1,0,0,1,-19.3323,0)">
        <rect x="19.332" y="0" width="121.755" height="76.068" style="fill:none;"/>
        <clipPath id="_clip1">
            <rect x="19.332" y="0" width="121.755" height="76.068"/>
        </clipPath>
        <g clip-path="url(#_clip1)">
            <g transform="matrix(1,0,0,1,0.332311,-18)">
                <path d="M19.496,21.248C19.991,21.265 20.666,21.282 21.489,21.315C22.329,21.331 23.169,21.348 23.992,21.348C24.947,21.348 25.853,21.348 26.742,21.315C27.631,21.298 28.257,21.282 28.636,21.282C31.385,21.282 33.444,21.831 34.794,22.93C36.144,24.029 36.836,25.445 36.836,27.193C36.836,27.909 36.704,28.675 36.424,29.458C36.144,30.24 35.683,30.973 35.025,31.639C34.366,32.305 33.46,32.855 32.308,33.271C31.155,33.687 29.722,33.904 27.977,33.904L24.947,33.904L24.947,33.304L27.68,33.304C28.85,33.304 29.722,33.038 30.332,32.488C30.941,31.956 31.353,31.24 31.583,30.357C31.814,29.474 31.929,28.525 31.929,27.509C31.929,25.611 31.649,24.196 31.106,23.247C30.546,22.314 29.607,21.831 28.257,21.831C27.483,21.831 26.989,21.998 26.758,22.347C26.528,22.68 26.413,23.38 26.413,24.412L26.413,39.099C26.413,39.882 26.495,40.465 26.643,40.831C26.808,41.214 27.104,41.464 27.565,41.581C28.026,41.697 28.685,41.764 29.574,41.797L29.574,42.463C28.965,42.446 28.174,42.43 27.203,42.397C26.231,42.38 25.21,42.363 24.157,42.363C23.3,42.363 22.477,42.363 21.67,42.397C20.863,42.413 20.122,42.43 19.48,42.463L19.48,41.864C20.106,41.83 20.583,41.747 20.896,41.631C21.209,41.514 21.423,41.264 21.538,40.914C21.654,40.548 21.703,40.015 21.703,39.299L21.703,24.429C21.703,23.696 21.654,23.147 21.538,22.797C21.423,22.447 21.209,22.214 20.88,22.081C20.55,21.948 20.089,21.881 19.48,21.864L19.48,21.265L19.496,21.248Z" style="fill:rgb(37,27,94);fill-rule:nonzero;"/>
            </g>
            <g transform="matrix(1,0,0,1,0.332311,-18)">
                <path d="M45.794,42.68C44.905,42.68 44.164,42.513 43.571,42.163C42.978,41.83 42.55,41.364 42.27,40.798C41.99,40.232 41.858,39.599 41.858,38.933C41.858,38.067 42.056,37.368 42.435,36.835C42.814,36.302 43.324,35.852 43.933,35.519C44.542,35.186 45.185,34.903 45.876,34.687C46.551,34.47 47.21,34.254 47.836,34.037C48.462,33.821 48.956,33.571 49.351,33.288C49.73,33.005 49.927,32.622 49.927,32.172L49.927,29.841C49.927,29.325 49.845,28.858 49.68,28.442C49.515,28.026 49.252,27.726 48.906,27.493C48.56,27.276 48.116,27.16 47.556,27.16C47.161,27.16 46.766,27.21 46.37,27.326C45.975,27.443 45.646,27.626 45.399,27.876C45.959,28.076 46.387,28.375 46.683,28.792C46.996,29.208 47.144,29.658 47.144,30.19C47.144,30.873 46.914,31.406 46.453,31.806C45.992,32.205 45.432,32.405 44.806,32.405C44.098,32.405 43.555,32.172 43.192,31.722C42.83,31.273 42.649,30.723 42.649,30.09C42.649,29.508 42.797,29.025 43.077,28.658C43.357,28.292 43.769,27.926 44.279,27.576C44.839,27.26 45.498,27.01 46.272,26.827C47.045,26.644 47.902,26.56 48.807,26.56C49.713,26.56 50.536,26.66 51.261,26.843C51.986,27.026 52.611,27.376 53.105,27.876C53.566,28.342 53.863,28.908 53.994,29.574C54.126,30.24 54.209,31.09 54.209,32.105L54.209,40.265C54.209,40.765 54.258,41.114 54.357,41.297C54.456,41.481 54.62,41.581 54.851,41.581C55.032,41.581 55.197,41.531 55.378,41.431C55.542,41.331 55.723,41.214 55.921,41.064L56.217,41.581C55.806,41.947 55.328,42.213 54.785,42.413C54.241,42.613 53.632,42.696 52.957,42.696C52.233,42.696 51.64,42.596 51.212,42.38C50.783,42.163 50.471,41.88 50.273,41.531C50.092,41.164 49.993,40.748 49.993,40.265C49.515,41.031 48.939,41.614 48.28,42.047C47.605,42.48 46.782,42.696 45.827,42.696L45.794,42.68ZM47.902,40.765C48.297,40.765 48.659,40.665 48.989,40.481C49.318,40.298 49.631,39.982 49.927,39.532L49.927,33.388C49.746,33.687 49.499,33.954 49.186,34.204C48.873,34.437 48.527,34.687 48.182,34.936C47.819,35.186 47.49,35.453 47.161,35.752C46.831,36.052 46.568,36.418 46.37,36.868C46.173,37.301 46.074,37.834 46.074,38.45C46.074,39.233 46.239,39.815 46.584,40.182C46.914,40.565 47.358,40.748 47.918,40.748L47.902,40.765Z" style="fill:rgb(37,27,94);fill-rule:nonzero;"/>
            </g>
            <g transform="matrix(1,0,0,1,0.332311,-18)">
                <path d="M66.921,22.064L66.921,26.977L70.412,26.977L70.412,27.576L66.921,27.576L66.921,39.682C66.921,40.282 67.036,40.698 67.25,40.948C67.464,41.198 67.794,41.331 68.222,41.331C68.584,41.331 68.93,41.198 69.292,40.931C69.654,40.665 69.967,40.198 70.247,39.532L70.758,39.799C70.445,40.698 69.967,41.431 69.325,42.014C68.683,42.596 67.81,42.879 66.707,42.879C66.048,42.879 65.488,42.796 64.994,42.63C64.5,42.463 64.089,42.213 63.743,41.864C63.315,41.431 63.018,40.881 62.887,40.232C62.755,39.582 62.673,38.733 62.673,37.701L62.673,27.576L60.186,27.576L60.186,26.977L62.673,26.977L62.673,23.013C63.496,23.013 64.27,22.947 64.978,22.797C65.686,22.647 66.328,22.397 66.954,22.064L66.921,22.064Z" style="fill:rgb(37,27,94);fill-rule:nonzero;"/>
            </g>
            <g transform="matrix(1,0,0,1,0.332311,-18)">
                <path d="M89.958,26.644L89.958,39.199C89.958,40.099 90.089,40.765 90.369,41.198C90.649,41.631 91.143,41.847 91.851,41.847L91.851,42.48C91.242,42.413 90.633,42.397 90.007,42.397C89.184,42.397 88.41,42.43 87.702,42.48C86.994,42.53 86.318,42.646 85.693,42.813L85.693,40.115C85.215,41.114 84.557,41.83 83.717,42.263C82.877,42.696 81.938,42.913 80.917,42.913C80.094,42.913 79.419,42.796 78.908,42.58C78.398,42.363 77.986,42.08 77.69,41.747C77.344,41.364 77.114,40.865 76.982,40.248C76.85,39.632 76.768,38.833 76.768,37.85L76.768,30.274C76.768,29.374 76.636,28.708 76.373,28.275C76.109,27.842 75.599,27.626 74.874,27.626L74.874,26.993C75.5,27.06 76.126,27.076 76.718,27.076C77.542,27.076 78.316,27.043 79.04,26.977C79.765,26.91 80.423,26.81 81.033,26.66L81.033,39.066C81.033,39.566 81.082,39.999 81.164,40.382C81.247,40.765 81.428,41.048 81.675,41.264C81.922,41.481 82.301,41.581 82.795,41.581C83.322,41.581 83.816,41.431 84.227,41.131C84.639,40.831 85.001,40.415 85.265,39.882C85.528,39.349 85.66,38.766 85.66,38.1L85.66,30.24C85.66,29.341 85.528,28.675 85.265,28.242C85.001,27.809 84.491,27.593 83.766,27.593L83.766,26.96C84.392,27.026 85.018,27.043 85.61,27.043C86.434,27.043 87.208,27.01 87.932,26.943C88.657,26.877 89.315,26.777 89.925,26.627L89.958,26.644Z" style="fill:rgb(37,27,94);fill-rule:nonzero;"/>
            </g>
            <g transform="matrix(1,0,0,1,0.332311,-18)">
                <path d="M107.215,26.56C107.841,26.56 108.367,26.693 108.763,26.96C109.158,27.226 109.454,27.576 109.635,27.992C109.817,28.409 109.915,28.858 109.915,29.308C109.915,30.041 109.701,30.657 109.273,31.123C108.845,31.589 108.285,31.822 107.593,31.822C106.902,31.822 106.358,31.656 105.98,31.306C105.601,30.956 105.403,30.49 105.403,29.907C105.403,29.325 105.535,28.892 105.782,28.509C106.029,28.142 106.342,27.826 106.721,27.559C106.441,27.476 106.161,27.493 105.897,27.593C105.519,27.659 105.173,27.809 104.827,28.059C104.498,28.309 104.201,28.625 103.971,28.991C103.74,29.358 103.543,29.757 103.411,30.19C103.279,30.623 103.197,31.04 103.197,31.439L103.197,39.382C103.197,40.348 103.427,40.998 103.888,41.331C104.35,41.664 105.058,41.847 105.98,41.847L105.98,42.48C105.519,42.463 104.86,42.43 103.987,42.413C103.115,42.38 102.209,42.363 101.254,42.363C100.463,42.363 99.673,42.363 98.85,42.413C98.026,42.463 97.434,42.463 97.005,42.48L97.005,41.847C97.697,41.847 98.191,41.697 98.471,41.397C98.751,41.098 98.899,40.531 98.899,39.682L98.899,30.24C98.899,29.341 98.767,28.675 98.504,28.242C98.24,27.809 97.746,27.593 97.005,27.593L97.005,26.96C97.631,27.026 98.257,27.043 98.85,27.043C99.673,27.043 100.447,27.01 101.171,26.943C101.896,26.877 102.555,26.777 103.164,26.627L103.164,29.408C103.394,28.875 103.724,28.375 104.119,27.942C104.514,27.509 104.975,27.16 105.486,26.91C105.996,26.66 106.573,26.527 107.198,26.527L107.215,26.56Z" style="fill:rgb(37,27,94);fill-rule:nonzero;"/>
            </g>
            <g transform="matrix(1,0,0,1,0.332311,-18)">
                <path d="M121.936,26.56C123.682,26.56 125.032,27.077 126.02,28.126C127.008,29.158 127.502,30.857 127.502,33.221L117.754,33.221L117.688,32.655L123.764,32.655C123.781,31.673 123.731,30.773 123.583,29.941C123.451,29.108 123.237,28.442 122.924,27.942C122.628,27.443 122.233,27.193 121.739,27.193C121.047,27.193 120.454,27.626 119.977,28.509C119.499,29.391 119.203,30.84 119.104,32.888L119.186,33.071C119.17,33.304 119.153,33.554 119.137,33.821L119.137,34.637C119.137,36.019 119.335,37.134 119.713,38C120.092,38.866 120.586,39.482 121.179,39.865C121.772,40.248 122.381,40.448 122.99,40.448C123.402,40.448 123.83,40.382 124.275,40.248C124.719,40.115 125.164,39.882 125.625,39.532C126.086,39.183 126.498,38.683 126.893,38.05L127.42,38.233C127.189,38.999 126.811,39.732 126.3,40.448C125.79,41.164 125.131,41.764 124.341,42.213C123.55,42.68 122.595,42.896 121.492,42.896C120.141,42.896 118.956,42.613 117.935,42.03C116.914,41.447 116.107,40.565 115.514,39.399C114.922,38.233 114.642,36.718 114.642,34.903C114.642,33.088 114.954,31.489 115.58,30.257C116.206,29.025 117.062,28.092 118.165,27.493C119.269,26.893 120.52,26.577 121.92,26.577L121.936,26.56Z" style="fill:rgb(37,27,94);fill-rule:nonzero;"/>
            </g>
            <g transform="matrix(1,0,0,1,0.332311,-18)">
                <path d="M139.128,19L139.128,39.682C139.128,40.515 139.276,41.098 139.556,41.397C139.836,41.697 140.33,41.847 141.021,41.847L141.021,42.48C140.643,42.463 140.083,42.43 139.325,42.413C138.568,42.38 137.81,42.363 137.036,42.363C136.262,42.363 135.489,42.363 134.715,42.413C133.941,42.446 133.348,42.463 132.953,42.48L132.953,41.847C133.644,41.847 134.138,41.697 134.418,41.397C134.698,41.098 134.846,40.531 134.846,39.682L134.846,22.597C134.846,21.698 134.715,21.032 134.451,20.599C134.188,20.166 133.677,19.949 132.953,19.949L132.953,19.317C133.578,19.383 134.204,19.4 134.797,19.4C135.604,19.4 136.378,19.366 137.102,19.3C137.827,19.233 138.502,19.133 139.111,18.984L139.128,19Z" style="fill:rgb(37,27,94);fill-rule:nonzero;"/>
            </g>
            <g transform="matrix(1,0,0,1,0.332311,-18)">
                <path d="M20.797,74.102L20.797,57.783L22.279,57.783L32.555,71.704L32.555,57.783L34.037,57.783L34.037,74.102L32.555,74.102L22.279,60.164L22.279,74.102L20.797,74.102Z" style="fill:rgb(37,27,94);fill-rule:nonzero;"/>
            </g>
            <g transform="matrix(1,0,0,1,0.332311,-18)">
                <path d="M50.141,74.385C48.626,74.385 47.276,74.036 46.09,73.32C44.921,72.604 43.999,71.604 43.324,70.339C42.649,69.057 42.319,67.608 42.319,65.959C42.319,64.311 42.649,62.829 43.307,61.563C43.966,60.298 44.888,59.298 46.041,58.582C47.194,57.866 48.544,57.517 50.059,57.517C51.574,57.517 52.924,57.883 54.093,58.599C55.262,59.315 56.168,60.314 56.827,61.58C57.485,62.845 57.798,64.311 57.798,65.943C57.798,67.575 57.469,69.057 56.827,70.322C56.168,71.604 55.262,72.587 54.109,73.303C52.957,74.019 51.623,74.369 50.125,74.369L50.141,74.385ZM50.141,73.037C51.36,73.037 52.43,72.737 53.352,72.121C54.274,71.521 55.015,70.672 55.542,69.623C56.069,68.574 56.333,67.341 56.333,65.943C56.333,64.544 56.069,63.328 55.526,62.263C54.982,61.197 54.258,60.364 53.319,59.765C52.381,59.165 51.294,58.849 50.075,58.849C48.857,58.849 47.786,59.149 46.831,59.765C45.893,60.364 45.152,61.213 44.608,62.263C44.065,63.328 43.801,64.544 43.801,65.943C43.801,67.341 44.065,68.557 44.608,69.623C45.152,70.689 45.893,71.521 46.864,72.121C47.819,72.72 48.923,73.037 50.141,73.037Z" style="fill:rgb(37,27,94);fill-rule:nonzero;"/>
            </g>
            <g transform="matrix(1,0,0,1,0.332311,-18)">
                <path d="M69.193,74.102L69.193,59.132L63.94,59.132L63.94,57.783L75.928,57.783L75.928,59.132L70.675,59.132L70.675,74.102L69.193,74.102Z" style="fill:rgb(37,27,94);fill-rule:nonzero;"/>
            </g>
            <g transform="matrix(1,0,0,1,0.332311,-18)">
                <path d="M79.617,74.102L86.253,57.783L87.768,57.783L94.404,74.102L92.839,74.102L90.781,69.04L83.223,69.04L81.164,74.102L79.6,74.102L79.617,74.102ZM83.766,67.691L90.271,67.691L87.027,59.665L83.783,67.691L83.766,67.691Z" style="fill:rgb(37,27,94);fill-rule:nonzero;"/>
            </g>
            <g transform="matrix(1,0,0,1,0.332311,-18)">
                <rect x="101.781" y="57.783" width="1.482" height="16.319" style="fill:rgb(37,27,94);fill-rule:nonzero;"/>
            </g>
            <g transform="matrix(1,0,0,1,0.332311,-18)">
                <path d="M112.715,74.102L112.715,57.783L117.671,57.783C118.692,57.783 119.581,57.983 120.372,58.399C121.162,58.816 121.772,59.382 122.2,60.098C122.644,60.814 122.858,61.663 122.858,62.612C122.858,63.678 122.546,64.611 121.92,65.41C121.294,66.209 120.471,66.775 119.483,67.108L123.517,74.102L121.903,74.102L118.034,67.408C117.918,67.408 117.82,67.425 117.704,67.425L114.197,67.425L114.197,74.086L112.715,74.086L112.715,74.102ZM114.197,66.059L118.067,66.059C118.676,66.059 119.236,65.909 119.746,65.61C120.24,65.31 120.652,64.91 120.948,64.394C121.261,63.878 121.409,63.278 121.409,62.612C121.409,61.58 121.063,60.747 120.355,60.098C119.664,59.448 118.758,59.132 117.671,59.132L114.197,59.132L114.197,66.059Z" style="fill:rgb(37,27,94);fill-rule:nonzero;"/>
            </g>
            <g transform="matrix(1,0,0,1,0.332311,-18)">
                <path d="M131.8,74.102L131.8,57.783L141.087,57.783L141.087,59.132L133.265,59.132L133.265,65.01L140.527,65.01L140.527,66.359L133.265,66.359L133.265,72.753L141.087,72.753L141.087,74.102L131.8,74.102Z" style="fill:rgb(37,27,94);fill-rule:nonzero;"/>
            </g>
            <g transform="matrix(1,0,0,1,0.332311,-18)">
                <rect x="20.962" y="89.522" width="120.158" height="4.446" style="fill:rgb(37,27,94);fill-rule:nonzero;"/>
            </g>
        </g>
    </g>
</svg>
