<?xml version="1.0" encoding="UTF-8"?>
<svg id="Calque_1" data-name="Calque 1" xmlns="http://www.w3.org/2000/svg" viewBox="0 0 98.38 69.06">
  <defs>
    <style>
      .cls-1 {
        fill: #fff;
      }
    </style>
  </defs>
  <g>
    <path class="cls-1" d="M12.83,13.74c.3.01.71.02,1.21.04.51.01,1.02.02,1.52.02.58,0,1.13,0,1.67-.02.54-.01.92-.02,1.15-.02,1.67,0,2.92.33,3.74.99s1.24,1.51,1.24,2.56c0,.43-.08.89-.25,1.36s-.45.91-.85,1.31c-.4.4-.95.73-1.65.98s-1.57.38-2.63.38h-1.84v-.36h1.66c.71,0,1.24-.16,1.61-.49.37-.32.62-.75.76-1.28.14-.53.21-1.1.21-1.71,0-1.14-.17-1.99-.5-2.56-.34-.56-.91-.85-1.73-.85-.47,0-.77.1-.91.31-.14.2-.21.62-.21,1.24v8.82c0,.47.05.82.14,1.04.1.23.28.38.56.45.28.07.68.11,1.22.13v.4c-.37-.01-.85-.02-1.44-.04-.59-.01-1.21-.02-1.85-.02-.52,0-1.02,0-1.51.02-.49.01-.94.02-1.33.04v-.36c.38-.02.67-.07.86-.14.19-.07.32-.22.39-.43.07-.22.1-.54.1-.97v-8.93c0-.44-.03-.77-.1-.98-.07-.21-.2-.35-.4-.43-.2-.08-.48-.12-.85-.13v-.36Z"/>
    <path class="cls-1" d="M28.62,26.61c-.54,0-.99-.1-1.35-.31-.36-.2-.62-.48-.79-.82s-.25-.72-.25-1.12c0-.52.12-.94.35-1.26.23-.32.54-.59.91-.79s.76-.37,1.18-.5c.41-.13.81-.26,1.19-.39s.68-.28.92-.45c.23-.17.35-.4.35-.67v-1.4c0-.31-.05-.59-.15-.84-.1-.25-.26-.43-.47-.57-.21-.13-.48-.2-.82-.2-.24,0-.48.03-.72.1-.24.07-.44.18-.59.33.34.12.6.3.78.55.19.25.28.52.28.84,0,.41-.14.73-.42.97-.28.24-.62.36-1,.36-.43,0-.76-.14-.98-.41-.22-.27-.33-.6-.33-.98,0-.35.09-.64.26-.86s.42-.44.73-.65c.34-.19.74-.34,1.21-.45.47-.11.99-.16,1.54-.16s1.05.06,1.49.17c.44.11.82.32,1.12.62.28.28.46.62.54,1.02.08.4.13.91.13,1.52v4.9c0,.3.03.51.09.62.06.11.16.17.31.17.11,0,.21-.03.32-.09.1-.06.21-.13.33-.22l.18.31c-.25.22-.54.38-.87.5s-.7.17-1.11.17c-.44,0-.8-.06-1.06-.19-.26-.13-.45-.3-.57-.51-.11-.22-.17-.47-.17-.76-.29.46-.64.81-1.04,1.07-.41.26-.91.39-1.49.39ZM29.9,25.46c.24,0,.46-.06.66-.17.2-.11.39-.3.57-.57v-3.69c-.11.18-.26.34-.45.49-.19.14-.4.29-.61.44s-.42.31-.62.49c-.2.18-.36.4-.48.67-.12.26-.18.58-.18.95,0,.47.1.82.31,1.04.2.23.47.34.81.34Z"/>
    <path class="cls-1" d="M41.27,14.23v2.95h2.12v.36h-2.12v7.27c0,.36.07.61.2.76.13.15.33.23.59.23.22,0,.43-.08.65-.24.22-.16.41-.44.58-.84l.31.16c-.19.54-.48.98-.87,1.33-.39.35-.92.52-1.59.52-.4,0-.74-.05-1.04-.15-.3-.1-.55-.25-.76-.46-.26-.26-.44-.59-.52-.98s-.13-.9-.13-1.52v-6.08h-1.51v-.36h1.51v-2.38c.5,0,.97-.04,1.4-.13.43-.09.82-.24,1.2-.44Z"/>
    <path class="cls-1" d="M55.08,16.98v7.54c0,.54.08.94.25,1.2.17.26.47.39.9.39v.38c-.37-.04-.74-.05-1.12-.05-.5,0-.97.02-1.4.05s-.84.1-1.22.2v-1.62c-.29.6-.69,1.03-1.2,1.29-.51.26-1.08.39-1.7.39-.5,0-.91-.07-1.22-.2-.31-.13-.56-.3-.74-.5-.2-.23-.35-.53-.43-.9-.08-.37-.13-.85-.13-1.44v-4.55c0-.54-.08-.94-.24-1.2-.16-.26-.47-.39-.91-.39v-.38c.38.04.76.05,1.12.05.5,0,.97-.02,1.41-.06.44-.04.84-.1,1.21-.19v7.45c0,.3.03.56.08.79.05.23.16.4.31.53s.38.19.68.19c.32,0,.61-.09.87-.27.26-.18.47-.43.63-.75.16-.32.24-.67.24-1.07v-4.72c0-.54-.08-.94-.24-1.2-.16-.26-.47-.39-.91-.39v-.38c.38.04.76.05,1.12.05.5,0,.97-.02,1.41-.06.44-.04.84-.1,1.21-.19Z"/>
    <path class="cls-1" d="M65.38,16.93c.38,0,.7.08.94.24s.42.37.53.62.17.52.17.79c0,.44-.13.81-.39,1.09-.26.28-.6.42-1.02.42s-.75-.1-.98-.31c-.23-.21-.35-.49-.35-.84s.08-.61.23-.84c.15-.22.34-.41.57-.57-.17-.05-.34-.04-.5.02-.23.04-.44.13-.65.28s-.38.34-.52.56c-.14.22-.26.46-.34.72-.08.26-.13.51-.13.75v4.77c0,.58.14.97.42,1.17.28.2.71.31,1.27.31v.38c-.28-.01-.68-.03-1.21-.04-.53-.02-1.08-.03-1.66-.03-.48,0-.97,0-1.46.03s-.86.03-1.12.04v-.38c.42,0,.72-.09.89-.27.17-.18.26-.52.26-1.03v-5.67c0-.54-.08-.94-.24-1.2-.16-.26-.46-.39-.91-.39v-.38c.38.04.76.05,1.12.05.5,0,.97-.02,1.41-.06.44-.04.84-.1,1.21-.19v1.67c.14-.32.34-.62.58-.88.24-.26.52-.47.83-.62.31-.15.66-.23,1.04-.23Z"/>
    <path class="cls-1" d="M74.14,16.93c1.06,0,1.88.31,2.48.94.6.62.9,1.64.9,3.06h-5.92l-.04-.34h3.69c.01-.59-.02-1.13-.11-1.63-.08-.5-.22-.9-.4-1.2-.18-.3-.42-.45-.72-.45-.42,0-.78.26-1.07.79-.29.53-.47,1.4-.53,2.63l.05.11c-.01.14-.02.29-.03.45,0,.16,0,.32,0,.49,0,.83.12,1.5.35,2.02.23.52.53.89.89,1.12.36.23.73.35,1.1.35.25,0,.51-.04.78-.12.27-.08.54-.22.82-.43.28-.21.53-.51.77-.89l.32.11c-.14.46-.37.9-.68,1.33-.31.43-.71.79-1.19,1.06-.48.28-1.06.41-1.73.41-.82,0-1.54-.17-2.16-.52-.62-.35-1.11-.88-1.47-1.58-.35-.71-.53-1.61-.53-2.7s.19-2.05.57-2.79c.38-.74.9-1.3,1.57-1.66s1.42-.55,2.28-.55Z"/>
    <path class="cls-1" d="M84.4,12.39v12.42c0,.5.09.85.26,1.03s.47.27.89.27v.38c-.23-.01-.57-.03-1.03-.04s-.92-.03-1.39-.03-.94,0-1.41.03c-.47.02-.83.03-1.07.04v-.38c.42,0,.72-.09.89-.27s.26-.52.26-1.03v-10.26c0-.54-.08-.94-.24-1.2s-.47-.39-.91-.39v-.38c.38.04.76.05,1.12.05.49,0,.96-.02,1.4-.06.44-.04.85-.1,1.22-.19Z"/>
  </g>
  <rect class="cls-1" x="12.73" y="54" width="72.97" height="2.67"/>
  <g>
    <path class="cls-1" d="M13.27,44.63v-8.4h.77l5.35,7.16v-7.16h.77v8.4h-.77l-5.35-7.18v7.18h-.77Z"/>
    <path class="cls-1" d="M28.43,44.77c-.79,0-1.49-.18-2.11-.55-.61-.37-1.09-.88-1.44-1.54-.35-.66-.52-1.41-.52-2.26s.17-1.61.52-2.26c.34-.65.82-1.16,1.42-1.53.6-.37,1.3-.55,2.09-.55s1.49.19,2.1.56c.61.37,1.08.88,1.42,1.54.34.65.51,1.4.51,2.25s-.17,1.6-.51,2.26c-.34.66-.81,1.17-1.41,1.54-.6.37-1.29.55-2.08.55ZM28.43,44.08c.63,0,1.19-.16,1.67-.47s.86-.74,1.14-1.29c.28-.55.41-1.18.41-1.89s-.14-1.34-.42-1.89c-.28-.55-.66-.98-1.15-1.29-.49-.31-1.05-.47-1.69-.47s-1.19.16-1.69.47-.88.74-1.16,1.29-.42,1.18-.42,1.89.14,1.34.42,1.89c.28.55.67.98,1.17,1.29s1.07.47,1.71.47Z"/>
    <path class="cls-1" d="M38.22,44.63v-7.7h-2.74v-.7h6.24v.7h-2.74v7.7h-.77Z"/>
    <path class="cls-1" d="M43.52,44.63l3.46-8.4h.79l3.46,8.4h-.82l-1.07-2.6h-3.94l-1.07,2.6h-.82ZM45.68,41.33h3.38l-1.69-4.13-1.69,4.13Z"/>
    <path class="cls-1" d="M54.95,44.63v-8.4h.77v8.4h-.77Z"/>
    <path class="cls-1" d="M60.51,44.63v-8.4h2.58c.53,0,1,.11,1.4.32.41.21.73.5.95.88.23.37.34.8.34,1.29,0,.55-.16,1.03-.49,1.44-.33.41-.75.7-1.27.88l2.1,3.6h-.84l-2.02-3.44c-.06,0-.11.01-.17.01h-1.82v3.43h-.77ZM61.28,40.49h2.02c.32,0,.61-.08.87-.23.26-.15.47-.36.63-.63.16-.27.24-.57.24-.92,0-.53-.18-.96-.55-1.29s-.83-.5-1.4-.5h-1.81v3.56Z"/>
    <path class="cls-1" d="M70.33,44.63v-8.4h4.84v.7h-4.07v3.02h3.78v.7h-3.78v3.29h4.07v.7h-4.84Z"/>
    <path class="cls-1" d="M82.47,44.77c-.47,0-.89-.05-1.24-.15-.36-.1-.66-.24-.92-.41s-.47-.37-.63-.59c-.16-.22-.29-.44-.38-.68l.72-.28c.14.38.4.71.8.99.4.28.89.43,1.46.43.74,0,1.31-.14,1.72-.43.41-.28.61-.66.61-1.12s-.19-.81-.56-1.07-.86-.48-1.46-.63l-.85-.22c-.37-.1-.71-.23-1.03-.41-.32-.18-.57-.41-.76-.69-.19-.28-.29-.62-.29-1.03,0-.75.24-1.34.72-1.76.48-.42,1.18-.63,2.1-.63.55,0,1.03.09,1.43.28.4.19.72.42.97.7.24.28.41.55.49.83l-.71.28c-.18-.44-.46-.78-.86-1.03-.4-.24-.87-.37-1.43-.37-.59,0-1.06.14-1.41.43-.35.29-.52.68-.52,1.16,0,.44.14.77.41.99.27.22.63.39,1.07.5l.85.2c.85.2,1.5.52,1.95.95.45.44.68.9.68,1.4,0,.42-.11.81-.32,1.17s-.54.64-.97.86-.97.32-1.62.32Z"/>
  </g>
</svg>