<?xml version="1.0" encoding="UTF-8" standalone="no"?>
<!DOCTYPE svg PUBLIC "-//W3C//DTD SVG 1.1//EN" "http://www.w3.org/Graphics/SVG/1.1/DTD/svg11.dtd">
<svg width="100%" height="100%" viewBox="0 0 80 82" version="1.1" xmlns="http://www.w3.org/2000/svg" xmlns:xlink="http://www.w3.org/1999/xlink" xml:space="preserve" xmlns:serif="http://www.serif.com/" style="fill-rule:evenodd;clip-rule:evenodd;stroke-linejoin:round;stroke-miterlimit:2;">
    <g id="Artboard1" transform="matrix(0.932556,0,0,0.987581,-5.54087,-11.608)">
        <rect x="5.942" y="11.754" width="85.154" height="82.212" style="fill:none;"/>
        <g transform="matrix(1.07232,0,0,1.01258,-5.57851,-0.418151)">
            <path d="M41.52,42.29C42.06,42.31 42.8,42.33 43.72,42.35C44.65,42.37 45.57,42.38 46.48,42.38C47.52,42.38 48.54,42.37 49.52,42.35C50.5,42.33 51.2,42.32 51.61,42.32C54.63,42.32 56.9,42.92 58.4,44.12C59.9,45.32 60.65,46.86 60.65,48.76C60.65,49.54 60.5,50.37 60.19,51.22C59.88,52.08 59.37,52.87 58.64,53.6C57.91,54.33 56.91,54.92 55.65,55.38C54.39,55.84 52.8,56.07 50.88,56.07L47.55,56.07L47.55,55.42L50.55,55.42C51.83,55.42 52.81,55.13 53.47,54.54C54.13,53.95 54.59,53.18 54.84,52.22C55.09,51.26 55.22,50.23 55.22,49.12C55.22,47.05 54.92,45.51 54.31,44.48C53.7,43.46 52.66,42.95 51.18,42.95C50.33,42.95 49.78,43.14 49.53,43.5C49.28,43.87 49.15,44.62 49.15,45.75L49.15,61.75C49.15,62.6 49.24,63.23 49.41,63.64C49.58,64.05 49.92,64.33 50.42,64.46C50.92,64.59 51.66,64.67 52.64,64.69L52.64,65.41C51.97,65.39 51.1,65.37 50.03,65.35C48.96,65.33 47.84,65.32 46.67,65.32C45.73,65.32 44.82,65.33 43.93,65.35C43.04,65.37 42.23,65.39 41.51,65.41L41.51,64.76C42.21,64.72 42.73,64.63 43.08,64.5C43.43,64.37 43.66,64.11 43.78,63.72C43.9,63.33 43.96,62.74 43.96,61.96L43.96,45.77C43.96,44.97 43.9,44.37 43.78,43.99C43.66,43.61 43.42,43.35 43.06,43.21C42.7,43.07 42.18,42.99 41.51,42.97L41.51,42.32L41.52,42.29Z" style="fill:rgb(251,244,242);fill-rule:nonzero;"/>
        </g>
        <g transform="matrix(1.07232,0,0,1.01258,-5.57851,-0.418151)">
            <g>
                <path d="M10.87,43.69C10.93,43.54 11,43.33 11.1,43.07C11.19,42.81 11.28,42.55 11.37,42.29C11.47,41.99 11.56,41.7 11.65,41.42C11.74,41.14 11.8,40.94 11.84,40.82C12.12,39.96 12.51,39.37 12.99,39.06C13.47,38.74 13.98,38.68 14.52,38.85C14.74,38.92 14.96,39.04 15.18,39.21C15.4,39.38 15.57,39.6 15.71,39.88C15.85,40.16 15.92,40.5 15.93,40.9C15.94,41.3 15.86,41.78 15.68,42.32L15.37,43.27L15.18,43.21L15.46,42.36C15.58,41.99 15.59,41.69 15.48,41.45C15.37,41.21 15.2,41 14.95,40.84C14.7,40.68 14.42,40.55 14.1,40.44C13.51,40.25 13.04,40.19 12.7,40.26C12.35,40.34 12.11,40.59 11.97,41.01C11.89,41.25 11.89,41.43 11.97,41.53C12.05,41.64 12.25,41.74 12.57,41.85L17.12,43.35C17.36,43.43 17.55,43.46 17.68,43.45C17.81,43.45 17.92,43.37 18.01,43.24C18.09,43.11 18.19,42.91 18.28,42.63L18.48,42.7C18.41,42.89 18.32,43.14 18.22,43.44C18.11,43.74 18.01,44.06 17.89,44.39C17.8,44.66 17.72,44.92 17.64,45.17C17.56,45.43 17.49,45.66 17.43,45.86L17.24,45.8C17.29,45.6 17.32,45.44 17.31,45.33C17.31,45.22 17.25,45.13 17.15,45.06C17.05,44.99 16.89,44.92 16.67,44.84L12.07,43.32C11.84,43.24 11.67,43.21 11.55,43.2C11.43,43.2 11.33,43.24 11.26,43.33C11.19,43.42 11.11,43.56 11.04,43.75L10.85,43.69L10.87,43.69Z" style="fill:rgb(251,244,242);fill-rule:nonzero;"/>
                <path d="M20.76,37.69C20.61,37.94 20.44,38.13 20.25,38.24C20.06,38.35 19.86,38.41 19.65,38.39C19.44,38.38 19.24,38.31 19.05,38.2C18.81,38.06 18.64,37.89 18.55,37.69C18.46,37.49 18.42,37.28 18.42,37.05C18.42,36.82 18.45,36.59 18.5,36.36C18.55,36.13 18.6,35.91 18.64,35.69C18.68,35.47 18.7,35.29 18.68,35.14C18.66,34.98 18.59,34.87 18.46,34.79L17.8,34.41C17.65,34.33 17.51,34.27 17.36,34.26C17.22,34.24 17.08,34.26 16.97,34.33C16.85,34.39 16.75,34.5 16.66,34.66C16.6,34.77 16.55,34.9 16.51,35.03C16.48,35.16 16.48,35.28 16.51,35.4C16.66,35.28 16.81,35.2 16.98,35.18C17.15,35.16 17.3,35.18 17.45,35.27C17.64,35.38 17.76,35.53 17.79,35.73C17.83,35.93 17.79,36.12 17.69,36.3C17.57,36.5 17.42,36.62 17.23,36.65C17.04,36.68 16.86,36.65 16.68,36.54C16.52,36.45 16.4,36.33 16.34,36.18C16.28,36.03 16.24,35.86 16.23,35.66C16.23,35.45 16.27,35.22 16.35,34.97C16.43,34.72 16.54,34.46 16.69,34.2C16.84,33.94 17,33.72 17.17,33.54C17.34,33.36 17.54,33.24 17.76,33.18C17.96,33.12 18.17,33.13 18.38,33.2C18.59,33.27 18.84,33.39 19.13,33.55L21.44,34.87C21.58,34.95 21.69,34.99 21.76,34.99C21.83,34.99 21.88,34.96 21.92,34.89C21.95,34.84 21.96,34.78 21.96,34.72C21.96,34.66 21.96,34.58 21.95,34.51L22.14,34.51C22.17,34.68 22.17,34.87 22.14,35.05C22.1,35.24 22.03,35.43 21.92,35.62C21.8,35.83 21.67,35.98 21.54,36.07C21.41,36.16 21.28,36.2 21.15,36.2C21.02,36.2 20.88,36.15 20.75,36.08C20.89,36.34 20.96,36.6 20.97,36.86C20.98,37.12 20.91,37.39 20.75,37.67L20.76,37.69ZM20.56,36.77C20.63,36.66 20.66,36.54 20.66,36.41C20.66,36.28 20.62,36.15 20.55,35.99L18.81,34.99C18.87,35.09 18.9,35.2 18.92,35.33C18.94,35.46 18.95,35.59 18.96,35.74C18.97,35.88 18.99,36.02 19.03,36.17C19.06,36.31 19.12,36.45 19.21,36.57C19.3,36.69 19.44,36.81 19.61,36.91C19.83,37.04 20.02,37.08 20.18,37.05C20.34,37.01 20.47,36.92 20.56,36.76L20.56,36.77Z" style="fill:rgb(251,244,242);fill-rule:nonzero;"/>
                <path d="M19.59,27.51L20.83,28.52L21.56,27.63L21.71,27.75L20.98,28.64L24.04,31.14C24.19,31.26 24.32,31.32 24.43,31.32C24.54,31.32 24.64,31.26 24.73,31.15C24.8,31.06 24.84,30.94 24.85,30.79C24.85,30.64 24.8,30.47 24.7,30.26L24.87,30.19C25.03,30.46 25.12,30.73 25.13,31.02C25.14,31.3 25.03,31.59 24.8,31.87C24.66,32.04 24.52,32.17 24.38,32.26C24.23,32.35 24.08,32.4 23.93,32.42C23.73,32.44 23.53,32.4 23.34,32.3C23.15,32.2 22.92,32.05 22.66,31.83L20.1,29.74L19.58,30.38L19.43,30.26L19.95,29.62L18.95,28.8C19.12,28.59 19.26,28.38 19.37,28.17C19.48,27.96 19.55,27.74 19.6,27.51L19.59,27.51Z" style="fill:rgb(251,244,242);fill-rule:nonzero;"/>
                <path d="M26.99,22.39L29.66,25.5C29.85,25.72 30.03,25.86 30.19,25.9C30.35,25.95 30.52,25.9 30.7,25.74L30.83,25.9C30.66,26.02 30.5,26.14 30.35,26.27C30.14,26.45 29.96,26.62 29.79,26.79C29.62,26.96 29.48,27.13 29.36,27.3L28.79,26.63C28.88,26.98 28.87,27.3 28.75,27.58C28.63,27.87 28.44,28.12 28.19,28.34C27.98,28.52 27.79,28.64 27.62,28.69C27.44,28.75 27.28,28.76 27.14,28.74C26.98,28.72 26.81,28.65 26.64,28.52C26.47,28.4 26.29,28.21 26.08,27.97L24.47,26.09C24.28,25.87 24.1,25.73 23.95,25.68C23.8,25.63 23.62,25.68 23.44,25.84L23.31,25.68C23.48,25.56 23.64,25.43 23.79,25.31C24,25.13 24.18,24.96 24.35,24.78C24.52,24.61 24.66,24.44 24.78,24.27L27.42,27.34C27.53,27.46 27.63,27.56 27.73,27.64C27.83,27.71 27.94,27.75 28.05,27.75C28.16,27.75 28.28,27.69 28.4,27.58C28.53,27.47 28.62,27.33 28.66,27.16C28.7,26.99 28.7,26.82 28.66,26.63C28.62,26.44 28.52,26.27 28.38,26.1L26.71,24.16C26.52,23.94 26.34,23.8 26.19,23.75C26.04,23.7 25.86,23.75 25.68,23.91L25.55,23.75C25.72,23.63 25.88,23.5 26.03,23.38C26.24,23.2 26.42,23.03 26.59,22.85C26.76,22.68 26.9,22.51 27.02,22.34L26.99,22.39Z" style="fill:rgb(251,244,242);fill-rule:nonzero;"/>
                <path d="M32.78,18.68C32.96,18.58 33.13,18.53 33.29,18.54C33.45,18.55 33.59,18.6 33.71,18.69C33.83,18.78 33.93,18.89 34,19.02C34.12,19.23 34.16,19.44 34.11,19.64C34.06,19.84 33.94,20 33.74,20.11C33.54,20.22 33.36,20.26 33.19,20.23C33.02,20.19 32.89,20.09 32.8,19.93C32.71,19.77 32.67,19.62 32.68,19.47C32.69,19.32 32.73,19.18 32.8,19.05C32.71,19.07 32.63,19.12 32.57,19.19C32.47,19.27 32.4,19.37 32.34,19.5C32.28,19.63 32.25,19.76 32.24,19.9C32.24,20.04 32.24,20.19 32.27,20.33C32.3,20.47 32.35,20.6 32.41,20.72L33.69,22.97C33.84,23.24 34.02,23.39 34.2,23.41C34.39,23.43 34.62,23.37 34.88,23.21L34.98,23.39C34.85,23.46 34.65,23.56 34.4,23.69C34.15,23.82 33.88,23.97 33.61,24.12C33.38,24.25 33.16,24.38 32.93,24.52C32.7,24.66 32.53,24.77 32.42,24.84L32.32,24.66C32.52,24.55 32.63,24.43 32.67,24.29C32.7,24.16 32.65,23.97 32.52,23.74L31,21.06C30.85,20.8 30.71,20.64 30.56,20.56C30.41,20.48 30.24,20.5 30.03,20.62L29.93,20.44C30.12,20.35 30.3,20.26 30.47,20.17C30.71,20.03 30.93,19.9 31.12,19.76C31.31,19.62 31.49,19.48 31.64,19.34L32.09,20.13C32.07,19.94 32.09,19.75 32.13,19.56C32.17,19.37 32.25,19.2 32.35,19.04C32.46,18.88 32.6,18.76 32.78,18.65L32.78,18.68Z" style="fill:rgb(251,244,242);fill-rule:nonzero;"/>
                <path d="M38.27,16.33C38.81,16.14 39.29,16.15 39.71,16.36C40.13,16.57 40.47,17.04 40.73,17.76L37.7,18.84L37.62,18.67L39.51,18C39.41,17.7 39.29,17.42 39.16,17.19C39.03,16.95 38.89,16.77 38.74,16.65C38.59,16.53 38.44,16.5 38.29,16.55C38.07,16.63 37.94,16.83 37.89,17.15C37.84,17.47 37.9,17.95 38.1,18.59L38.15,18.63C38.17,18.71 38.19,18.78 38.22,18.87C38.24,18.95 38.27,19.04 38.3,19.12C38.45,19.54 38.63,19.87 38.85,20.09C39.07,20.31 39.28,20.45 39.51,20.5C39.74,20.55 39.95,20.55 40.14,20.48C40.27,20.43 40.39,20.37 40.52,20.28C40.64,20.19 40.76,20.07 40.86,19.91C40.96,19.75 41.04,19.55 41.09,19.31L41.28,19.31C41.28,19.57 41.25,19.83 41.17,20.11C41.09,20.39 40.95,20.64 40.76,20.87C40.57,21.1 40.29,21.27 39.95,21.4C39.53,21.55 39.13,21.59 38.75,21.53C38.37,21.47 38.02,21.28 37.71,20.99C37.4,20.69 37.15,20.26 36.95,19.7C36.75,19.13 36.67,18.62 36.73,18.17C36.79,17.72 36.95,17.34 37.23,17.03C37.51,16.72 37.86,16.49 38.3,16.33L38.27,16.33Z" style="fill:rgb(251,244,242);fill-rule:nonzero;"/>
                <path d="M44.33,12.24L45.56,18.87C45.61,19.14 45.69,19.31 45.8,19.39C45.91,19.47 46.08,19.49 46.3,19.45L46.34,19.65C46.22,19.67 46.03,19.69 45.79,19.73C45.55,19.77 45.3,19.81 45.05,19.85C44.8,19.9 44.55,19.95 44.3,20C44.05,20.06 43.86,20.1 43.73,20.13L43.69,19.93C43.91,19.89 44.06,19.81 44.14,19.7C44.22,19.59 44.23,19.4 44.18,19.13L43.17,13.65C43.12,13.36 43.03,13.16 42.92,13.03C42.81,12.91 42.63,12.87 42.4,12.91L42.36,12.71C42.57,12.69 42.77,12.66 42.96,12.63C43.22,12.58 43.47,12.52 43.7,12.46C43.93,12.39 44.14,12.32 44.33,12.24Z" style="fill:rgb(251,244,242);fill-rule:nonzero;"/>
                <path d="M56.84,19.68L57.77,15.28L58.17,15.36L60.18,19.7L60.97,15.95L61.37,16.03L60.44,20.43L60.04,20.35L58.03,16L57.24,19.76L56.84,19.68Z" style="fill:rgb(251,244,242);fill-rule:nonzero;"/>
                <path d="M64.79,22.06C64.4,21.9 64.09,21.66 63.86,21.35C63.63,21.04 63.5,20.69 63.46,20.29C63.42,19.89 63.49,19.49 63.67,19.07C63.85,18.65 64.09,18.31 64.39,18.06C64.69,17.81 65.03,17.65 65.41,17.6C65.78,17.54 66.17,17.6 66.56,17.76C66.95,17.92 67.26,18.16 67.48,18.47C67.7,18.78 67.83,19.13 67.87,19.52C67.91,19.91 67.83,20.32 67.66,20.74C67.49,21.16 67.25,21.5 66.94,21.75C66.64,22 66.3,22.16 65.93,22.22C65.56,22.28 65.18,22.22 64.79,22.06ZM64.93,21.71C65.24,21.84 65.55,21.88 65.85,21.82C66.15,21.76 66.43,21.63 66.68,21.42C66.93,21.21 67.13,20.92 67.27,20.57C67.42,20.22 67.48,19.88 67.45,19.55C67.42,19.22 67.32,18.93 67.15,18.67C66.97,18.42 66.73,18.22 66.41,18.09C66.1,17.96 65.79,17.92 65.48,17.97C65.17,18.02 64.89,18.16 64.64,18.37C64.39,18.58 64.19,18.87 64.04,19.22C63.89,19.57 63.83,19.91 63.86,20.24C63.89,20.57 63.99,20.86 64.17,21.12C64.35,21.38 64.6,21.57 64.92,21.7L64.93,21.71Z" style="fill:rgb(251,244,242);fill-rule:nonzero;"/>
                <path d="M69.7,24.49L71.89,20.99L70.65,20.21L70.85,19.89L73.68,21.66L73.48,21.98L72.24,21.2L70.05,24.7L69.7,24.48L69.7,24.49Z" style="fill:rgb(251,244,242);fill-rule:nonzero;"/>
                <path d="M72.32,26.2L76.64,23.96L76.96,24.23L75.47,28.86L75.14,28.58L75.6,27.15L73.99,25.79L72.65,26.49L72.32,26.21L72.32,26.2ZM74.34,25.6L75.72,26.77L76.46,24.5L74.34,25.6Z" style="fill:rgb(251,244,242);fill-rule:nonzero;"/>
                <path d="M77.04,30.55L80.37,27.52L80.65,27.82L77.32,30.85L77.04,30.55Z" style="fill:rgb(251,244,242);fill-rule:nonzero;"/>
                <path d="M79.17,33.05L82.85,30.47L83.64,31.6C83.8,31.83 83.9,32.07 83.93,32.31C83.96,32.55 83.93,32.78 83.84,33C83.75,33.21 83.59,33.4 83.38,33.55C83.14,33.72 82.88,33.8 82.6,33.78C82.32,33.76 82.06,33.67 81.82,33.49L80.89,35.52L80.63,35.15L81.52,33.21C81.52,33.21 81.48,33.16 81.46,33.14C81.44,33.12 81.42,33.09 81.41,33.07L80.9,32.34L79.4,33.4L79.16,33.06L79.17,33.05ZM81.22,32.12L81.84,33C81.94,33.14 82.06,33.24 82.21,33.31C82.36,33.38 82.51,33.4 82.68,33.39C82.85,33.38 83.01,33.32 83.16,33.21C83.39,33.05 83.52,32.83 83.56,32.57C83.6,32.31 83.52,32.05 83.35,31.8L82.79,31.01L81.23,32.11L81.22,32.12Z" style="fill:rgb(251,244,242);fill-rule:nonzero;"/>
                <path d="M82.16,37.72L86.2,35.74L87.34,38.07L87.01,38.23L86.05,36.27L84.6,36.98L85.49,38.8L85.16,38.96L84.27,37.14L82.69,37.91L83.65,39.87L83.32,40.03L82.18,37.7L82.16,37.72Z" style="fill:rgb(251,244,242);fill-rule:nonzero;"/>
                <path d="M84.66,43.98C84.59,43.74 84.55,43.52 84.54,43.32C84.54,43.12 84.56,42.94 84.61,42.78C84.66,42.62 84.73,42.48 84.81,42.36C84.89,42.24 84.99,42.14 85.1,42.06L85.35,42.39C85.18,42.52 85.05,42.71 84.97,42.96C84.89,43.21 84.89,43.48 84.98,43.78C85.1,44.16 85.26,44.43 85.47,44.59C85.68,44.75 85.9,44.8 86.14,44.73C86.37,44.66 86.52,44.51 86.6,44.27C86.68,44.04 86.71,43.75 86.69,43.42L86.67,42.95C86.67,42.75 86.67,42.55 86.72,42.36C86.76,42.17 86.84,42 86.95,41.86C87.06,41.72 87.22,41.61 87.43,41.55C87.82,41.43 88.15,41.46 88.44,41.64C88.73,41.82 88.95,42.14 89.09,42.62C89.18,42.9 89.2,43.16 89.17,43.4C89.14,43.63 89.07,43.84 88.97,44C88.87,44.16 88.75,44.29 88.62,44.38L88.37,44.06C88.57,43.9 88.7,43.7 88.76,43.46C88.82,43.22 88.81,42.96 88.72,42.67C88.63,42.37 88.48,42.15 88.28,42.02C88.08,41.89 87.85,41.86 87.6,41.94C87.37,42.01 87.23,42.13 87.16,42.3C87.09,42.47 87.06,42.68 87.07,42.92L87.1,43.39C87.13,43.85 87.07,44.24 86.92,44.54C86.77,44.84 86.56,45.03 86.31,45.11C86.09,45.18 85.88,45.18 85.66,45.13C85.44,45.08 85.25,44.96 85.07,44.77C84.89,44.58 84.75,44.32 84.65,43.99L84.66,43.98Z" style="fill:rgb(251,244,242);fill-rule:nonzero;"/>
            </g>
            <g>
                <path d="M12.95,64.42C12.91,64.28 12.9,64.15 12.9,64.03C12.9,63.91 12.94,63.8 12.98,63.7C13.02,63.6 13.08,63.52 13.14,63.45L13.38,63.68C13.38,63.68 13.32,63.77 13.29,63.83C13.26,63.89 13.23,63.96 13.22,64.03C13.21,64.11 13.22,64.2 13.25,64.3C13.3,64.48 13.4,64.61 13.53,64.69C13.67,64.77 13.81,64.79 13.97,64.74C14.09,64.71 14.18,64.64 14.24,64.55C14.3,64.46 14.34,64.35 14.35,64.21C14.35,64.08 14.34,63.92 14.29,63.75L14.27,63.67L14.56,63.59L14.58,63.67C14.65,63.9 14.74,64.07 14.86,64.18C14.98,64.29 15.11,64.33 15.26,64.28C15.34,64.26 15.41,64.21 15.46,64.15C15.52,64.09 15.55,64.01 15.57,63.92C15.59,63.83 15.58,63.73 15.55,63.62C15.53,63.55 15.5,63.48 15.46,63.43C15.42,63.37 15.38,63.32 15.32,63.28C15.27,63.24 15.2,63.21 15.13,63.18L15.2,62.87C15.3,62.9 15.39,62.94 15.47,63C15.55,63.06 15.63,63.14 15.69,63.23C15.75,63.32 15.8,63.43 15.84,63.55C15.89,63.71 15.9,63.87 15.87,64.02C15.84,64.17 15.79,64.29 15.7,64.4C15.61,64.51 15.5,64.58 15.36,64.62C15.22,64.66 15.09,64.66 14.96,64.61C14.83,64.56 14.72,64.47 14.62,64.35C14.6,64.53 14.54,64.68 14.44,64.81C14.35,64.94 14.21,65.03 14.04,65.08C13.88,65.13 13.72,65.13 13.57,65.08C13.42,65.03 13.29,64.95 13.19,64.83C13.08,64.71 13,64.57 12.95,64.4L12.95,64.42Z" style="fill:rgb(251,244,242);fill-rule:nonzero;"/>
                <path d="M13.84,66.99L16.55,65.93L16.9,66.81C16.97,66.99 16.99,67.16 16.97,67.32C16.95,67.48 16.89,67.63 16.79,67.76C16.69,67.89 16.56,67.98 16.39,68.05C16.22,68.11 16.06,68.14 15.91,68.12C15.75,68.1 15.61,68.04 15.49,67.95C15.37,67.86 15.28,67.73 15.21,67.57L14.96,66.93L13.96,67.32L13.83,66.99L13.84,66.99ZM15.27,66.81L15.52,67.45C15.58,67.59 15.67,67.69 15.81,67.74C15.95,67.79 16.1,67.78 16.27,67.72C16.44,67.65 16.55,67.55 16.61,67.4C16.67,67.25 16.67,67.09 16.61,66.92L16.39,66.37L15.27,66.81Z" style="fill:rgb(251,244,242);fill-rule:nonzero;"/>
                <path d="M14.76,69.24L17.42,68.06L17.56,68.36L14.9,69.54L14.76,69.24Z" style="fill:rgb(251,244,242);fill-rule:nonzero;"/>
                <path d="M15.41,70.76C15.3,70.54 15.27,70.34 15.31,70.17C15.35,70 15.46,69.87 15.64,69.78C15.83,69.69 16,69.68 16.17,69.75C16.33,69.83 16.47,69.98 16.58,70.2L16.84,70.72C17.01,70.62 17.12,70.51 17.17,70.39C17.22,70.27 17.21,70.14 17.14,69.99C17.09,69.89 17.03,69.81 16.95,69.76C16.87,69.71 16.78,69.68 16.66,69.68L16.63,69.36C16.74,69.36 16.84,69.38 16.94,69.42C17.04,69.46 17.12,69.51 17.2,69.58C17.28,69.65 17.35,69.75 17.4,69.86C17.49,70.03 17.52,70.19 17.51,70.34C17.5,70.49 17.44,70.62 17.33,70.74C17.22,70.86 17.07,70.97 16.88,71.07L15.87,71.57L15.73,71.29L15.97,71.15C15.85,71.15 15.74,71.1 15.64,71.04C15.54,70.98 15.46,70.88 15.4,70.75L15.41,70.76ZM15.68,70.64C15.73,70.75 15.8,70.83 15.89,70.89C15.98,70.95 16.07,70.98 16.18,70.98C16.29,70.98 16.4,70.95 16.52,70.89L16.59,70.85L16.36,70.39C16.27,70.22 16.18,70.11 16.09,70.06C16,70.01 15.9,70.02 15.79,70.07C15.69,70.12 15.63,70.19 15.61,70.29C15.59,70.39 15.61,70.5 15.68,70.63L15.68,70.64Z" style="fill:rgb(251,244,242);fill-rule:nonzero;"/>
                <path d="M16.59,72.98C16.49,72.8 16.44,72.62 16.44,72.44C16.44,72.26 16.49,72.09 16.59,71.93C16.69,71.77 16.83,71.64 17.02,71.54C17.21,71.43 17.39,71.38 17.58,71.37C17.77,71.36 17.94,71.41 18.1,71.5C18.26,71.59 18.39,71.73 18.49,71.9C18.59,72.07 18.64,72.25 18.64,72.43C18.64,72.61 18.59,72.78 18.48,72.94L18.21,72.74C18.28,72.64 18.31,72.52 18.32,72.4C18.32,72.28 18.29,72.16 18.22,72.04C18.15,71.92 18.06,71.83 17.95,71.78C17.84,71.72 17.72,71.7 17.59,71.7C17.46,71.7 17.33,71.75 17.19,71.82C17.05,71.89 16.95,71.99 16.88,72.1C16.81,72.21 16.77,72.33 16.76,72.45C16.76,72.58 16.79,72.7 16.85,72.82C16.92,72.94 17.01,73.03 17.12,73.09C17.23,73.15 17.36,73.17 17.49,73.16L17.52,73.49C17.32,73.51 17.14,73.47 16.98,73.38C16.82,73.29 16.68,73.16 16.58,72.98L16.59,72.98Z" style="fill:rgb(251,244,242);fill-rule:nonzero;"/>
                <path d="M17.82,75C17.71,74.83 17.65,74.66 17.64,74.47C17.63,74.28 17.67,74.12 17.76,73.95C17.85,73.79 17.98,73.65 18.16,73.53C18.34,73.41 18.52,73.35 18.71,73.33C18.89,73.31 19.07,73.34 19.23,73.42C19.39,73.5 19.53,73.62 19.64,73.79C19.75,73.95 19.8,74.12 19.79,74.29C19.79,74.46 19.73,74.63 19.63,74.78C19.53,74.93 19.38,75.08 19.18,75.21L18.29,73.84C18.11,73.98 18,74.13 17.96,74.31C17.92,74.49 17.96,74.66 18.07,74.83C18.15,74.95 18.25,75.04 18.36,75.09C18.47,75.14 18.59,75.15 18.72,75.14L18.75,75.46C18.63,75.47 18.51,75.46 18.4,75.44C18.28,75.41 18.18,75.36 18.07,75.28C17.96,75.2 17.88,75.11 17.8,74.99L17.82,75ZM18.55,73.72L19.23,74.77C19.32,74.7 19.39,74.62 19.44,74.52C19.48,74.43 19.5,74.33 19.49,74.23C19.49,74.13 19.45,74.04 19.39,73.95C19.33,73.86 19.26,73.79 19.17,73.73C19.08,73.67 18.98,73.64 18.87,73.64C18.76,73.64 18.65,73.66 18.55,73.72Z" style="fill:rgb(251,244,242);fill-rule:nonzero;"/>
                <path d="M19.17,76.89L22.19,76L22.42,76.29L20.88,79.03L20.65,78.74L21.09,77.96L20.27,76.93L19.41,77.18L19.18,76.89L19.17,76.89ZM20.59,76.83L21.26,77.67L21.96,76.42L20.59,76.83Z" style="fill:rgb(251,244,242);fill-rule:nonzero;"/>
                <path d="M21.2,79.38L22.74,77.98L22.95,78.21L22.73,78.43C22.86,78.4 22.99,78.41 23.11,78.45C23.23,78.49 23.34,78.56 23.44,78.67C23.55,78.79 23.62,78.92 23.66,79.05C23.69,79.18 23.68,79.32 23.62,79.47C23.56,79.62 23.45,79.77 23.27,79.92L22.41,80.71L22.19,80.46L22.98,79.74C23.13,79.6 23.23,79.48 23.28,79.37C23.33,79.26 23.34,79.16 23.31,79.08C23.28,78.99 23.23,78.91 23.16,78.83C23.04,78.69 22.89,78.63 22.73,78.65C22.57,78.67 22.4,78.75 22.22,78.91L21.42,79.64L21.2,79.39L21.2,79.38Z" style="fill:rgb(251,244,242);fill-rule:nonzero;"/>
                <path d="M23.41,81.77C23.28,81.64 23.19,81.49 23.15,81.33C23.11,81.17 23.12,81 23.18,80.82C23.24,80.65 23.34,80.48 23.49,80.33C23.64,80.18 23.8,80.07 23.97,80C24.14,79.94 24.31,79.92 24.47,79.95C24.64,79.98 24.79,80.06 24.92,80.19C25.03,80.3 25.1,80.42 25.14,80.55C25.18,80.68 25.18,80.82 25.14,80.96L25.96,80.11L26.2,80.34L24.17,82.44L23.94,82.22L24.17,81.95C24.03,81.99 23.89,81.99 23.75,81.95C23.61,81.92 23.49,81.85 23.38,81.74L23.41,81.77ZM23.68,81.61C23.77,81.7 23.87,81.75 23.98,81.76C24.09,81.77 24.21,81.76 24.33,81.72C24.45,81.67 24.56,81.6 24.67,81.49L24.69,81.47C24.79,81.36 24.86,81.24 24.91,81.12C24.95,81 24.96,80.88 24.94,80.77C24.92,80.66 24.86,80.56 24.77,80.47C24.68,80.38 24.57,80.32 24.45,80.3C24.33,80.28 24.21,80.29 24.08,80.33C23.96,80.38 23.84,80.45 23.73,80.56C23.62,80.67 23.55,80.79 23.51,80.91C23.47,81.04 23.46,81.16 23.49,81.28C23.52,81.4 23.58,81.5 23.67,81.59L23.68,81.61Z" style="fill:rgb(251,244,242);fill-rule:nonzero;"/>
                <path d="M24.72,82.93L26.09,81.36L26.34,81.58L26.1,81.86C26.25,81.82 26.39,81.82 26.53,81.86C26.67,81.9 26.79,81.97 26.9,82.06L26.69,82.3C26.6,82.22 26.5,82.16 26.39,82.12C26.28,82.08 26.17,82.06 26.05,82.09C25.94,82.11 25.83,82.18 25.72,82.3L24.97,83.16L24.72,82.94L24.72,82.93Z" style="fill:rgb(251,244,242);fill-rule:nonzero;"/>
                <path d="M26.54,84.51C26.38,84.38 26.27,84.24 26.2,84.07C26.14,83.9 26.12,83.72 26.15,83.54C26.18,83.36 26.27,83.18 26.4,83.01C26.53,82.84 26.68,82.72 26.85,82.65C27.02,82.58 27.19,82.55 27.37,82.57C27.55,82.59 27.72,82.67 27.87,82.79C28.02,82.91 28.12,83.05 28.18,83.21C28.23,83.37 28.23,83.55 28.18,83.73C28.13,83.91 28.04,84.1 27.9,84.28L26.62,83.27C26.49,83.46 26.44,83.64 26.46,83.82C26.48,84 26.57,84.15 26.73,84.28C26.85,84.37 26.96,84.42 27.09,84.43C27.21,84.43 27.33,84.42 27.45,84.36L27.59,84.65C27.48,84.7 27.37,84.73 27.25,84.74C27.13,84.74 27.01,84.74 26.89,84.7C26.77,84.66 26.65,84.6 26.54,84.51ZM26.83,83.07L27.81,83.85C27.88,83.75 27.92,83.65 27.93,83.55C27.94,83.45 27.93,83.35 27.89,83.26C27.85,83.17 27.79,83.09 27.71,83.02C27.63,82.95 27.53,82.91 27.43,82.89C27.33,82.87 27.22,82.87 27.12,82.89C27.02,82.92 26.92,82.98 26.84,83.06L26.83,83.07ZM27.82,82.43L28.54,82.31L28.88,82.58L28.13,82.67L27.83,82.44L27.82,82.43Z" style="fill:rgb(251,244,242);fill-rule:nonzero;"/>
                <path d="M28.74,86.09L30.3,83.63L30.61,83.83L30.67,85.63L32.32,84.91L32.63,85.1L31.07,87.56L30.77,87.37L32.03,85.39L30.36,86.13L30.31,84.31L29.06,86.29L28.76,86.1L28.74,86.09Z" style="fill:rgb(251,244,242);fill-rule:nonzero;"/>
                <path d="M32.34,88.31C32.13,88.2 31.98,88.06 31.91,87.89C31.84,87.72 31.85,87.56 31.95,87.38C32.05,87.19 32.19,87.08 32.36,87.05C32.54,87.02 32.74,87.05 32.96,87.18L33.47,87.45C33.55,87.27 33.58,87.12 33.55,86.99C33.52,86.86 33.44,86.76 33.29,86.68C33.19,86.63 33.09,86.6 33,86.6C32.91,86.6 32.81,86.63 32.72,86.7L32.51,86.46C32.6,86.4 32.7,86.36 32.8,86.33C32.9,86.3 33,86.3 33.11,86.31C33.22,86.32 33.32,86.36 33.44,86.42C33.61,86.51 33.73,86.62 33.81,86.75C33.89,86.88 33.92,87.02 33.9,87.18C33.89,87.34 33.83,87.52 33.72,87.71L33.19,88.7L32.92,88.55L33.04,88.3C32.94,88.36 32.83,88.4 32.71,88.4C32.59,88.4 32.47,88.37 32.35,88.31L32.34,88.31ZM32.49,88.06C32.6,88.12 32.7,88.14 32.8,88.14C32.9,88.14 33,88.1 33.08,88.04C33.17,87.98 33.24,87.89 33.3,87.77L33.34,87.7L32.89,87.46C32.72,87.37 32.58,87.33 32.48,87.35C32.38,87.37 32.3,87.43 32.24,87.53C32.19,87.62 32.18,87.72 32.23,87.81C32.28,87.9 32.36,87.98 32.48,88.05L32.49,88.06Z" style="fill:rgb(251,244,242);fill-rule:nonzero;"/>
                <path d="M33.73,88.96L35,86.33L35.3,86.47L34.03,89.1L33.73,88.96Z" style="fill:rgb(251,244,242);fill-rule:nonzero;"/>
                <path d="M34.63,89.39L35.48,87.49L35.78,87.62L35.63,87.96C35.76,87.87 35.9,87.83 36.04,87.83C36.18,87.83 36.32,87.86 36.46,87.91L36.33,88.2C36.22,88.15 36.1,88.12 35.98,88.11C35.86,88.11 35.75,88.12 35.65,88.18C35.55,88.24 35.46,88.33 35.4,88.48L34.94,89.53L34.64,89.39L34.63,89.39Z" style="fill:rgb(251,244,242);fill-rule:nonzero;"/>
                <path d="M36.61,90.28C36.38,90.19 36.22,90.07 36.14,89.92C36.05,89.77 36.05,89.59 36.12,89.41C36.2,89.21 36.32,89.09 36.49,89.03C36.66,88.97 36.86,88.99 37.1,89.09L37.64,89.3C37.7,89.11 37.71,88.96 37.67,88.83C37.63,88.71 37.53,88.62 37.37,88.56C37.26,88.52 37.16,88.5 37.07,88.52C36.98,88.53 36.89,88.58 36.8,88.65L36.56,88.43C36.64,88.36 36.73,88.3 36.83,88.26C36.93,88.22 37.03,88.2 37.13,88.2C37.23,88.2 37.35,88.23 37.47,88.27C37.65,88.34 37.79,88.43 37.88,88.55C37.97,88.67 38.02,88.81 38.02,88.97C38.02,89.13 37.99,89.31 37.91,89.52L37.5,90.57L37.21,90.46L37.3,90.19C37.21,90.27 37.1,90.31 36.98,90.33C36.86,90.35 36.74,90.33 36.61,90.28ZM36.73,90.01C36.84,90.05 36.95,90.07 37.05,90.05C37.15,90.03 37.24,89.99 37.32,89.92C37.4,89.85 37.46,89.75 37.51,89.63L37.54,89.55L37.06,89.36C36.88,89.29 36.74,89.27 36.64,89.3C36.54,89.33 36.47,89.4 36.43,89.51C36.39,89.61 36.4,89.7 36.45,89.79C36.5,89.88 36.6,89.95 36.73,90L36.73,90.01Z" style="fill:rgb(251,244,242);fill-rule:nonzero;"/>
                <path d="M38.81,91.06C38.66,91.01 38.53,90.94 38.44,90.84C38.35,90.74 38.29,90.61 38.27,90.46C38.25,90.3 38.27,90.12 38.34,89.9L38.7,88.79L39.02,88.89L38.69,89.9C38.63,90.1 38.6,90.25 38.61,90.37C38.62,90.49 38.66,90.58 38.73,90.64C38.8,90.7 38.88,90.75 38.98,90.78C39.15,90.84 39.31,90.82 39.44,90.72C39.58,90.63 39.68,90.47 39.75,90.25L40.08,89.22L40.4,89.32L39.76,91.3L39.46,91.2L39.54,90.9C39.44,90.99 39.33,91.05 39.2,91.07C39.08,91.1 38.94,91.09 38.8,91.04L38.81,91.06Z" style="fill:rgb(251,244,242);fill-rule:nonzero;"/>
                <path d="M40.19,91.45L41.21,90.6L40.77,89.45L41.15,89.55L41.45,90.39L42.11,89.8L42.49,89.9L41.56,90.7L42.02,91.93L41.63,91.83L41.31,90.91L40.58,91.55L40.19,91.45Z" style="fill:rgb(251,244,242);fill-rule:nonzero;"/>
                <path d="M43.6,92.25L45.4,89.93L43.87,89.67L43.92,89.35L45.83,89.68L45.78,89.97L43.98,92.32L43.6,92.25Z" style="fill:rgb(251,244,242);fill-rule:nonzero;"/>
                <path d="M46.82,92.77C46.61,92.75 46.43,92.7 46.28,92.61C46.13,92.52 46.02,92.42 45.95,92.29C45.88,92.16 45.85,92.02 45.87,91.86C45.89,91.69 45.95,91.54 46.06,91.42C46.17,91.3 46.31,91.21 46.48,91.16C46.36,91.08 46.27,90.98 46.2,90.86C46.13,90.74 46.11,90.6 46.13,90.45C46.15,90.3 46.2,90.16 46.29,90.05C46.38,89.94 46.5,89.86 46.65,89.81C46.8,89.76 46.96,89.74 47.15,89.76C47.34,89.78 47.5,89.83 47.63,89.91C47.76,89.99 47.86,90.09 47.93,90.22C48,90.35 48.02,90.49 48,90.64C47.98,90.79 47.93,90.92 47.85,91.02C47.76,91.13 47.65,91.2 47.52,91.25C47.68,91.33 47.79,91.45 47.87,91.59C47.95,91.73 47.98,91.89 47.96,92.06C47.94,92.22 47.89,92.36 47.79,92.47C47.69,92.58 47.56,92.66 47.4,92.71C47.24,92.76 47.05,92.78 46.84,92.75L46.82,92.77ZM46.86,92.46C47.06,92.48 47.24,92.46 47.38,92.37C47.52,92.29 47.6,92.16 47.62,92.01C47.64,91.85 47.59,91.71 47.47,91.6C47.35,91.49 47.19,91.42 46.99,91.4C46.86,91.39 46.74,91.4 46.63,91.43C46.52,91.46 46.43,91.52 46.37,91.59C46.31,91.66 46.26,91.76 46.25,91.86C46.24,91.96 46.25,92.06 46.31,92.14C46.36,92.23 46.43,92.3 46.53,92.35C46.63,92.41 46.74,92.44 46.88,92.45L46.86,92.46ZM47,91.06C47.17,91.08 47.32,91.06 47.44,90.98C47.56,90.9 47.63,90.8 47.64,90.66C47.66,90.51 47.61,90.38 47.51,90.27C47.41,90.16 47.27,90.1 47.1,90.08C46.93,90.06 46.78,90.09 46.66,90.18C46.54,90.26 46.47,90.38 46.45,90.54C46.44,90.68 46.48,90.8 46.58,90.9C46.68,91 46.82,91.06 46.99,91.08L47,91.06Z" style="fill:rgb(251,244,242);fill-rule:nonzero;"/>
                <path d="M49.14,92.9L49.26,90.45C49.15,90.53 49.04,90.6 48.93,90.64C48.82,90.69 48.71,90.71 48.6,90.7L48.62,90.38C48.68,90.38 48.75,90.37 48.83,90.33C48.91,90.29 49,90.24 49.09,90.18C49.18,90.12 49.26,90.05 49.33,89.98L49.65,90L49.51,92.91L49.16,92.89L49.14,92.9Z" style="fill:rgb(251,244,242);fill-rule:nonzero;"/>
                <path d="M51.42,92.99C51.2,92.99 51,92.93 50.83,92.81C50.66,92.68 50.52,92.51 50.42,92.28C50.32,92.05 50.27,91.8 50.26,91.5C50.26,91.21 50.3,90.94 50.39,90.72C50.48,90.49 50.61,90.31 50.78,90.18C50.95,90.05 51.15,89.98 51.37,89.98C51.6,89.98 51.79,90.04 51.97,90.16C52.14,90.29 52.28,90.46 52.38,90.69C52.48,90.91 52.53,91.17 52.54,91.47C52.54,91.76 52.5,92.03 52.41,92.25C52.32,92.48 52.18,92.66 52.01,92.79C51.84,92.92 51.65,92.99 51.42,92.99ZM51.42,92.68C51.57,92.68 51.71,92.62 51.83,92.52C51.95,92.42 52.04,92.27 52.1,92.1C52.17,91.92 52.2,91.72 52.19,91.48C52.18,91.24 52.15,91.04 52.08,90.86C52.01,90.68 51.91,90.54 51.79,90.44C51.67,90.34 51.53,90.29 51.37,90.29C51.21,90.29 51.08,90.35 50.96,90.45C50.84,90.55 50.75,90.69 50.69,90.87C50.63,91.05 50.59,91.26 50.6,91.49C50.61,91.72 50.64,91.93 50.71,92.11C50.78,92.29 50.88,92.43 51,92.53C51.12,92.63 51.26,92.68 51.42,92.68Z" style="fill:rgb(251,244,242);fill-rule:nonzero;"/>
                <path d="M54.19,92.87C53.97,92.89 53.77,92.84 53.59,92.72C53.41,92.6 53.26,92.44 53.15,92.22C53.04,92 52.97,91.75 52.94,91.45C52.92,91.16 52.94,90.89 53.02,90.66C53.1,90.43 53.22,90.24 53.38,90.1C53.54,89.96 53.73,89.88 53.95,89.86C54.17,89.84 54.38,89.89 54.56,90.01C54.74,90.13 54.89,90.29 55,90.51C55.11,90.73 55.18,90.98 55.21,91.28C55.23,91.57 55.21,91.84 55.12,92.07C55.03,92.3 54.92,92.49 54.76,92.63C54.6,92.77 54.41,92.85 54.18,92.87L54.19,92.87ZM54.17,92.56C54.32,92.55 54.46,92.49 54.57,92.37C54.68,92.26 54.76,92.11 54.82,91.93C54.87,91.75 54.89,91.54 54.87,91.31C54.85,91.08 54.8,90.87 54.72,90.7C54.64,90.53 54.53,90.39 54.41,90.3C54.28,90.21 54.14,90.17 53.99,90.18C53.84,90.19 53.7,90.25 53.59,90.36C53.48,90.47 53.4,90.62 53.34,90.8C53.29,90.98 53.27,91.19 53.29,91.42C53.31,91.65 53.36,91.86 53.44,92.03C53.52,92.2 53.63,92.34 53.75,92.43C53.88,92.52 54.02,92.56 54.17,92.55L54.17,92.56Z" style="fill:rgb(251,244,242);fill-rule:nonzero;"/>
                <path d="M58.05,92.38C57.89,92.41 57.75,92.42 57.62,92.4C57.49,92.38 57.38,92.36 57.28,92.31C57.18,92.26 57.09,92.21 57.02,92.14C56.95,92.07 56.89,92 56.85,91.92L57.16,91.75C57.22,91.86 57.32,91.95 57.46,92.02C57.6,92.09 57.76,92.1 57.94,92.07C58.16,92.03 58.33,91.96 58.44,91.85C58.55,91.74 58.59,91.61 58.57,91.47C58.55,91.34 58.47,91.24 58.34,91.17C58.21,91.11 58.05,91.07 57.86,91.05L57.53,91.02C57.4,91.01 57.27,90.98 57.15,90.94C57.03,90.9 56.93,90.83 56.85,90.74C56.77,90.65 56.71,90.54 56.69,90.4C56.64,90.14 56.69,89.92 56.83,89.75C56.97,89.57 57.2,89.46 57.52,89.4C57.71,89.37 57.88,89.37 58.02,89.4C58.17,89.44 58.29,89.5 58.4,89.58C58.51,89.66 58.58,89.75 58.64,89.85L58.33,90.02C58.25,89.89 58.15,89.8 58.01,89.75C57.87,89.69 57.72,89.68 57.54,89.71C57.36,89.74 57.22,89.81 57.13,89.92C57.04,90.03 57,90.16 57.03,90.31C57.05,90.44 57.11,90.53 57.21,90.59C57.31,90.65 57.43,90.68 57.57,90.68L57.9,90.7C58.19,90.72 58.42,90.79 58.6,90.91C58.78,91.04 58.88,91.19 58.91,91.36C58.94,91.51 58.92,91.65 58.87,91.79C58.82,91.93 58.72,92.05 58.58,92.15C58.44,92.25 58.26,92.32 58.04,92.36L58.05,92.38Z" style="fill:rgb(251,244,242);fill-rule:nonzero;"/>
                <path d="M60.32,91.91C60.08,91.97 59.88,91.96 59.72,91.88C59.56,91.8 59.46,91.67 59.41,91.47C59.36,91.26 59.39,91.09 59.5,90.95C59.61,90.81 59.79,90.71 60.03,90.65L60.59,90.51C60.53,90.32 60.45,90.19 60.34,90.11C60.24,90.03 60.1,90.02 59.94,90.05C59.83,90.08 59.74,90.12 59.67,90.19C59.6,90.26 59.55,90.34 59.52,90.45L59.2,90.41C59.23,90.3 59.27,90.21 59.33,90.12C59.39,90.03 59.46,89.96 59.55,89.9C59.64,89.84 59.74,89.8 59.87,89.77C60.06,89.72 60.22,89.72 60.36,89.77C60.5,89.82 60.62,89.9 60.72,90.03C60.82,90.16 60.89,90.33 60.94,90.55L61.2,91.65L60.9,91.72L60.82,91.45C60.79,91.57 60.73,91.66 60.64,91.74C60.55,91.82 60.44,91.88 60.31,91.91L60.32,91.91ZM60.27,91.63C60.39,91.6 60.48,91.55 60.56,91.48C60.64,91.41 60.68,91.32 60.71,91.22C60.74,91.12 60.73,91 60.71,90.87L60.69,90.79L60.19,90.91C60,90.96 59.87,91.02 59.81,91.1C59.75,91.18 59.73,91.28 59.76,91.4C59.79,91.51 59.84,91.58 59.94,91.62C60.04,91.66 60.15,91.67 60.29,91.63L60.27,91.63Z" style="fill:rgb(251,244,242);fill-rule:nonzero;"/>
                <path d="M61.28,88.96C61.23,88.97 61.17,88.96 61.12,88.94C61.07,88.91 61.04,88.87 61.02,88.82C61,88.76 61.02,88.71 61.04,88.66C61.07,88.61 61.11,88.58 61.16,88.56C61.22,88.54 61.27,88.56 61.32,88.58C61.37,88.61 61.4,88.65 61.42,88.71C61.43,88.76 61.42,88.82 61.4,88.87C61.37,88.92 61.33,88.95 61.28,88.97L61.28,88.96ZM61.82,91.47L61.25,89.47L61.57,89.38L62.14,91.38L61.82,91.47Z" style="fill:rgb(251,244,242);fill-rule:nonzero;"/>
                <path d="M62.82,91.19L62.16,89.22L62.46,89.12L62.58,89.41C62.61,89.28 62.67,89.16 62.75,89.07C62.84,88.98 62.95,88.9 63.09,88.86C63.24,88.81 63.39,88.79 63.53,88.82C63.66,88.84 63.79,88.91 63.9,89.02C64.01,89.13 64.1,89.3 64.17,89.52L64.54,90.63L64.22,90.74L63.88,89.73C63.82,89.54 63.74,89.39 63.66,89.31C63.58,89.22 63.5,89.17 63.4,89.16C63.31,89.15 63.21,89.16 63.11,89.19C62.94,89.25 62.82,89.35 62.77,89.51C62.72,89.67 62.72,89.85 62.8,90.08L63.14,91.1L62.82,91.21L62.82,91.19Z" style="fill:rgb(251,244,242);fill-rule:nonzero;"/>
                <path d="M65.87,90.15C65.68,90.22 65.52,90.23 65.37,90.18C65.23,90.12 65.12,90 65.05,89.83L64.6,88.68L64.26,88.81L64.15,88.54L64.49,88.41L64.25,87.8L64.56,87.68L64.8,88.29L65.38,88.06L65.49,88.34L64.91,88.57L65.35,89.69C65.39,89.79 65.44,89.85 65.52,89.89C65.59,89.92 65.68,89.92 65.77,89.89C65.8,89.88 65.83,89.86 65.86,89.84C65.89,89.82 65.92,89.78 65.95,89.73L66.17,89.93C66.12,90 66.07,90.05 66.02,90.09C65.97,90.13 65.92,90.16 65.86,90.18L65.87,90.15Z" style="fill:rgb(251,244,242);fill-rule:nonzero;"/>
                <path d="M66.18,88.79L66.06,88.51L67.2,88L67.32,88.28L66.18,88.79Z" style="fill:rgb(251,244,242);fill-rule:nonzero;"/>
                <path d="M69.63,88.4C69.37,88.54 69.1,88.6 68.84,88.59C68.58,88.59 68.34,88.51 68.12,88.37C67.9,88.23 67.72,88.03 67.59,87.77C67.45,87.51 67.39,87.25 67.4,86.99C67.4,86.73 67.48,86.49 67.63,86.27C67.77,86.05 67.97,85.87 68.24,85.73C68.38,85.66 68.52,85.61 68.68,85.59C68.83,85.57 68.99,85.57 69.13,85.59C69.28,85.61 69.41,85.66 69.53,85.72L69.37,86.02C69.28,85.97 69.18,85.93 69.06,85.91C68.94,85.89 68.83,85.89 68.71,85.91C68.59,85.93 68.48,85.96 68.38,86.02C68.18,86.12 68.03,86.26 67.92,86.43C67.81,86.6 67.76,86.79 67.75,86.99C67.74,87.19 67.8,87.4 67.91,87.61C68.02,87.81 68.15,87.97 68.33,88.08C68.5,88.19 68.69,88.25 68.89,88.26C69.09,88.26 69.29,88.22 69.49,88.12C69.65,88.03 69.78,87.92 69.88,87.79C69.97,87.65 70.02,87.5 70.03,87.34C70.03,87.18 70,87.02 69.92,86.86L69.29,87.19L69.15,86.92L70.08,86.43L70.21,86.67C70.33,86.89 70.38,87.12 70.37,87.34C70.36,87.56 70.29,87.76 70.16,87.95C70.04,88.14 69.86,88.29 69.64,88.4L69.63,88.4Z" style="fill:rgb(251,244,242);fill-rule:nonzero;"/>
                <path d="M72.07,86.99C71.9,87.1 71.72,87.15 71.54,87.16C71.36,87.17 71.19,87.12 71.03,87.03C70.87,86.94 70.73,86.8 70.62,86.62C70.51,86.44 70.44,86.26 70.43,86.07C70.42,85.88 70.45,85.71 70.53,85.55C70.61,85.39 70.74,85.26 70.91,85.15C71.07,85.05 71.24,85 71.41,85.01C71.58,85.01 71.74,85.07 71.9,85.18C72.06,85.29 72.2,85.44 72.32,85.63L70.93,86.49C71.06,86.68 71.22,86.79 71.39,86.83C71.56,86.87 71.74,86.83 71.91,86.73C72.03,86.65 72.12,86.56 72.17,86.44C72.22,86.32 72.24,86.21 72.23,86.08L72.55,86.05C72.56,86.17 72.55,86.29 72.52,86.4C72.49,86.51 72.43,86.62 72.36,86.72C72.28,86.82 72.18,86.91 72.06,86.98L72.07,86.99ZM70.81,86.24L71.87,85.58C71.8,85.48 71.72,85.41 71.63,85.37C71.54,85.33 71.44,85.31 71.35,85.31C71.25,85.31 71.16,85.35 71.06,85.4C70.97,85.46 70.9,85.53 70.84,85.62C70.78,85.71 70.75,85.81 70.74,85.92C70.74,86.03 70.75,86.14 70.81,86.24Z" style="fill:rgb(251,244,242);fill-rule:nonzero;"/>
                <path d="M73.27,86.16L72.09,84.45L72.36,84.26L72.57,84.56C72.57,84.41 72.6,84.27 72.67,84.14C72.74,84.01 72.84,83.91 72.96,83.83L73.14,84.09C73.04,84.16 72.96,84.24 72.89,84.34C72.82,84.44 72.78,84.54 72.77,84.66C72.77,84.78 72.8,84.9 72.89,85.03L73.54,85.97L73.27,86.16Z" style="fill:rgb(251,244,242);fill-rule:nonzero;"/>
                <path d="M74.56,85.28L73.26,83.65L73.5,83.46L73.69,83.68C73.67,83.55 73.69,83.44 73.72,83.33C73.75,83.22 73.84,83.13 73.94,83.04C74.07,82.94 74.21,82.88 74.35,82.87C74.49,82.86 74.63,82.9 74.77,82.99C74.72,82.84 74.71,82.69 74.75,82.56C74.79,82.43 74.87,82.31 74.99,82.22C75.17,82.07 75.36,82.02 75.57,82.06C75.77,82.1 75.97,82.24 76.17,82.49L76.91,83.42L76.65,83.63L75.99,82.8C75.86,82.64 75.75,82.53 75.65,82.47C75.55,82.41 75.46,82.39 75.38,82.4C75.3,82.41 75.22,82.45 75.15,82.51C75.02,82.61 74.96,82.74 74.97,82.9C74.98,83.06 75.06,83.23 75.2,83.41L75.87,84.25L75.61,84.46L74.95,83.63C74.82,83.47 74.71,83.36 74.61,83.3C74.51,83.24 74.42,83.22 74.33,83.23C74.25,83.24 74.17,83.28 74.1,83.34C73.97,83.44 73.92,83.57 73.92,83.73C73.92,83.89 74.01,84.06 74.15,84.25L74.82,85.09L74.56,85.3L74.56,85.28Z" style="fill:rgb(251,244,242);fill-rule:nonzero;"/>
                <path d="M77.93,82.54C77.75,82.71 77.57,82.79 77.4,82.81C77.23,82.83 77.07,82.75 76.93,82.61C76.79,82.46 76.73,82.29 76.75,82.11C76.78,81.93 76.88,81.76 77.07,81.59L77.49,81.2C77.35,81.06 77.21,80.99 77.08,80.97C76.95,80.95 76.83,81 76.7,81.12C76.62,81.2 76.56,81.28 76.53,81.37C76.5,81.46 76.5,81.56 76.53,81.67L76.23,81.79C76.2,81.68 76.19,81.58 76.2,81.48C76.21,81.38 76.23,81.28 76.28,81.18C76.33,81.08 76.4,80.99 76.49,80.91C76.63,80.78 76.78,80.7 76.92,80.67C77.06,80.64 77.21,80.66 77.36,80.72C77.51,80.79 77.65,80.9 77.8,81.06L78.56,81.89L78.33,82.1L78.13,81.91C78.16,82.03 78.15,82.14 78.11,82.26C78.07,82.38 78,82.47 77.9,82.57L77.93,82.54ZM77.74,82.31C77.83,82.23 77.89,82.14 77.92,82.04C77.95,81.94 77.95,81.84 77.92,81.74C77.89,81.64 77.83,81.54 77.74,81.44L77.68,81.38L77.3,81.73C77.16,81.86 77.08,81.98 77.06,82.08C77.04,82.18 77.08,82.28 77.16,82.36C77.23,82.44 77.32,82.48 77.42,82.47C77.52,82.46 77.63,82.41 77.73,82.31L77.74,82.31Z" style="fill:rgb(251,244,242);fill-rule:nonzero;"/>
                <path d="M77.34,79.48C77.34,79.48 77.25,79.54 77.19,79.54C77.13,79.54 77.08,79.52 77.04,79.48C77,79.44 76.98,79.39 76.98,79.33C76.98,79.27 77,79.22 77.04,79.18C77.08,79.14 77.13,79.12 77.19,79.12C77.25,79.12 77.3,79.14 77.34,79.18C77.38,79.22 77.4,79.27 77.4,79.33C77.4,79.39 77.38,79.44 77.34,79.48ZM79.03,81.41L77.56,79.94L77.8,79.7L79.27,81.17L79.03,81.41Z" style="fill:rgb(251,244,242);fill-rule:nonzero;"/>
                <path d="M79.76,80.69L78.22,79.29L78.43,79.06L78.67,79.26C78.63,79.13 78.63,79 78.65,78.88C78.67,78.76 78.74,78.64 78.84,78.53C78.95,78.41 79.07,78.33 79.2,78.28C79.33,78.23 79.47,78.23 79.62,78.28C79.77,78.33 79.93,78.43 80.1,78.58L80.96,79.37L80.74,79.62L79.95,78.9C79.8,78.76 79.67,78.67 79.56,78.63C79.45,78.59 79.35,78.59 79.26,78.63C79.17,78.66 79.1,78.72 79.02,78.8C78.9,78.94 78.85,79.08 78.87,79.25C78.9,79.41 79,79.57 79.17,79.73L79.97,80.46L79.75,80.71L79.76,80.69Z" style="fill:rgb(251,244,242);fill-rule:nonzero;"/>
                <path d="M80.51,78.22L80.28,78.03L81.07,77.06L81.31,77.25L80.52,78.22L80.51,78.22Z" style="fill:rgb(251,244,242);fill-rule:nonzero;"/>
                <path d="M82.61,77.34L80.26,75.62L81.28,74.23L81.54,74.42L80.73,75.53L81.49,76.09L82.23,75.08L82.49,75.27L81.75,76.28L82.57,76.88L83.38,75.77L83.64,75.96L82.62,77.36L82.61,77.34Z" style="fill:rgb(251,244,242);fill-rule:nonzero;"/>
                <path d="M84.06,75.32L82.3,74.2L82.47,73.94L82.74,74.09C82.68,73.97 82.65,73.84 82.66,73.72C82.66,73.59 82.71,73.47 82.79,73.34C82.88,73.2 82.98,73.1 83.1,73.03C83.22,72.96 83.36,72.94 83.51,72.96C83.67,72.98 83.84,73.05 84.03,73.18L85.01,73.81L84.83,74.09L83.93,73.52C83.76,73.41 83.61,73.35 83.5,73.33C83.38,73.31 83.29,73.33 83.21,73.37C83.13,73.41 83.06,73.49 83.01,73.58C82.91,73.73 82.89,73.89 82.94,74.04C82.99,74.19 83.12,74.34 83.32,74.46L84.23,75.04L84.05,75.32L84.06,75.32Z" style="fill:rgb(251,244,242);fill-rule:nonzero;"/>
                <path d="M84.38,72.76L84.11,72.61L84.72,71.52L84.99,71.67L84.38,72.76Z" style="fill:rgb(251,244,242);fill-rule:nonzero;"/>
                <path d="M86.28,71.57L83.67,70.27L83.83,69.95L86.15,71.11L86.76,69.88L87.05,70.02L86.28,71.57Z" style="fill:rgb(251,244,242);fill-rule:nonzero;"/>
                <path d="M87.54,69.02C87.44,69.24 87.32,69.4 87.16,69.48C87,69.56 86.83,69.56 86.65,69.48C86.46,69.4 86.34,69.27 86.29,69.1C86.24,68.93 86.27,68.72 86.37,68.49L86.6,67.96C86.41,67.9 86.26,67.88 86.14,67.92C86.02,67.96 85.92,68.05 85.86,68.21C85.82,68.31 85.8,68.41 85.81,68.51C85.81,68.6 85.86,68.69 85.93,68.78L85.7,69.01C85.63,68.92 85.58,68.83 85.54,68.74C85.5,68.65 85.49,68.54 85.49,68.43C85.49,68.32 85.52,68.21 85.57,68.09C85.65,67.91 85.75,67.78 85.87,67.69C85.99,67.6 86.13,67.56 86.29,67.56C86.45,67.56 86.63,67.6 86.83,67.69L87.86,68.14L87.74,68.42L87.48,68.33C87.55,68.43 87.6,68.54 87.61,68.65C87.62,68.77 87.61,68.89 87.55,69.02L87.54,69.02ZM87.28,68.89C87.33,68.78 87.34,68.67 87.33,68.57C87.32,68.47 87.28,68.38 87.21,68.29C87.14,68.21 87.05,68.14 86.92,68.09L86.84,68.06L86.64,68.53C86.56,68.71 86.54,68.85 86.56,68.95C86.59,69.05 86.65,69.12 86.76,69.17C86.86,69.21 86.95,69.21 87.04,69.17C87.13,69.12 87.2,69.03 87.26,68.9L87.28,68.89Z" style="fill:rgb(251,244,242);fill-rule:nonzero;"/>
                <path d="M88.98,67.69C88.98,67.69 88.93,67.79 88.89,67.85C88.85,67.91 88.8,67.97 88.74,68.03L88.52,67.82C88.57,67.77 88.61,67.72 88.64,67.68C88.67,67.64 88.69,67.61 88.7,67.58C88.73,67.51 88.73,67.44 88.7,67.39C88.67,67.34 88.64,67.27 88.58,67.22L88.3,66.97L86.05,67.11L86.17,66.78L88,66.69L86.65,65.46L86.77,65.12L88.66,66.87C88.76,66.96 88.84,67.05 88.9,67.13C88.96,67.21 89,67.3 89.02,67.39C89.04,67.48 89.02,67.59 88.98,67.7L88.98,67.69Z" style="fill:rgb(251,244,242);fill-rule:nonzero;"/>
                <path d="M89.15,64.57C89.09,64.76 89,64.92 88.86,65.05C88.73,65.17 88.57,65.25 88.39,65.29C88.21,65.33 88.01,65.32 87.81,65.25C87.6,65.19 87.44,65.09 87.3,64.96C87.17,64.83 87.08,64.68 87.03,64.5C86.98,64.32 86.99,64.14 87.05,63.95C87.11,63.76 87.2,63.62 87.33,63.51C87.46,63.4 87.62,63.33 87.81,63.31C88,63.28 88.2,63.31 88.43,63.37L87.96,64.94C88.18,64.99 88.37,64.97 88.53,64.88C88.69,64.79 88.8,64.65 88.86,64.46C88.9,64.32 88.9,64.19 88.86,64.07C88.82,63.95 88.76,63.85 88.66,63.77L88.88,63.54C88.97,63.62 89.04,63.72 89.09,63.82C89.14,63.92 89.17,64.04 89.18,64.17C89.19,64.3 89.18,64.43 89.13,64.57L89.15,64.57ZM87.71,64.84L88.07,63.64C87.95,63.61 87.85,63.61 87.75,63.64C87.65,63.67 87.57,63.72 87.5,63.79C87.43,63.86 87.38,63.94 87.35,64.05C87.32,64.15 87.31,64.26 87.33,64.36C87.35,64.47 87.39,64.56 87.45,64.65C87.51,64.74 87.6,64.8 87.72,64.85L87.71,64.84Z" style="fill:rgb(251,244,242);fill-rule:nonzero;"/>
            </g>
            <g>
                <path d="M12.27,54.02C12.24,53.71 12.32,53.44 12.51,53.21C12.69,52.98 12.94,52.85 13.26,52.83C13.56,52.81 13.82,52.89 14.04,53.09C14.26,53.29 14.38,53.54 14.41,53.85C14.44,54.16 14.36,54.43 14.17,54.66C13.98,54.89 13.74,55.02 13.44,55.04C13.13,55.07 12.86,54.98 12.64,54.78C12.42,54.58 12.3,54.33 12.27,54.02Z" style="fill:rgb(251,244,242);fill-rule:nonzero;"/>
                <path d="M89.97,54.33C89.94,54.64 89.82,54.89 89.6,55.09C89.38,55.28 89.11,55.37 88.8,55.34C88.5,55.31 88.26,55.18 88.07,54.95C87.89,54.72 87.81,54.45 87.84,54.14C87.87,53.83 87.99,53.58 88.21,53.38C88.43,53.19 88.69,53.1 88.99,53.13C89.3,53.16 89.55,53.29 89.73,53.52C89.91,53.75 89.99,54.02 89.96,54.33L89.97,54.33Z" style="fill:rgb(251,244,242);fill-rule:nonzero;"/>
            </g>
        </g>
    </g>
</svg>
